Hack-Bold.ufo
<glyph name="hyphen" format="1">
  <advance width="1233"/>
  <unicode hex="002D"/>
  <outline>
    <contour>
      <point x="221" y="746" type="line" name="hr00"/>
      <point x="1012" y="746" type="line" name="dv02"/>
      <point x="1012" y="455" type="line" name="dv01"/>
      <point x="221" y="455" type="line"/>
    </contour>
  </outline>
</glyph>
<glyph name="six" format="1">
  <advance width="1233"/>
  <unicode hex="0036"/>
  <outline>
    <contour>
      <point x="644" y="-31" type="curve" smooth="yes" name="dv01"/>
      <point x="469" y="-31"/>
      <point x="341" y="26" name="dh01"/>
      <point x="256" y="153" type="curve" smooth="yes"/>
      <point x="168" y="282" name="at01"/>
      <point x="131" y="476"/>
      <point x="131" y="724" type="curve" smooth="yes"/>
      <point x="131" y="988" name="ih01"/>
      <point x="174" y="1189"/>
      <point x="282" y="1326" type="curve" smooth="yes" name="sv01"/>
      <point x="383" y="1454"/>
      <point x="536" y="1518" name="dh02"/>
      <point x="731" y="1518" type="curve" smooth="yes"/>
      <point x="786" y="1518" name="dv04"/>
      <point x="829" y="1514"/>
      <point x="880" y="1503" type="curve" smooth="yes" name="dh04"/>
      <point x="929" y="1493"/>
      <point x="979" y="1478"/>
      <point x="1030" y="1458" type="curve" name="dv02"/>
      <point x="1030" y="1190" type="line"/>
      <point x="977" y="1221" name="dh03"/>
      <point x="927" y="1243"/>
      <point x="879" y="1258" type="curve" smooth="yes" name="dv03"/>
      <point x="831" y="1273"/>
      <point x="784" y="1280" name="sh01"/>
      <point x="738" y="1280" type="curve" smooth="yes"/>
      <point x="632" y="1280"/>
      <point x="551" y="1244"/>
      <point x="496" y="1173" type="curve" smooth="yes" name="sh02"/>
      <point x="441" y="1102"/>
      <point x="411" y="996"/>
      <point x="408" y="855" type="curve"/>
      <point x="439" y="898"/>
      <point x="481" y="933"/>
      <point x="528" y="953" type="curve" smooth="yes"/>
      <point x="571" y="972"/>
      <point x="629" y="985"/>
      <point x="702" y="985" type="curve" smooth="yes"/>
      <point x="834" y="985"/>
      <point x="940" y="943"/>
      <point x="1012" y="859" type="curve" smooth="yes"/>
      <point x="1084" y="776"/>
      <point x="1122" y="654"/>
      <point x="1122" y="495" type="curve" smooth="yes" name="hr01"/>
      <point x="1122" y="334"/>
      <point x="1082" y="198"/>
      <point x="999" y="106" type="curve" smooth="yes"/>
      <point x="915" y="13"/>
      <point x="796" y="-31"/>
    </contour>
    <contour>
      <point x="643" y="207" type="curve" smooth="yes"/>
      <point x="703" y="207"/>
      <point x="755" y="228"/>
      <point x="791" y="277" type="curve" smooth="yes"/>
      <point x="825" y="323"/>
      <point x="842" y="390"/>
      <point x="842" y="477" type="curve" smooth="yes"/>
      <point x="842" y="564"/>
      <point x="825" y="631"/>
      <point x="791" y="678" type="curve" smooth="yes"/>
      <point x="759" y="722"/>
      <point x="710" y="748"/>
      <point x="642" y="748" type="curve" smooth="yes"/>
      <point x="575" y="748"/>
      <point x="529" y="723"/>
      <point x="497" y="679" type="curve" smooth="yes"/>
      <point x="463" y="632"/>
      <point x="446" y="565"/>
      <point x="446" y="478" type="curve" smooth="yes"/>
      <point x="446" y="386"/>
      <point x="465" y="320"/>
      <point x="497" y="276" type="curve" smooth="yes"/>
      <point x="532" y="228"/>
      <point x="583" y="207"/>
    </contour>
  </outline>
</glyph>
<glyph name="colon" format="1">
  <advance width="1233"/>
  <unicode hex="003A"/>
  <outline>
    <contour>
      <point x="619" y="752" type="curve" smooth="yes" name="dv01"/>
      <point x="567" y="752"/>
      <point x="524" y="774" name="dh01"/>
      <point x="495" y="803" type="curve" smooth="yes"/>
      <point x="459" y="839" name="dv02"/>
      <point x="443" y="885"/>
      <point x="443" y="936" type="curve" smooth="yes" name="dh02"/>
      <point x="443" y="993"/>
      <point x="463" y="1038"/>
      <point x="494" y="1069" type="curve" smooth="yes" name="ab01"/>
      <point x="529" y="1104"/>
      <point x="574" y="1120" name="sh01"/>
      <point x="621" y="1120" type="curve" smooth="yes"/>
      <point x="668" y="1120" name="sv01"/>
      <point x="711" y="1104"/>
      <point x="746" y="1069" type="curve" smooth="yes" name="sh02"/>
      <point x="777" y="1038"/>
      <point x="797" y="993"/>
      <point x="797" y="937" type="curve" smooth="yes"/>
      <point x="797" y="881"/>
      <point x="777" y="834"/>
      <point x="746" y="803" type="curve" smooth="yes"/>
      <point x="715" y="772"/>
      <point x="670" y="752"/>
    </contour>
    <contour>
      <point x="620" y="36" type="curve" smooth="yes"/>
      <point x="571" y="36"/>
      <point x="529" y="53"/>
      <point x="495" y="87" type="curve" smooth="yes"/>
      <point x="460" y="122"/>
      <point x="443" y="166"/>
      <point x="443" y="220" type="curve" smooth="yes"/>
      <point x="443" y="274"/>
      <point x="460" y="318"/>
      <point x="495" y="353" type="curve" smooth="yes"/>
      <point x="529" y="387"/>
      <point x="571" y="404"/>
      <point x="620" y="404" type="curve" smooth="yes"/>
      <point x="668" y="404"/>
      <point x="711" y="388"/>
      <point x="746" y="353" type="curve" smooth="yes"/>
      <point x="777" y="322"/>
      <point x="797" y="277"/>
      <point x="797" y="220" type="curve" smooth="yes"/>
      <point x="797" y="164"/>
      <point x="778" y="119"/>
      <point x="746" y="87" type="curve" smooth="yes"/>
      <point x="711" y="52"/>
      <point x="668" y="36"/>
    </contour>
  </outline>
</glyph>
<glyph name="G" format="1">
  <advance width="1233"/>
  <unicode hex="0047"/>
  <outline>
    <contour>
      <point x="720" y="-29" type="curve" smooth="yes" name="dv01"/>
      <point x="529" y="-29"/>
      <point x="379" y="39" name="dh01"/>
      <point x="275" y="172" type="curve" smooth="yes"/>
      <point x="175" y="300" name="at01"/>
      <point x="117" y="487"/>
      <point x="117" y="747" type="curve" smooth="yes"/>
      <point x="117" y="995" name="ih01"/>
      <point x="169" y="1188"/>
      <point x="277" y="1321" type="curve" smooth="yes" name="sv01"/>
      <point x="384" y="1454"/>
      <point x="535" y="1520" name="dh02"/>
      <point x="732" y="1520" type="curve" smooth="yes"/>
      <point x="800" y="1520" name="dv02"/>
      <point x="855" y="1512"/>
      <point x="914" y="1495" type="curve" smooth="yes" name="sh01"/>
      <point x="971" y="1478"/>
      <point x="1025" y="1454" name="dv03"/>
      <point x="1077" y="1421" type="curve" name="dh03"/>
      <point x="1077" y="1094" type="line" name="dh04"/>
      <point x="1036" y="1147"/>
      <point x="988" y="1188"/>
      <point x="935" y="1215" type="curve" smooth="yes"/>
      <point x="882" y="1242"/>
      <point x="823" y="1255" name="sh02"/>
      <point x="759" y="1255" type="curve" smooth="yes"/>
      <point x="646" y="1255"/>
      <point x="562" y="1213"/>
      <point x="507" y="1129" type="curve" smooth="yes"/>
      <point x="452" y="1044"/>
      <point x="424" y="916"/>
      <point x="424" y="747" type="curve" smooth="yes"/>
      <point x="424" y="580"/>
      <point x="451" y="453"/>
      <point x="504" y="365" type="curve" smooth="yes"/>
      <point x="555" y="282"/>
      <point x="630" y="236"/>
      <point x="738" y="236" type="curve" smooth="yes"/>
      <point x="765" y="236"/>
      <point x="794" y="238"/>
      <point x="817" y="245" type="curve"/>
      <point x="846" y="252"/>
      <point x="857" y="259"/>
      <point x="872" y="270" type="curve"/>
      <point x="872" y="555" type="line"/>
      <point x="670" y="555" type="line"/>
      <point x="670" y="803" type="line"/>
      <point x="1130" y="803" type="line"/>
      <point x="1130" y="119" type="line"/>
      <point x="1074" y="71"/>
      <point x="1012" y="34"/>
      <point x="943" y="9" type="curve" smooth="yes"/>
      <point x="874" y="-16"/>
      <point x="804" y="-29"/>
    </contour>
  </outline>
</glyph>
<glyph name="d" format="1">
  <advance width="1233"/>
  <unicode hex="0064"/>
  <outline>
    <contour>
      <point x="492" y="-29" type="curve" smooth="yes" name="dv01"/>
      <point x="368" y="-29"/>
      <point x="268" y="21" name="sh01"/>
      <point x="196" y="124" type="curve" smooth="yes"/>
      <point x="125" y="226" name="at01"/>
      <point x="90" y="371"/>
      <point x="90" y="560" type="curve" smooth="yes" name="iv01"/>
      <point x="90" y="749" name="ah02"/>
      <point x="126" y="894" name="sh02"/>
      <point x="198" y="995" type="curve" smooth="yes" name="ab01"/>
      <point x="266" y="1091"/>
      <point x="366" y="1147" name="sh03"/>
      <point x="498" y="1147" type="curve" smooth="yes"/>
      <point x="562" y="1147"/>
      <point x="615" y="1134" name="dv02"/>
      <point x="666" y="1101" type="curve" smooth="yes"/>
      <point x="713" y="1070" name="sh04"/>
      <point x="755" y="1023"/>
      <point x="791" y="961" type="curve" name="sv01"/>
      <point x="791" y="1556" type="line"/>
      <point x="1083" y="1556" type="line" name="sh05"/>
      <point x="1083" y="0" type="line"/>
      <point x="820" y="0" type="line"/>
      <point x="791" y="166" type="line" name="ah01"/>
      <point x="760" y="101" name="sh06"/>
      <point x="718" y="52"/>
      <point x="670" y="20" type="curve" smooth="yes" name="hr01"/>
      <point x="621" y="-13"/>
      <point x="561" y="-29"/>
    </contour>
    <contour>
      <point x="586" y="211" type="curve" smooth="yes"/>
      <point x="649" y="211"/>
      <point x="699" y="242"/>
      <point x="736" y="303" type="curve" smooth="yes"/>
      <point x="773" y="364"/>
      <point x="791" y="448"/>
      <point x="791" y="557" type="curve" smooth="yes"/>
      <point x="791" y="666"/>
      <point x="773" y="750"/>
      <point x="736" y="811" type="curve" smooth="yes"/>
      <point x="699" y="872"/>
      <point x="649" y="903"/>
      <point x="586" y="903" type="curve" smooth="yes"/>
      <point x="523" y="903"/>
      <point x="473" y="872"/>
      <point x="437" y="811" type="curve" smooth="yes"/>
      <point x="401" y="750"/>
      <point x="383" y="665"/>
      <point x="383" y="557" type="curve" smooth="yes"/>
      <point x="383" y="448"/>
      <point x="401" y="364"/>
      <point x="437" y="303" type="curve" smooth="yes"/>
      <point x="473" y="242"/>
      <point x="523" y="211"/>
    </contour>
  </outline>
</glyph>
<glyph name="f" format="1">
  <advance width="1233"/>
  <unicode hex="0066"/>
  <outline>
    <contour>
      <point x="426" y="895" type="line" name="dh01"/>
      <point x="154" y="895" type="line"/>
      <point x="154" y="1120" type="line" name="at02"/>
      <point x="426" y="1120" type="line" name="sh01"/>
      <point x="426" y="1198" type="line" smooth="yes"/>
      <point x="426" y="1333"/>
      <point x="454" y="1426" name="at01"/>
      <point x="510" y="1478" type="curve" smooth="yes"/>
      <point x="566" y="1530" name="sv01"/>
      <point x="670" y="1556"/>
      <point x="822" y="1556" type="curve" smooth="yes"/>
      <point x="1063" y="1556" type="line" name="sh02"/>
      <point x="1063" y="1331" type="line" name="at03"/>
      <point x="834" y="1331" type="line" smooth="yes"/>
      <point x="789" y="1331" name="sv02"/>
      <point x="760" y="1323" name="dh02"/>
      <point x="745" y="1307" type="curve" smooth="yes" name="ab01"/>
      <point x="729" y="1291"/>
      <point x="719" y="1257"/>
      <point x="719" y="1218" type="curve" smooth="yes"/>
      <point x="719" y="1120" type="line"/>
      <point x="1063" y="1120" type="line"/>
      <point x="1063" y="895" type="line"/>
      <point x="719" y="895" type="line"/>
      <point x="719" y="0" type="line"/>
      <point x="426" y="0" type="line"/>
    </contour>
  </outline>
</glyph>
<glyph name="i" format="1">
  <advance width="1233"/>
  <unicode hex="0069"/>
  <outline>
    <contour>
      <point x="451" y="1253" type="line" smooth="yes" name="dv01"/>
      <point x="431" y="1253" name="dh01"/>
      <point x="421" y="1263"/>
      <point x="421" y="1283" type="curve" smooth="yes" name="dv02"/>
      <point x="421" y="1565" type="line" smooth="yes"/>
      <point x="421" y="1585"/>
      <point x="431" y="1595" name="dh02"/>
      <point x="451" y="1595" type="curve" smooth="yes"/>
      <point x="684" y="1595" type="line" smooth="yes" name="ab01"/>
      <point x="704" y="1595"/>
      <point x="714" y="1585" name="sh01"/>
      <point x="714" y="1565" type="curve" smooth="yes" name="sv01"/>
      <point x="714" y="1283" type="line" smooth="yes"/>
      <point x="714" y="1263" name="at01"/>
      <point x="704" y="1253" name="sh02"/>
      <point x="684" y="1253" type="curve" smooth="yes"/>
    </contour>
    <contour>
      <point x="812" y="-12" type="line" smooth="yes"/>
      <point x="673" y="-12" name="sv02"/>
      <point x="573" y="24"/>
      <point x="512" y="96" type="curve" smooth="yes"/>
      <point x="451" y="167"/>
      <point x="421" y="287"/>
      <point x="421" y="455" type="curve" smooth="yes"/>
      <point x="421" y="895" type="line"/>
      <point x="184" y="895" type="line"/>
      <point x="184" y="1120" type="line"/>
      <point x="714" y="1120" type="line"/>
      <point x="714" y="455" type="line" smooth="yes"/>
      <point x="714" y="368"/>
      <point x="728" y="305"/>
      <point x="755" y="268" type="curve" smooth="yes"/>
      <point x="782" y="231"/>
      <point x="828" y="213"/>
      <point x="894" y="213" type="curve" smooth="yes"/>
      <point x="1128" y="213" type="line"/>
      <point x="1128" y="-12" type="line"/>
    </contour>
  </outline>
</glyph>
<glyph name="q" format="1">
  <advance width="1233"/>
  <unicode hex="0071"/>
  <outline>
    <contour>
      <point x="791" y="158" type="line" name="iv01"/>
      <point x="756" y="97"/>
      <point x="714" y="50" name="dv01"/>
      <point x="666" y="18" type="curve" smooth="yes"/>
      <point x="618" y="-14" name="sh01"/>
      <point x="567" y="-29"/>
      <point x="499" y="-29" type="curve" smooth="yes" name="at02"/>
      <point x="375" y="-29"/>
      <point x="273" y="19" name="sh02"/>
      <point x="198" y="123" type="curve" smooth="yes" name="at01"/>
      <point x="126" y="224"/>
      <point x="90" y="370" name="sh03"/>
      <point x="90" y="558" type="curve" smooth="yes" name="ah02"/>
      <point x="90" y="747" name="dv02"/>
      <point x="125" y="892"/>
      <point x="196" y="994" type="curve" smooth="yes" name="sh04"/>
      <point x="268" y="1097"/>
      <point x="368" y="1147" name="sv01"/>
      <point x="492" y="1147" type="curve" smooth="yes"/>
      <point x="561" y="1147" name="sh05"/>
      <point x="621" y="1131"/>
      <point x="670" y="1098" type="curve" smooth="yes"/>
      <point x="718" y="1066" name="ah01"/>
      <point x="760" y="1017" name="sh06"/>
      <point x="791" y="952" type="curve"/>
      <point x="820" y="1120" type="line"/>
      <point x="1083" y="1120" type="line"/>
      <point x="1083" y="-426" type="line" name="hr01"/>
      <point x="791" y="-426" type="line"/>
    </contour>
    <contour>
      <point x="586" y="215" type="curve" smooth="yes"/>
      <point x="649" y="215"/>
      <point x="699" y="246"/>
      <point x="736" y="307" type="curve" smooth="yes"/>
      <point x="773" y="368"/>
      <point x="791" y="452"/>
      <point x="791" y="561" type="curve" smooth="yes" name="hr02"/>
      <point x="791" y="670"/>
      <point x="773" y="754"/>
      <point x="736" y="815" type="curve" smooth="yes"/>
      <point x="699" y="876"/>
      <point x="649" y="907"/>
      <point x="586" y="907" type="curve" smooth="yes"/>
      <point x="523" y="907"/>
      <point x="473" y="876"/>
      <point x="437" y="815" type="curve" smooth="yes"/>
      <point x="401" y="754"/>
      <point x="383" y="669"/>
      <point x="383" y="561" type="curve" smooth="yes"/>
      <point x="383" y="452"/>
      <point x="401" y="368"/>
      <point x="437" y="307" type="curve" smooth="yes"/>
      <point x="473" y="246"/>
      <point x="523" y="215"/>
    </contour>
  </outline>
</glyph>
<glyph name="r" format="1">
  <advance width="1233"/>
  <unicode hex="0072"/>
  <outline>
    <contour>
      <point x="241" y="1120" type="line" name="dh01"/>
      <point x="505" y="1120" type="line"/>
      <point x="534" y="946" type="line" name="dh02"/>
      <point x="563" y="1011"/>
      <point x="607" y="1060" name="at02"/>
      <point x="666" y="1095" type="curve" smooth="yes" name="at01"/>
      <point x="726" y="1130"/>
      <point x="796" y="1147" name="iv01"/>
      <point x="871" y="1147" type="curve" smooth="yes"/>
      <point x="911" y="1147" name="sv01"/>
      <point x="956" y="1142"/>
      <point x="992" y="1133" type="curve" smooth="yes"/>
      <point x="1031" y="1122"/>
      <point x="1072" y="1106" name="sh01"/>
      <point x="1101" y="1090" type="curve" name="ab01"/>
      <point x="1101" y="811" type="line"/>
      <point x="1069" y="840"/>
      <point x="1032" y="862"/>
      <point x="989" y="877" type="curve" smooth="yes"/>
      <point x="946" y="892"/>
      <point x="899" y="899"/>
      <point x="848" y="899" type="curve" smooth="yes"/>
      <point x="785" y="899"/>
      <point x="731" y="888"/>
      <point x="685" y="867" type="curve" smooth="yes"/>
      <point x="638" y="846"/>
      <point x="602" y="814"/>
      <point x="577" y="773" type="curve" smooth="yes"/>
      <point x="564" y="752"/>
      <point x="551" y="721"/>
      <point x="544" y="680" type="curve" smooth="yes"/>
      <point x="537" y="641"/>
      <point x="534" y="595"/>
      <point x="534" y="516" type="curve" smooth="yes"/>
      <point x="534" y="0" type="line" name="hr01"/>
      <point x="241" y="0" type="line"/>
    </contour>
  </outline>
</glyph>
<glyph name="s" format="1">
  <advance width="1233"/>
  <unicode hex="0073"/>
  <outline>
    <contour>
      <point x="616" y="-29" type="curve" smooth="yes" name="dv01"/>
      <point x="548" y="-29"/>
      <point x="473" y="-23"/>
      <point x="405" y="-12" type="curve" smooth="yes" name="ih01"/>
      <point x="337" y="-1"/>
      <point x="263" y="18" name="dv02"/>
      <point x="190" y="41" type="curve"/>
      <point x="190" y="297" type="line" name="ah02"/>
      <point x="255" y="260"/>
      <point x="321" y="232"/>
      <point x="388" y="213" type="curve" smooth="yes"/>
      <point x="456" y="194"/>
      <point x="517" y="184" name="sh01"/>
      <point x="585" y="184" type="curve" smooth="yes"/>
      <point x="651" y="184" name="at01"/>
      <point x="702" y="194"/>
      <point x="738" y="214" type="curve" smooth="yes"/>
      <point x="773" y="234" name="ih02"/>
      <point x="791" y="260"/>
      <point x="791" y="307" type="curve" smooth="yes" name="sv01"/>
      <point x="791" y="338"/>
      <point x="784" y="362" name="sh02"/>
      <point x="752" y="386" type="curve" smooth="yes"/>
      <point x="720" y="410"/>
      <point x="666" y="431"/>
      <point x="575" y="451" type="curve" smooth="yes"/>
      <point x="494" y="469" type="line" smooth="yes" name="sh03"/>
      <point x="382" y="494"/>
      <point x="300" y="534"/>
      <point x="249" y="588" type="curve" smooth="yes" name="ah01"/>
      <point x="198" y="643" name="sh04"/>
      <point x="172" y="714"/>
      <point x="172" y="803" type="curve" smooth="yes"/>
      <point x="172" y="912"/>
      <point x="211" y="997"/>
      <point x="289" y="1057" type="curve" smooth="yes"/>
      <point x="367" y="1117"/>
      <point x="477" y="1147"/>
      <point x="619" y="1147" type="curve" smooth="yes"/>
      <point x="683" y="1147"/>
      <point x="753" y="1141"/>
      <point x="808" y="1132" type="curve" smooth="yes"/>
      <point x="863" y="1123"/>
      <point x="935" y="1105"/>
      <point x="991" y="1085" type="curve"/>
      <point x="991" y="829" type="line"/>
      <point x="936" y="864"/>
      <point x="876" y="892"/>
      <point x="823" y="908" type="curve" smooth="yes"/>
      <point x="770" y="924"/>
      <point x="708" y="934"/>
      <point x="643" y="934" type="curve" smooth="yes"/>
      <point x="583" y="934"/>
      <point x="535" y="926"/>
      <point x="500" y="906" type="curve" smooth="yes"/>
      <point x="465" y="887"/>
      <point x="449" y="857"/>
      <point x="449" y="826" type="curve" smooth="yes"/>
      <point x="449" y="766"/>
      <point x="514" y="726"/>
      <point x="663" y="691" type="curve" smooth="yes"/>
      <point x="674" y="688" type="line"/>
      <point x="758" y="668" type="line" smooth="yes"/>
      <point x="863" y="643"/>
      <point x="942" y="603"/>
      <point x="993" y="546" type="curve" smooth="yes"/>
      <point x="1044" y="489"/>
      <point x="1067" y="409"/>
      <point x="1067" y="317" type="curve" smooth="yes"/>
      <point x="1067" y="202"/>
      <point x="1029" y="115"/>
      <point x="954" y="58" type="curve" smooth="yes"/>
      <point x="878" y="-1"/>
      <point x="763" y="-29"/>
    </contour>
  </outline>
</glyph>
<glyph name="sterling" format="1">
  <advance width="1233"/>
  <unicode hex="00A3"/>
  <outline>
    <contour>
      <point x="119" y="260" type="line" name="sv01"/>
      <point x="354" y="260" type="line" name="dh01"/>
      <point x="354" y="594" type="line" name="dv01"/>
      <point x="156" y="594" type="line"/>
      <point x="156" y="819" type="line"/>
      <point x="354" y="819" type="line" name="sh01"/>
      <point x="354" y="1016" type="line" smooth="yes"/>
      <point x="354" y="1186"/>
      <point x="392" y="1313" name="at01"/>
      <point x="467" y="1396" type="curve" smooth="yes" name="at02"/>
      <point x="542" y="1479"/>
      <point x="656" y="1520" name="iv01"/>
      <point x="810" y="1520" type="curve" smooth="yes"/>
      <point x="869" y="1520" name="sv02"/>
      <point x="926" y="1514"/>
      <point x="965" y="1506" type="curve" smooth="yes" name="sh02"/>
      <point x="1004" y="1498" name="sv03"/>
      <point x="1055" y="1482"/>
      <point x="1102" y="1462" type="curve" name="sv04"/>
      <point x="1102" y="1188" type="line"/>
      <point x="1062" y="1217" name="dh02"/>
      <point x="1013" y="1240" name="sv05"/>
      <point x="980" y="1251" type="curve" smooth="yes" name="ab01"/>
      <point x="937" y="1266"/>
      <point x="891" y="1272"/>
      <point x="848" y="1272" type="curve" smooth="yes"/>
      <point x="773" y="1272"/>
      <point x="724" y="1250"/>
      <point x="691" y="1206" type="curve" smooth="yes"/>
      <point x="658" y="1161"/>
      <point x="641" y="1090"/>
      <point x="641" y="995" type="curve" smooth="yes"/>
      <point x="641" y="819" type="line"/>
      <point x="977" y="819" type="line"/>
      <point x="977" y="594" type="line"/>
      <point x="641" y="594" type="line"/>
      <point x="641" y="260" type="line"/>
      <point x="1122" y="260" type="line"/>
      <point x="1122" y="0" type="line"/>
      <point x="119" y="0" type="line"/>
    </contour>
  </outline>
</glyph>
<glyph name="periodcentered" format="1">
  <advance width="1233"/>
  <unicode hex="00B7"/>
  <outline>
    <contour>
      <point x="614" y="344" type="curve" smooth="yes" name="av02"/>
      <point x="517" y="344"/>
      <point x="427" y="383"/>
      <point x="360" y="451" type="curve" smooth="yes"/>
      <point x="292" y="519" name="av01"/>
      <point x="256" y="609"/>
      <point x="256" y="706" type="curve" smooth="yes"/>
      <point x="256" y="806"/>
      <point x="294" y="893"/>
      <point x="362" y="961" type="curve"/>
      <point x="429" y="1026"/>
      <point x="520" y="1065"/>
      <point x="617" y="1065" type="curve" smooth="yes"/>
      <point x="713" y="1065"/>
      <point x="802" y="1027"/>
      <point x="870" y="962" type="curve"/>
      <point x="942" y="891"/>
      <point x="977" y="801"/>
      <point x="977" y="708" type="curve" smooth="yes"/>
      <point x="977" y="612"/>
      <point x="938" y="518"/>
      <point x="870" y="450" type="curve" smooth="yes"/>
      <point x="803" y="383"/>
      <point x="711" y="344"/>
    </contour>
  </outline>
</glyph>
<glyph name="questiondown" format="1">
  <advance width="1233"/>
  <unicode hex="00BF"/>
  <outline>
    <contour>
      <point x="667" y="1222" type="curve" smooth="yes" name="dv02"/>
      <point x="622" y="1222"/>
      <point x="584" y="1238" name="dh03"/>
      <point x="553" y="1269" type="curve" smooth="yes"/>
      <point x="522" y="1300" name="at01"/>
      <point x="506" y="1340" name="at02"/>
      <point x="506" y="1389" type="curve" smooth="yes" name="at03"/>
      <point x="506" y="1438"/>
      <point x="522" y="1480"/>
      <point x="553" y="1511" type="curve" smooth="yes"/>
      <point x="585" y="1542" name="dh04"/>
      <point x="627" y="1556"/>
      <point x="667" y="1556" type="curve" smooth="yes"/>
      <point x="678" y="1556" name="ab01"/>
      <point x="689" y="1555"/>
      <point x="700" y="1553" type="curve" smooth="yes" name="dh01"/>
      <point x="705" y="1552"/>
      <point x="718" y="1549"/>
      <point x="729" y="1544" type="curve" smooth="yes"/>
      <point x="738" y="1540"/>
      <point x="751" y="1533" name="sh01"/>
      <point x="756" y="1530" type="curve" smooth="yes" name="sh02"/>
      <point x="761" y="1527" name="ih01"/>
      <point x="770" y="1520"/>
      <point x="781" y="1509" type="curve" smooth="yes" name="dv01"/>
      <point x="794" y="1496" name="sh03"/>
      <point x="807" y="1479"/>
      <point x="816" y="1456" type="curve" smooth="yes"/>
      <point x="824" y="1436"/>
      <point x="828" y="1414"/>
      <point x="828" y="1390" type="curve" smooth="yes" name="dh02"/>
      <point x="828" y="1341"/>
      <point x="812" y="1300" name="sv01"/>
      <point x="781" y="1269" type="curve" smooth="yes"/>
      <point x="750" y="1238" name="iv01"/>
      <point x="712" y="1222"/>
    </contour>
    <contour>
      <point x="606" y="-27" type="curve" smooth="yes"/>
      <point x="474" y="-27"/>
      <point x="366" y="3"/>
      <point x="290" y="67" type="curve" smooth="yes"/>
      <point x="214" y="131"/>
      <point x="176" y="219"/>
      <point x="176" y="323" type="curve" smooth="yes"/>
      <point x="176" y="379"/>
      <point x="187" y="424"/>
      <point x="210" y="468" type="curve" smooth="yes"/>
      <point x="233" y="511"/>
      <point x="271" y="561"/>
      <point x="338" y="625" type="curve" smooth="yes"/>
      <point x="426" y="711" type="line" smooth="yes"/>
      <point x="470" y="754"/>
      <point x="498" y="789"/>
      <point x="511" y="817" type="curve" smooth="yes"/>
      <point x="524" y="844"/>
      <point x="530" y="879"/>
      <point x="530" y="922" type="curve" smooth="yes"/>
      <point x="530" y="924"/>
      <point x="530" y="926"/>
      <point x="531" y="928" type="curve"/>
      <point x="532" y="943"/>
      <point x="532" y="956"/>
      <point x="532" y="969" type="curve" smooth="yes"/>
      <point x="532" y="1092" type="line"/>
      <point x="799" y="1092" type="line"/>
      <point x="799" y="938" type="line" smooth="yes"/>
      <point x="799" y="871"/>
      <point x="789" y="815"/>
      <point x="768" y="769" type="curve" smooth="yes"/>
      <point x="745" y="718"/>
      <point x="709" y="672"/>
      <point x="657" y="621" type="curve" smooth="yes" name="hr01"/>
      <point x="567" y="532" type="line" smooth="yes"/>
      <point x="514" y="479"/>
      <point x="497" y="458"/>
      <point x="484" y="434" type="curve" smooth="yes"/>
      <point x="469" y="405"/>
      <point x="461" y="376"/>
      <point x="461" y="347" type="curve" smooth="yes"/>
      <point x="461" y="304"/>
      <point x="476" y="270"/>
      <point x="507" y="247" type="curve" smooth="yes"/>
      <point x="538" y="224"/>
      <point x="585" y="213"/>
      <point x="642" y="213" type="curve" smooth="yes"/>
      <point x="702" y="213"/>
      <point x="758" y="225"/>
      <point x="819" y="249" type="curve" smooth="yes"/>
      <point x="883" y="274"/>
      <point x="938" y="306"/>
      <point x="1006" y="354" type="curve"/>
      <point x="1006" y="86" type="line"/>
      <point x="941" y="49"/>
      <point x="879" y="22"/>
      <point x="808" y="2" type="curve" smooth="yes"/>
      <point x="741" y="-17"/>
      <point x="681" y="-27"/>
    </contour>
  </outline>
</glyph>
<glyph name="Ugrave" format="1">
  <advance width="1233"/>
  <unicode hex="00D9"/>
  <outline>
    <contour>
      <point x="283" y="1852" type="line" name="ih01"/>
      <point x="567" y="1852" type="line"/>
      <point x="766" y="1588" type="line" name="ih02"/>
      <point x="569" y="1588" type="line"/>
    </contour>
    <contour>
      <point x="616" y="-29" type="curve" smooth="yes" name="dv01"/>
      <point x="438" y="-29"/>
      <point x="309" y="17" name="sh01"/>
      <point x="228" y="109" type="curve" smooth="yes" name="at01"/>
      <point x="147" y="202"/>
      <point x="106" y="349" name="sh02"/>
      <point x="106" y="551" type="curve" smooth="yes"/>
      <point x="106" y="1493" type="line" name="dv02"/>
      <point x="401" y="1493" type="line"/>
      <point x="401" y="477" type="line" smooth="yes" name="ah02"/>
      <point x="401" y="401" name="at02"/>
      <point x="422" y="341"/>
      <point x="458" y="301" type="curve" smooth="yes" name="sh03"/>
      <point x="497" y="258"/>
      <point x="552" y="238"/>
      <point x="616" y="238" type="curve" smooth="yes" name="ah01"/>
      <point x="680" y="238" name="sh04"/>
      <point x="735" y="258"/>
      <point x="774" y="301" type="curve" smooth="yes"/>
      <point x="810" y="341"/>
      <point x="831" y="401"/>
      <point x="831" y="477" type="curve" smooth="yes"/>
      <point x="831" y="1493" type="line"/>
      <point x="1126" y="1493" type="line"/>
      <point x="1126" y="551" type="line" smooth="yes"/>
      <point x="1126" y="348"/>
      <point x="1086" y="200"/>
      <point x="1005" y="109" type="curve" smooth="yes"/>
      <point x="924" y="17"/>
      <point x="794" y="-29"/>
    </contour>
  </outline>
</glyph>
<glyph name="oslash" format="1">
  <advance width="1233"/>
  <unicode hex="00F8"/>
  <outline>
    <contour>
      <point x="25" y="2" type="line" name="hr00"/>
      <point x="188" y="199" type="line"/>
      <point x="159" y="247"/>
      <point x="136" y="301" name="sh01"/>
      <point x="121" y="361" type="curve" smooth="yes"/>
      <point x="106" y="421" name="at01"/>
      <point x="98" y="487"/>
      <point x="98" y="559" type="curve" smooth="yes"/>
      <point x="98" y="739" name="av02"/>
      <point x="146" y="885"/>
      <point x="238" y="989" type="curve" smooth="yes"/>
      <point x="331" y="1094"/>
      <point x="462" y="1147" name="sh02"/>
      <point x="615" y="1147" type="curve" smooth="yes"/>
      <point x="671" y="1147" name="dv01"/>
      <point x="728" y="1141"/>
      <point x="775" y="1126" type="curve" smooth="yes"/>
      <point x="819" y="1113" name="av01"/>
      <point x="870" y="1090"/>
      <point x="915" y="1059" type="curve"/>
      <point x="1063" y="1235" type="line" name="sv01"/>
      <point x="1202" y="1114" type="line"/>
      <point x="1042" y="926" type="line" name="sh03"/>
      <point x="1075" y="871" name="sh04"/>
      <point x="1099" y="809" name="sh05"/>
      <point x="1112" y="758" type="curve" smooth="yes" name="dv02"/>
      <point x="1127" y="702"/>
      <point x="1135" y="633" name="ah02"/>
      <point x="1135" y="557" type="curve" smooth="yes" name="sh06"/>
      <point x="1135" y="382" name="sh07"/>
      <point x="1088" y="235"/>
      <point x="996" y="130" type="curve" smooth="yes"/>
      <point x="908" y="30"/>
      <point x="780" y="-29" name="ah01"/>
      <point x="620" y="-29" type="curve" smooth="yes" name="sh08"/>
      <point x="560" y="-29"/>
      <point x="509" y="-21"/>
      <point x="458" y="-6" type="curve" smooth="yes"/>
      <point x="407" y="9"/>
      <point x="364" y="29"/>
      <point x="315" y="61" type="curve"/>
      <point x="164" y="-117" type="line"/>
    </contour>
    <contour>
      <point x="745" y="860" type="line"/>
      <point x="728" y="877"/>
      <point x="709" y="889"/>
      <point x="688" y="897" type="curve" smooth="yes"/>
      <point x="667" y="905"/>
      <point x="643" y="909"/>
      <point x="618" y="909" type="curve" smooth="yes"/>
      <point x="547" y="909"/>
      <point x="492" y="878"/>
      <point x="452" y="817" type="curve" smooth="yes"/>
      <point x="411" y="756"/>
      <point x="391" y="670"/>
      <point x="391" y="559" type="curve" smooth="yes"/>
      <point x="391" y="535"/>
      <point x="392" y="516"/>
      <point x="393" y="499" type="curve" smooth="yes"/>
      <point x="394" y="483"/>
      <point x="394" y="476"/>
      <point x="399" y="449" type="curve"/>
    </contour>
    <contour>
      <point x="617" y="209" type="curve" smooth="yes"/>
      <point x="688" y="209"/>
      <point x="743" y="240"/>
      <point x="782" y="302" type="curve" smooth="yes"/>
      <point x="822" y="366"/>
      <point x="842" y="456"/>
      <point x="842" y="553" type="curve" smooth="yes"/>
      <point x="842" y="576"/>
      <point x="841" y="602"/>
      <point x="840" y="617" type="curve" smooth="yes"/>
      <point x="839" y="629"/>
      <point x="835" y="656"/>
      <point x="831" y="675" type="curve"/>
      <point x="483" y="262" type="line"/>
      <point x="504" y="245"/>
      <point x="525" y="231"/>
      <point x="547" y="222" type="curve" smooth="yes"/>
      <point x="568" y="213"/>
      <point x="592" y="209"/>
    </contour>
  </outline>
</glyph>
<glyph name="aogonek" format="1">
  <advance width="1233"/>
  <unicode hex="0105"/>
  <outline>
    <contour>
      <point x="1036" y="-252" type="curve" smooth="yes" name="dv02"/>
      <point x="1077" y="-252" name="sh01"/>
      <point x="1131" y="-242"/>
      <point x="1184" y="-221" type="curve" name="dv01"/>
      <point x="1184" y="-377" type="line" name="dh03"/>
      <point x="1112" y="-392" name="ab01"/>
      <point x="1048" y="-399"/>
      <point x="997" y="-399" type="curve" smooth="yes" name="sh02"/>
      <point x="841" y="-399" name="ab02"/>
      <point x="756" y="-337" name="dv05"/>
      <point x="756" y="-222" type="curve" smooth="yes"/>
      <point x="756" y="-150" name="dh01"/>
      <point x="790" y="-80"/>
      <point x="865" y="0" type="curve"/>
      <point x="853" y="20" name="ih01"/>
      <point x="842" y="43"/>
      <point x="837" y="58" type="curve" smooth="yes"/>
      <point x="833" y="71" name="dv03"/>
      <point x="827" y="98"/>
      <point x="824" y="125" type="curve" name="ih02"/>
      <point x="787" y="76"/>
      <point x="740" y="38"/>
      <point x="682" y="11" type="curve" smooth="yes" name="dv04"/>
      <point x="626" y="-16"/>
      <point x="570" y="-29" name="sh03"/>
      <point x="494" y="-29" type="curve" smooth="yes" name="sh04"/>
      <point x="373" y="-29" name="sh05"/>
      <point x="274" y="4"/>
      <point x="202" y="72" type="curve" smooth="yes"/>
      <point x="131" y="139" name="ih03"/>
      <point x="95" y="233"/>
      <point x="95" y="354" type="curve" smooth="yes"/>
      <point x="95" y="482" name="dh04"/>
      <point x="134" y="580"/>
      <point x="222" y="644" type="curve" smooth="yes" name="sh06"/>
      <point x="307" y="706"/>
      <point x="438" y="737"/>
      <point x="615" y="737" type="curve" smooth="yes" name="dh02"/>
      <point x="818" y="737" type="line"/>
      <point x="818" y="786" type="line" smooth="yes" name="dv06"/>
      <point x="818" y="835"/>
      <point x="799" y="871"/>
      <point x="767" y="894" type="curve" smooth="yes"/>
      <point x="732" y="919" name="sh07"/>
      <point x="679" y="930"/>
      <point x="610" y="930" type="curve" smooth="yes" name="hr02"/>
      <point x="546" y="930"/>
      <point x="477" y="921"/>
      <point x="412" y="904" type="curve" smooth="yes"/>
      <point x="348" y="887"/>
      <point x="278" y="858"/>
      <point x="206" y="819" type="curve"/>
      <point x="206" y="1069" type="line"/>
      <point x="262" y="1092"/>
      <point x="336" y="1116"/>
      <point x="403" y="1128" type="curve"/>
      <point x="458" y="1139"/>
      <point x="540" y="1148"/>
      <point x="628" y="1148" type="curve" smooth="yes"/>
      <point x="815" y="1148"/>
      <point x="927" y="1102"/>
      <point x="997" y="1035" type="curve"/>
      <point x="1069" y="963"/>
      <point x="1109" y="852"/>
      <point x="1109" y="644" type="curve" smooth="yes"/>
      <point x="1109" y="570"/>
      <point x="1104" y="323"/>
      <point x="1104" y="274" type="curve" smooth="yes"/>
      <point x="1104" y="246"/>
      <point x="1105" y="216"/>
      <point x="1106" y="197" type="curve"/>
      <point x="1109" y="170"/>
      <point x="1110" y="142"/>
      <point x="1113" y="125" type="curve" smooth="yes"/>
      <point x="1117" y="98"/>
      <point x="1123" y="71"/>
      <point x="1127" y="58" type="curve" smooth="yes"/>
      <point x="1134" y="38"/>
      <point x="1144" y="15"/>
      <point x="1155" y="0" type="curve"/>
      <point x="1007" y="0" type="line"/>
      <point x="962" y="-61"/>
      <point x="948" y="-84"/>
      <point x="937" y="-104" type="curve" smooth="yes"/>
      <point x="924" y="-128"/>
      <point x="918" y="-145"/>
      <point x="918" y="-164" type="curve" smooth="yes"/>
      <point x="918" y="-211"/>
      <point x="953" y="-252"/>
    </contour>
    <contour>
      <point x="818" y="526" type="line"/>
      <point x="701" y="526" type="line" smooth="yes"/>
      <point x="591" y="526"/>
      <point x="515" y="512"/>
      <point x="472" y="484" type="curve" smooth="yes" name="hr03"/>
      <point x="429" y="456"/>
      <point x="407" y="409"/>
      <point x="407" y="342" type="curve" smooth="yes"/>
      <point x="407" y="287"/>
      <point x="421" y="250"/>
      <point x="452" y="219" type="curve" smooth="yes"/>
      <point x="482" y="189"/>
      <point x="523" y="174"/>
      <point x="576" y="174" type="curve" smooth="yes"/>
      <point x="651" y="174"/>
      <point x="711" y="202"/>
      <point x="754" y="262" type="curve"/>
      <point x="797" y="319"/>
      <point x="818" y="401"/>
      <point x="818" y="506" type="curve" smooth="yes"/>
    </contour>
  </outline>
</glyph>
<glyph name="ccaron" format="1">
  <advance width="1233"/>
  <unicode hex="010D"/>
  <outline>
    <contour>
      <point x="342" y="1675" type="line" name="ih01"/>
      <point x="520" y="1675" type="line"/>
      <point x="718" y="1448" type="line"/>
      <point x="917" y="1675" type="line" name="av01"/>
      <point x="1095" y="1675" type="line"/>
      <point x="839" y="1299" type="line"/>
      <point x="598" y="1299" type="line"/>
    </contour>
    <contour>
      <point x="722" y="-29" type="curve" smooth="yes" name="dv01"/>
      <point x="547" y="-29"/>
      <point x="411" y="23" name="dh01"/>
      <point x="314" y="127" type="curve" smooth="yes"/>
      <point x="217" y="232" name="dv04"/>
      <point x="168" y="376"/>
      <point x="168" y="559" type="curve" smooth="yes"/>
      <point x="168" y="743"/>
      <point x="217" y="888"/>
      <point x="315" y="993" type="curve" smooth="yes" name="dv03"/>
      <point x="413" y="1097"/>
      <point x="548" y="1149" name="dh02"/>
      <point x="719" y="1149" type="curve" smooth="yes"/>
      <point x="780" y="1149" name="dv02"/>
      <point x="839" y="1142"/>
      <point x="895" y="1128" type="curve" smooth="yes"/>
      <point x="950" y="1114"/>
      <point x="1006" y="1092"/>
      <point x="1061" y="1063" type="curve"/>
      <point x="1061" y="795" type="line"/>
      <point x="1018" y="832"/>
      <point x="968" y="861"/>
      <point x="921" y="880" type="curve" smooth="yes"/>
      <point x="874" y="899"/>
      <point x="818" y="909"/>
      <point x="761" y="909" type="curve" smooth="yes"/>
      <point x="661" y="909"/>
      <point x="591" y="877"/>
      <point x="542" y="818" type="curve" smooth="yes"/>
      <point x="491" y="757"/>
      <point x="465" y="670"/>
      <point x="465" y="559" type="curve" smooth="yes"/>
      <point x="465" y="448"/>
      <point x="491" y="362"/>
      <point x="542" y="301" type="curve" smooth="yes"/>
      <point x="593" y="241"/>
      <point x="666" y="211"/>
      <point x="762" y="211" type="curve" smooth="yes"/>
      <point x="818" y="211"/>
      <point x="871" y="221"/>
      <point x="921" y="240" type="curve" smooth="yes"/>
      <point x="964" y="256"/>
      <point x="1014" y="283"/>
      <point x="1061" y="326" type="curve"/>
      <point x="1061" y="57" type="line"/>
      <point x="1008" y="26"/>
      <point x="958" y="8"/>
      <point x="902" y="-7" type="curve" smooth="yes"/>
      <point x="846" y="-22"/>
      <point x="791" y="-29"/>
    </contour>
  </outline>
</glyph>
<glyph name="dcroat" format="1">
  <advance width="1233"/>
  <unicode hex="0111"/>
  <outline>
    <contour>
      <point x="492" y="-29" type="curve" smooth="yes" name="dv01"/>
      <point x="368" y="-29"/>
      <point x="268" y="21" name="sh01"/>
      <point x="196" y="124" type="curve" smooth="yes"/>
      <point x="125" y="226" name="at02"/>
      <point x="90" y="371"/>
      <point x="90" y="560" type="curve" smooth="yes" name="iv01"/>
      <point x="90" y="749" name="ah02"/>
      <point x="126" y="894"/>
      <point x="198" y="995" type="curve" smooth="yes"/>
      <point x="266" y="1091" name="sh02"/>
      <point x="366" y="1147" name="at01"/>
      <point x="498" y="1147" type="curve" smooth="yes" name="sh04"/>
      <point x="562" y="1147" name="sv02"/>
      <point x="615" y="1134"/>
      <point x="666" y="1101" type="curve" smooth="yes" name="sv03"/>
      <point x="713" y="1070" name="sh03"/>
      <point x="755" y="1023" name="ab01"/>
      <point x="791" y="961" type="curve"/>
      <point x="791" y="1251" type="line" name="sh05"/>
      <point x="485" y="1251" type="line"/>
      <point x="485" y="1440" type="line"/>
      <point x="791" y="1440" type="line" name="dv02"/>
      <point x="791" y="1556" type="line"/>
      <point x="1083" y="1556" type="line" name="sh06"/>
      <point x="1083" y="1440" type="line"/>
      <point x="1229" y="1440" type="line" name="sv01"/>
      <point x="1229" y="1251" type="line"/>
      <point x="1083" y="1251" type="line" name="sh07"/>
      <point x="1083" y="0" type="line"/>
      <point x="820" y="0" type="line"/>
      <point x="791" y="166" type="line" name="ah01"/>
      <point x="760" y="101" name="sh08"/>
      <point x="718" y="52"/>
      <point x="670" y="20" type="curve" smooth="yes"/>
      <point x="621" y="-13"/>
      <point x="561" y="-29"/>
    </contour>
    <contour>
      <point x="586" y="211" type="curve" smooth="yes"/>
      <point x="649" y="211"/>
      <point x="699" y="242"/>
      <point x="736" y="303" type="curve" smooth="yes"/>
      <point x="773" y="364"/>
      <point x="791" y="448"/>
      <point x="791" y="557" type="curve" smooth="yes"/>
      <point x="791" y="666"/>
      <point x="773" y="750"/>
      <point x="736" y="811" type="curve" smooth="yes"/>
      <point x="699" y="872"/>
      <point x="649" y="903"/>
      <point x="586" y="903" type="curve" smooth="yes"/>
      <point x="523" y="903"/>
      <point x="473" y="872"/>
      <point x="437" y="811" type="curve" smooth="yes"/>
      <point x="401" y="750"/>
      <point x="383" y="665"/>
      <point x="383" y="557" type="curve" smooth="yes"/>
      <point x="383" y="448"/>
      <point x="401" y="364"/>
      <point x="437" y="303" type="curve" smooth="yes"/>
      <point x="473" y="242"/>
      <point x="523" y="211"/>
    </contour>
  </outline>
</glyph>
<glyph name="Idotaccent" format="1">
  <advance width="1233"/>
  <unicode hex="0130"/>
  <outline>
    <contour>
      <point x="509" y="1606" type="line" smooth="yes" name="dv01"/>
      <point x="489" y="1606" name="sh01"/>
      <point x="479" y="1616"/>
      <point x="479" y="1636" type="curve" smooth="yes" name="dv02"/>
      <point x="479" y="1822" type="line" smooth="yes"/>
      <point x="479" y="1842" name="sh02"/>
      <point x="489" y="1852"/>
      <point x="509" y="1852" type="curve" smooth="yes"/>
      <point x="724" y="1852" type="line" smooth="yes" name="sv01"/>
      <point x="744" y="1852" name="dh01"/>
      <point x="754" y="1842" name="sv02"/>
      <point x="754" y="1822" type="curve" smooth="yes"/>
      <point x="754" y="1636" type="line" smooth="yes" name="at01"/>
      <point x="754" y="1616"/>
      <point x="744" y="1606" name="sv03"/>
      <point x="724" y="1606" type="curve" smooth="yes" name="sv04"/>
    </contour>
    <contour>
      <point x="172" y="260" type="line" name="dh02"/>
      <point x="469" y="260" type="line" name="sv05"/>
      <point x="469" y="1233" type="line" name="ab01"/>
      <point x="172" y="1233" type="line"/>
      <point x="172" y="1493" type="line"/>
      <point x="1061" y="1493" type="line"/>
      <point x="1061" y="1233" type="line"/>
      <point x="764" y="1233" type="line"/>
      <point x="764" y="260" type="line"/>
      <point x="1061" y="260" type="line"/>
      <point x="1061" y="0" type="line"/>
      <point x="172" y="0" type="line"/>
    </contour>
  </outline>
</glyph>
<glyph name="kgreenlandic" format="1">
  <advance width="1233"/>
  <unicode hex="0138"/>
  <outline>
    <contour>
      <point x="174" y="1120" type="line" name="hr00"/>
      <point x="467" y="1120" type="line"/>
      <point x="467" y="739" type="line"/>
      <point x="819" y="1120" type="line"/>
      <point x="1174" y="1120" type="line"/>
      <point x="750" y="702" type="line"/>
      <point x="1198" y="0" type="line"/>
      <point x="874" y="0" type="line"/>
      <point x="567" y="524" type="line"/>
      <point x="467" y="428" type="line"/>
      <point x="467" y="0" type="line"/>
      <point x="174" y="0" type="line"/>
    </contour>
  </outline>
</glyph>
<glyph name="lcaron" format="1">
  <advance width="1233"/>
  <unicode hex="013E"/>
  <outline>
    <contour>
      <point x="778" y="-8" type="line" smooth="yes" name="ab01"/>
      <point x="499" y="-8" name="dh01"/>
      <point x="387" y="124" name="sv01"/>
      <point x="387" y="459" type="curve" smooth="yes"/>
      <point x="387" y="1331" type="line" name="at01"/>
      <point x="90" y="1331" type="line"/>
      <point x="90" y="1556" type="line" name="dh02"/>
      <point x="680" y="1556" type="line" name="sv02"/>
      <point x="680" y="459" type="line" smooth="yes"/>
      <point x="680" y="283"/>
      <point x="728" y="217" name="at02"/>
      <point x="860" y="217" type="curve" smooth="yes"/>
      <point x="1094" y="217" type="line" name="sv03"/>
      <point x="1094" y="-8" type="line"/>
    </contour>
    <contour>
      <point x="908" y="1556" type="line" name="hr01"/>
      <point x="1190" y="1556" type="line"/>
      <point x="1029" y="1180" type="line"/>
      <point x="832" y="1180" type="line"/>
    </contour>
  </outline>
</glyph>
<glyph name="lslash" format="1">
  <advance width="1233"/>
  <unicode hex="0142"/>
  <outline>
    <contour>
      <point x="801" y="-8" type="line" smooth="yes" name="ab01"/>
      <point x="662" y="-8"/>
      <point x="562" y="28" name="dh01"/>
      <point x="501" y="100" type="curve" smooth="yes" name="iv01"/>
      <point x="440" y="171"/>
      <point x="410" y="291"/>
      <point x="410" y="459" type="curve" smooth="yes" name="sh01"/>
      <point x="410" y="625" type="line" name="sv01"/>
      <point x="137" y="430" type="line"/>
      <point x="37" y="592" type="line" name="at01"/>
      <point x="410" y="856" type="line" name="sh02"/>
      <point x="410" y="1331" type="line" name="iv02"/>
      <point x="115" y="1331" type="line"/>
      <point x="115" y="1556" type="line"/>
      <point x="702" y="1556" type="line"/>
      <point x="702" y="1063" type="line" name="dh02"/>
      <point x="997" y="1272" type="line"/>
      <point x="1100" y="1112" type="line" name="sv02"/>
      <point x="702" y="832" type="line" name="sv03"/>
      <point x="702" y="459" type="line" smooth="yes" name="ab02"/>
      <point x="702" y="371"/>
      <point x="716" y="309"/>
      <point x="744" y="272" type="curve" smooth="yes"/>
      <point x="771" y="236"/>
      <point x="815" y="217"/>
      <point x="883" y="217" type="curve" smooth="yes"/>
      <point x="1116" y="217" type="line"/>
      <point x="1116" y="-8" type="line"/>
    </contour>
  </outline>
</glyph>
<glyph name="racute" format="1">
  <advance width="1233"/>
  <unicode hex="0155"/>
  <outline>
    <contour>
      <point x="865" y="1680" type="line" name="av01"/>
      <point x="1147" y="1680" type="line"/>
      <point x="779" y="1304" type="line"/>
      <point x="582" y="1304" type="line" name="ih01"/>
    </contour>
    <contour>
      <point x="291" y="1120" type="line" name="dh01"/>
      <point x="555" y="1120" type="line"/>
      <point x="584" y="946" type="line" name="dh02"/>
      <point x="641" y="1075" name="at01"/>
      <point x="766" y="1147"/>
      <point x="923" y="1147" type="curve" smooth="yes" name="iv01"/>
      <point x="1006" y="1147" name="sv01"/>
      <point x="1082" y="1127"/>
      <point x="1151" y="1090" type="curve" name="sh01"/>
      <point x="1151" y="811" type="line" name="ab01"/>
      <point x="1087" y="871"/>
      <point x="1001" y="899"/>
      <point x="897" y="899" type="curve" smooth="yes"/>
      <point x="766" y="899"/>
      <point x="678" y="852"/>
      <point x="627" y="772" type="curve" smooth="yes"/>
      <point x="595" y="721"/>
      <point x="584" y="663"/>
      <point x="584" y="516" type="curve" smooth="yes"/>
      <point x="584" y="0" type="line"/>
      <point x="291" y="0" type="line"/>
    </contour>
  </outline>
</glyph>
<glyph name="sacute" format="1">
  <advance width="1233"/>
  <unicode hex="015B"/>
  <outline>
    <contour>
      <point x="750" y="1673" type="line" name="av01"/>
      <point x="1032" y="1673" type="line" name="ih01"/>
      <point x="664" y="1297" type="line"/>
      <point x="467" y="1297" type="line" name="ih02"/>
    </contour>
    <contour>
      <point x="613" y="-29" type="curve" smooth="yes" name="dv01"/>
      <point x="476" y="-29"/>
      <point x="335" y="-6" name="ih03"/>
      <point x="190" y="41" type="curve" name="dv02"/>
      <point x="190" y="297" type="line" name="ah02"/>
      <point x="319" y="224"/>
      <point x="453" y="184"/>
      <point x="588" y="184" type="curve" smooth="yes"/>
      <point x="723" y="184" name="sh02"/>
      <point x="791" y="225" name="at01"/>
      <point x="791" y="308" type="curve" smooth="yes"/>
      <point x="791" y="345" name="ih04"/>
      <point x="778" y="365" name="sv01"/>
      <point x="753" y="385" type="curve" smooth="yes" name="sh03"/>
      <point x="722" y="409"/>
      <point x="671" y="430"/>
      <point x="575" y="451" type="curve" smooth="yes"/>
      <point x="494" y="469" type="line" smooth="yes" name="sh01"/>
      <point x="279" y="517"/>
      <point x="172" y="620" name="ah01"/>
      <point x="172" y="801" type="curve" smooth="yes" name="sh04"/>
      <point x="172" y="1025"/>
      <point x="335" y="1147"/>
      <point x="623" y="1147" type="curve" smooth="yes"/>
      <point x="744" y="1147"/>
      <point x="871" y="1126"/>
      <point x="991" y="1085" type="curve"/>
      <point x="991" y="829" type="line"/>
      <point x="882" y="899"/>
      <point x="766" y="934"/>
      <point x="645" y="934" type="curve" smooth="yes"/>
      <point x="516" y="934"/>
      <point x="449" y="892"/>
      <point x="449" y="828" type="curve" smooth="yes"/>
      <point x="449" y="765"/>
      <point x="512" y="727"/>
      <point x="663" y="691" type="curve" smooth="yes"/>
      <point x="674" y="688" type="line"/>
      <point x="758" y="668" type="line" smooth="yes"/>
      <point x="969" y="617"/>
      <point x="1067" y="511"/>
      <point x="1067" y="320" type="curve" smooth="yes"/>
      <point x="1067" y="87"/>
      <point x="916" y="-29"/>
    </contour>
  </outline>
</glyph>
<glyph name="Tbar" format="1">
  <advance width="1233"/>
  <unicode hex="0166"/>
  <outline>
    <contour>
      <point x="469" y="538" type="line" name="dh01"/>
      <point x="222" y="538" type="line"/>
      <point x="222" y="730" type="line"/>
      <point x="469" y="730" type="line" name="sh01"/>
      <point x="469" y="1235" type="line" name="sv01"/>
      <point x="90" y="1235" type="line"/>
      <point x="90" y="1493" type="line" name="at01"/>
      <point x="1143" y="1493" type="line"/>
      <point x="1143" y="1235" type="line" name="sv02"/>
      <point x="764" y="1235" type="line" name="sh02"/>
      <point x="764" y="730" type="line" name="sv03"/>
      <point x="1011" y="730" type="line"/>
      <point x="1011" y="538" type="line" name="sv04"/>
      <point x="764" y="538" type="line" name="dh02"/>
      <point x="764" y="0" type="line" name="ab01"/>
      <point x="469" y="0" type="line"/>
    </contour>
  </outline>
</glyph>
<glyph name="Uring" format="1">
  <advance width="1233"/>
  <unicode hex="016E"/>
  <outline>
    <contour>
      <point x="1126" y="1493" type="line" name="at01"/>
      <point x="1126" y="551" type="line" smooth="yes" name="sh01"/>
      <point x="1126" y="146" name="dv01"/>
      <point x="973" y="-29" name="dh01"/>
      <point x="616" y="-29" type="curve" smooth="yes" name="at02"/>
      <point x="260" y="-29" name="ih02"/>
      <point x="106" y="146" name="ih03"/>
      <point x="106" y="551" type="curve" smooth="yes" name="dv04"/>
      <point x="106" y="1493" type="line" name="dh04"/>
      <point x="365" y="1493" type="line" name="ih04"/>
      <point x="346" y="1532" name="dv03"/>
      <point x="337" y="1573" name="sh02"/>
      <point x="337" y="1616" type="curve" smooth="yes" name="at03"/>
      <point x="337" y="1773" name="dh03"/>
      <point x="465" y="1901"/>
      <point x="622" y="1901" type="curve" smooth="yes" name="dv02"/>
      <point x="780" y="1901" name="ih01"/>
      <point x="906" y="1773" name="ih05"/>
      <point x="906" y="1616" type="curve" smooth="yes" name="sv01"/>
      <point x="906" y="1573" name="iv01"/>
      <point x="897" y="1532" name="dh02"/>
      <point x="878" y="1493" type="curve"/>
    </contour>
    <contour>
      <point x="621" y="1747" type="curve" smooth="yes"/>
      <point x="549" y="1747" name="sh03"/>
      <point x="490" y="1688"/>
      <point x="490" y="1616" type="curve" smooth="yes"/>
      <point x="490" y="1543"/>
      <point x="549" y="1485"/>
      <point x="621" y="1485" type="curve" smooth="yes" name="hr02"/>
      <point x="693" y="1485"/>
      <point x="753" y="1544"/>
      <point x="753" y="1616" type="curve" smooth="yes"/>
      <point x="753" y="1688"/>
      <point x="693" y="1747"/>
    </contour>
    <contour>
      <point x="616" y="238" type="curve" smooth="yes"/>
      <point x="752" y="238"/>
      <point x="831" y="328"/>
      <point x="831" y="477" type="curve" smooth="yes"/>
      <point x="831" y="1423" type="line" name="hr03"/>
      <point x="779" y="1366"/>
      <point x="706" y="1331"/>
      <point x="622" y="1331" type="curve" smooth="yes"/>
      <point x="533" y="1331"/>
      <point x="453" y="1372"/>
      <point x="401" y="1436" type="curve"/>
      <point x="401" y="477" type="line" smooth="yes"/>
      <point x="401" y="328"/>
      <point x="480" y="238"/>
    </contour>
  </outline>
</glyph>
<glyph name="uhungarumlaut" format="1">
  <advance width="1233"/>
  <unicode hex="0171"/>
  <outline>
    <contour>
      <point x="492" y="1646" type="line" name="dv01"/>
      <point x="709" y="1646" type="line"/>
      <point x="461" y="1270" type="line" name="sh03"/>
      <point x="297" y="1270" type="line" name="ih01"/>
    </contour>
    <contour>
      <point x="854" y="1646" type="line" name="sv01"/>
      <point x="1085" y="1646" type="line"/>
      <point x="813" y="1270" type="line" name="sv02"/>
      <point x="639" y="1270" type="line" name="ih02"/>
    </contour>
    <contour>
      <point x="480" y="-29" type="curve" smooth="yes" name="sv04"/>
      <point x="271" y="-29" name="sh01"/>
      <point x="160" y="112" name="at01"/>
      <point x="160" y="391" type="curve" smooth="yes"/>
      <point x="160" y="1120" type="line" name="sh02"/>
      <point x="453" y="1120" type="line" name="sv03"/>
      <point x="453" y="436" type="line" smooth="yes" name="sh05"/>
      <point x="453" y="280" name="at02"/>
      <point x="494" y="211"/>
      <point x="593" y="211" type="curve" smooth="yes" name="sh04"/>
      <point x="710" y="211"/>
      <point x="768" y="308" name="ah02"/>
      <point x="768" y="477" type="curve" smooth="yes"/>
      <point x="768" y="1120" type="line" name="ah01"/>
      <point x="1061" y="1120" type="line" name="sh06"/>
      <point x="1061" y="0" type="line"/>
      <point x="797" y="0" type="line"/>
      <point x="768" y="166" type="line"/>
      <point x="727" y="43"/>
      <point x="629" y="-29"/>
    </contour>
  </outline>
</glyph>
<glyph name="Oslashacute" format="1">
  <advance width="1233"/>
  <unicode hex="01FE"/>
  <outline>
    <contour>
      <point x="668" y="1852" type="line" name="av01"/>
      <point x="952" y="1852" type="line" name="ih01"/>
      <point x="666" y="1588" type="line"/>
      <point x="469" y="1588" type="line" name="ih02"/>
    </contour>
    <contour>
      <point x="-6" y="51" type="line"/>
      <point x="162" y="289" type="line"/>
      <point x="115" y="406" name="sh02"/>
      <point x="92" y="557" name="at01"/>
      <point x="92" y="742" type="curve" smooth="yes"/>
      <point x="92" y="1257"/>
      <point x="271" y="1520"/>
      <point x="616" y="1520" type="curve" smooth="yes"/>
      <point x="754" y="1520" name="sh01"/>
      <point x="864" y="1479" name="dv01"/>
      <point x="946" y="1397" type="curve"/>
      <point x="1059" y="1559" type="line" name="av02"/>
      <point x="1221" y="1444" type="line"/>
      <point x="1063" y="1221" type="line" name="sv01"/>
      <point x="1115" y="1096"/>
      <point x="1141" y="936" name="sh03"/>
      <point x="1141" y="743" type="curve" smooth="yes" name="iv01"/>
      <point x="1141" y="236" name="dv02"/>
      <point x="962" y="-29"/>
      <point x="617" y="-29" type="curve" smooth="yes" name="ah02"/>
      <point x="475" y="-29" name="sh04"/>
      <point x="361" y="15"/>
      <point x="276" y="104" type="curve"/>
      <point x="156" y="-63" type="line" name="ah01"/>
    </contour>
    <contour>
      <point x="772" y="1153" type="line" name="sh05"/>
      <point x="737" y="1221"/>
      <point x="685" y="1255"/>
      <point x="616" y="1255" type="curve" smooth="yes"/>
      <point x="541" y="1255"/>
      <point x="487" y="1215"/>
      <point x="452" y="1135" type="curve" smooth="yes"/>
      <point x="417" y="1054"/>
      <point x="399" y="928"/>
      <point x="399" y="756" type="curve" smooth="yes"/>
      <point x="399" y="629" type="line"/>
    </contour>
    <contour>
      <point x="617" y="236" type="curve" smooth="yes"/>
      <point x="692" y="236"/>
      <point x="747" y="276"/>
      <point x="782" y="357" type="curve" smooth="yes"/>
      <point x="817" y="437"/>
      <point x="834" y="566"/>
      <point x="834" y="741" type="curve" smooth="yes"/>
      <point x="834" y="782"/>
      <point x="833" y="817"/>
      <point x="829" y="888" type="curve"/>
      <point x="451" y="354" type="line"/>
      <point x="486" y="274"/>
      <point x="544" y="236"/>
    </contour>
  </outline>
</glyph>
<glyph name="uni0218" format="1">
  <advance width="1233"/>
  <unicode hex="0218"/>
  <outline>
    <contour>
      <point x="584" y="-29" type="curve" smooth="yes" name="dv01"/>
      <point x="420" y="-29" name="sh02"/>
      <point x="280" y="4" name="ih01"/>
      <point x="135" y="76" type="curve" name="dv02"/>
      <point x="135" y="381" type="line" name="ah02"/>
      <point x="288" y="270"/>
      <point x="439" y="215"/>
      <point x="576" y="215" type="curve" smooth="yes" name="sh01"/>
      <point x="729" y="215" name="at01"/>
      <point x="811" y="283"/>
      <point x="811" y="399" type="curve" smooth="yes" name="ih02"/>
      <point x="811" y="495" name="sv01"/>
      <point x="755" y="561" name="sh03"/>
      <point x="655" y="600" type="curve" smooth="yes"/>
      <point x="510" y="655" type="line" smooth="yes"/>
      <point x="219" y="764"/>
      <point x="129" y="876" name="sh04"/>
      <point x="129" y="1075" type="curve" smooth="yes"/>
      <point x="129" y="1360" name="sv02"/>
      <point x="313" y="1520" name="ih03"/>
      <point x="616" y="1520" type="curve" smooth="yes" name="ab01"/>
      <point x="753" y="1520" name="ih04"/>
      <point x="890" y="1488" name="ah01"/>
      <point x="1026" y="1427" type="curve" name="sh05"/>
      <point x="1026" y="1139" type="line"/>
      <point x="898" y="1228"/>
      <point x="768" y="1276"/>
      <point x="639" y="1276" type="curve" smooth="yes"/>
      <point x="495" y="1276"/>
      <point x="418" y="1216"/>
      <point x="418" y="1112" type="curve" smooth="yes"/>
      <point x="418" y="1069"/>
      <point x="432" y="1035"/>
      <point x="460" y="1008" type="curve" smooth="yes"/>
      <point x="487" y="981"/>
      <point x="534" y="955"/>
      <point x="633" y="918" type="curve" smooth="yes"/>
      <point x="760" y="870" type="line" smooth="yes"/>
      <point x="1007" y="777"/>
      <point x="1110" y="641"/>
      <point x="1110" y="417" type="curve" smooth="yes"/>
      <point x="1110" y="118"/>
      <point x="925" y="-29"/>
    </contour>
    <contour>
      <point x="461" y="-198" type="line"/>
      <point x="743" y="-198" type="line"/>
      <point x="566" y="-504" type="line"/>
      <point x="372" y="-504" type="line"/>
    </contour>
  </outline>
</glyph>
<glyph name="tilde" format="1">
  <advance width="1233"/>
  <unicode hex="02DC"/>
  <outline>
    <contour>
      <point x="768" y="1307" type="curve" smooth="yes" name="av01"/>
      <point x="744" y="1307" name="av02"/>
      <point x="721" y="1311"/>
      <point x="699" y="1319" type="curve" smooth="yes"/>
      <point x="677" y="1327"/>
      <point x="650" y="1342"/>
      <point x="618" y="1364" type="curve" smooth="yes" name="av03"/>
      <point x="551" y="1409" type="line" smooth="yes" name="dv01"/>
      <point x="522" y="1428" name="av04"/>
      <point x="500" y="1438"/>
      <point x="479" y="1438" type="curve" smooth="yes" name="av05"/>
      <point x="454" y="1438" name="av06"/>
      <point x="438" y="1426"/>
      <point x="427" y="1407" type="curve" smooth="yes"/>
      <point x="414" y="1386"/>
      <point x="408" y="1356"/>
      <point x="408" y="1317" type="curve" smooth="yes"/>
      <point x="408" y="1309" type="line" name="av07"/>
      <point x="268" y="1309" type="line" name="dv02"/>
      <point x="268" y="1404" name="av08"/>
      <point x="287" y="1473"/>
      <point x="320" y="1520" type="curve" smooth="yes"/>
      <point x="351" y="1564"/>
      <point x="398" y="1593"/>
      <point x="465" y="1593" type="curve" smooth="yes"/>
      <point x="490" y="1593"/>
      <point x="514" y="1589"/>
      <point x="537" y="1580" type="curve" smooth="yes" name="hr02"/>
      <point x="564" y="1569"/>
      <point x="586" y="1556"/>
      <point x="614" y="1536" type="curve" smooth="yes"/>
      <point x="676" y="1493" type="line" smooth="yes" name="hr03"/>
      <point x="693" y="1481"/>
      <point x="701" y="1477"/>
      <point x="716" y="1470" type="curve" smooth="yes"/>
      <point x="729" y="1465"/>
      <point x="740" y="1462"/>
      <point x="751" y="1462" type="curve" smooth="yes"/>
      <point x="774" y="1462"/>
      <point x="793" y="1473"/>
      <point x="806" y="1494" type="curve" smooth="yes"/>
      <point x="819" y="1515"/>
      <point x="825" y="1544"/>
      <point x="825" y="1583" type="curve" smooth="yes"/>
      <point x="825" y="1591" type="line"/>
      <point x="965" y="1591" type="line"/>
      <point x="965" y="1500"/>
      <point x="948" y="1430"/>
      <point x="914" y="1381" type="curve" smooth="yes"/>
      <point x="882" y="1334"/>
      <point x="833" y="1307"/>
    </contour>
  </outline>
</glyph>
<glyph name="hookabovecomb" format="1">
  <advance width="0"/>
  <unicode hex="0309"/>
  <outline>
    <contour>
      <point x="-685" y="1376" type="line"/>
      <point x="-648" y="1385"/>
      <point x="-600" y="1411" name="sh01"/>
      <point x="-577" y="1438" type="curve" name="sv01"/>
      <point x="-562" y="1453"/>
      <point x="-555" y="1472" name="dh01"/>
      <point x="-555" y="1500" type="curve" smooth="yes"/>
      <point x="-555" y="1591" name="dv02"/>
      <point x="-639" y="1594"/>
      <point x="-677" y="1591" type="curve" name="dh02"/>
      <point x="-727" y="1591" type="line" smooth="yes"/>
      <point x="-758" y="1591"/>
      <point x="-797" y="1581" name="dv01"/>
      <point x="-843" y="1560" type="curve"/>
      <point x="-843" y="1712" type="line"/>
      <point x="-772" y="1729"/>
      <point x="-705" y="1738"/>
      <point x="-641" y="1738" type="curve" smooth="yes"/>
      <point x="-492" y="1738"/>
      <point x="-409" y="1690"/>
      <point x="-393" y="1593" type="curve" name="hr01"/>
      <point x="-392" y="1580"/>
      <point x="-391" y="1566"/>
      <point x="-391" y="1555" type="curve" smooth="yes"/>
      <point x="-391" y="1490"/>
      <point x="-426" y="1423"/>
      <point x="-495" y="1346" type="curve"/>
      <point x="-495" y="1262" type="line" name="hr02"/>
      <point x="-685" y="1262" type="line"/>
    </contour>
  </outline>
</glyph>
<glyph name="uni030A" format="1">
  <advance width="0"/>
  <unicode hex="030A"/>
  <outline>
    <contour>
      <point x="-617" y="1249" type="curve" smooth="yes" name="dv01"/>
      <point x="-773" y="1249" name="sh01"/>
      <point x="-901" y="1377" name="dv04"/>
      <point x="-901" y="1534" type="curve" smooth="yes" name="sh02"/>
      <point x="-901" y="1691"/>
      <point x="-773" y="1819" name="dv02"/>
      <point x="-617" y="1819" type="curve" smooth="yes" name="ah02"/>
      <point x="-457" y="1819" name="dv03"/>
      <point x="-332" y="1691" name="sh03"/>
      <point x="-332" y="1534" type="curve" smooth="yes"/>
      <point x="-332" y="1377" name="ah01"/>
      <point x="-457" y="1249"/>
    </contour>
    <contour>
      <point x="-617" y="1403" type="curve" smooth="yes"/>
      <point x="-545" y="1403"/>
      <point x="-485" y="1462"/>
      <point x="-485" y="1534" type="curve" smooth="yes"/>
      <point x="-485" y="1606"/>
      <point x="-545" y="1665"/>
      <point x="-617" y="1665" type="curve" smooth="yes"/>
      <point x="-689" y="1665"/>
      <point x="-748" y="1606"/>
      <point x="-748" y="1534" type="curve" smooth="yes"/>
      <point x="-748" y="1461"/>
      <point x="-689" y="1403"/>
    </contour>
  </outline>
</glyph>
<glyph name="uni030F" format="1">
  <advance width="0"/>
  <unicode hex="030F"/>
  <outline>
    <contour>
      <point x="-1091" y="1638" type="line" name="sv01"/>
      <point x="-860" y="1638" type="line"/>
      <point x="-645" y="1262" type="line" name="dv01"/>
      <point x="-819" y="1262" type="line"/>
    </contour>
    <contour>
      <point x="-714" y="1638" type="line" name="dv02"/>
      <point x="-497" y="1638" type="line"/>
      <point x="-303" y="1262" type="line" name="sv02"/>
      <point x="-466" y="1262" type="line"/>
    </contour>
  </outline>
</glyph>
<glyph name="uni031A" format="1">
  <advance width="0"/>
  <unicode hex="031A"/>
  <outline>
    <contour>
      <point x="-528" y="1713" type="line" name="dh01"/>
      <point x="-894" y="1713" type="line"/>
      <point x="-894" y="1902" type="line"/>
      <point x="-339" y="1902" type="line" name="dh02"/>
      <point x="-339" y="1347" type="line" name="av01"/>
      <point x="-528" y="1347" type="line"/>
    </contour>
  </outline>
</glyph>
<glyph name="uni031E" format="1">
  <advance width="0"/>
  <unicode hex="031E"/>
  <outline>
    <contour>
      <point x="-735" y="-624" type="line" name="dh01"/>
      <point x="-918" y="-624" type="line" name="sv01"/>
      <point x="-918" y="-435" type="line" name="hr01"/>
      <point x="-363" y="-435" type="line" name="dv02"/>
      <point x="-363" y="-624" type="line" name="sv02"/>
      <point x="-546" y="-624" type="line" name="dh02"/>
      <point x="-546" y="-807" type="line" name="dv01"/>
      <point x="-735" y="-807" type="line"/>
    </contour>
  </outline>
</glyph>
<glyph name="uni0322" format="1">
  <advance width="0"/>
  <unicode hex="0322"/>
  <outline>
    <contour>
      <point x="-675" y="-426" type="line" smooth="yes" name="ab01"/>
      <point x="-955" y="-426" name="dh01"/>
      <point x="-1066" y="-292" name="av01"/>
      <point x="-1066" y="41" type="curve" smooth="yes"/>
      <point x="-1066" y="166" type="line" name="dh02"/>
      <point x="-775" y="166" type="line" name="sv01"/>
      <point x="-775" y="41" type="line" smooth="yes" name="sh01"/>
      <point x="-775" y="-139" name="ab02"/>
      <point x="-724" y="-201"/>
      <point x="-593" y="-201" type="curve" smooth="yes"/>
      <point x="-554" y="-201" type="line" name="hr02"/>
      <point x="-554" y="-426" type="line"/>
    </contour>
  </outline>
</glyph>
<glyph name="uni0326" format="1">
  <advance width="0"/>
  <unicode hex="0326"/>
  <outline>
    <contour>
      <point x="-772" y="-198" type="line" name="sv01"/>
      <point x="-490" y="-198" type="line"/>
      <point x="-667" y="-504" type="line" name="ab01"/>
      <point x="-861" y="-504" type="line"/>
    </contour>
  </outline>
</glyph>
<glyph name="uni033C" format="1">
  <advance width="0"/>
  <unicode hex="033C"/>
  <outline>
    <contour>
      <point x="-1024" y="-489" type="line" name="sv01"/>
      <point x="-1020" y="-350"/>
      <point x="-978" y="-260" name="dv02"/>
      <point x="-897" y="-217" type="curve" smooth="yes"/>
      <point x="-866" y="-200" name="sv02"/>
      <point x="-828" y="-192"/>
      <point x="-785" y="-192" type="curve" smooth="yes" name="sv03"/>
      <point x="-714" y="-192"/>
      <point x="-658" y="-215" name="sv04"/>
      <point x="-617" y="-262" type="curve" name="hr02"/>
      <point x="-576" y="-215" name="sv05"/>
      <point x="-520" y="-192"/>
      <point x="-448" y="-192" type="curve" smooth="yes" name="sv06"/>
      <point x="-329" y="-192"/>
      <point x="-253" y="-256" name="dv01"/>
      <point x="-222" y="-383" type="curve"/>
      <point x="-215" y="-415"/>
      <point x="-210" y="-450"/>
      <point x="-209" y="-489" type="curve" name="hr03"/>
      <point x="-352" y="-489" type="line" name="hr04"/>
      <point x="-365" y="-398"/>
      <point x="-398" y="-350"/>
      <point x="-449" y="-345" type="curve"/>
      <point x="-502" y="-345"/>
      <point x="-533" y="-388"/>
      <point x="-543" y="-473" type="curve" smooth="yes"/>
      <point x="-545" y="-489" type="line"/>
      <point x="-688" y="-489" type="line"/>
      <point x="-701" y="-398"/>
      <point x="-734" y="-350"/>
      <point x="-785" y="-345" type="curve"/>
      <point x="-832" y="-345"/>
      <point x="-862" y="-381"/>
      <point x="-876" y="-454" type="curve"/>
      <point x="-879" y="-466"/>
      <point x="-880" y="-478"/>
      <point x="-881" y="-489" type="curve"/>
    </contour>
  </outline>
</glyph>
<glyph name="dieresistonos" format="1">
  <advance width="1233"/>
  <unicode hex="0385"/>
  <outline>
    <contour>
      <point x="752" y="1891" type="line" name="av01"/>
      <point x="1034" y="1891" type="line" name="sh02"/>
      <point x="666" y="1515" type="line" name="at01"/>
      <point x="469" y="1515" type="line" name="ih01"/>
    </contour>
    <contour>
      <point x="211" y="1320" type="line" smooth="yes" name="sv01"/>
      <point x="191" y="1320" name="sh03"/>
      <point x="181" y="1330"/>
      <point x="181" y="1350" type="curve" smooth="yes" name="at02"/>
      <point x="181" y="1536" type="line" smooth="yes"/>
      <point x="181" y="1556"/>
      <point x="191" y="1566" name="sh04"/>
      <point x="211" y="1566" type="curve" smooth="yes"/>
      <point x="387" y="1566" type="line" smooth="yes" name="sv02"/>
      <point x="407" y="1566" name="ah02"/>
      <point x="417" y="1556"/>
      <point x="417" y="1536" type="curve" smooth="yes" name="at03"/>
      <point x="417" y="1350" type="line" smooth="yes"/>
      <point x="417" y="1330"/>
      <point x="407" y="1320" name="sh01"/>
      <point x="387" y="1320" type="curve" smooth="yes" name="sv03"/>
    </contour>
    <contour>
      <point x="816" y="1320" type="line" smooth="yes" name="ah01"/>
      <point x="796" y="1320" name="sh05"/>
      <point x="786" y="1330"/>
      <point x="786" y="1350" type="curve" smooth="yes"/>
      <point x="786" y="1536" type="line" smooth="yes"/>
      <point x="786" y="1556"/>
      <point x="796" y="1566"/>
      <point x="816" y="1566" type="curve" smooth="yes"/>
      <point x="992" y="1566" type="line" smooth="yes" name="hr01"/>
      <point x="1012" y="1566"/>
      <point x="1022" y="1556"/>
      <point x="1022" y="1536" type="curve" smooth="yes"/>
      <point x="1022" y="1350" type="line" smooth="yes"/>
      <point x="1022" y="1330"/>
      <point x="1012" y="1320"/>
      <point x="992" y="1320" type="curve" smooth="yes"/>
    </contour>
  </outline>
</glyph>
<glyph name="Upsilontonos" format="1">
  <advance width="1233"/>
  <unicode hex="038E"/>
  <outline>
    <contour>
      <point x="-253" y="1608" type="line" name="av01"/>
      <point x="29" y="1608" type="line"/>
      <point x="-339" y="1232" type="line"/>
      <point x="-536" y="1232" type="line" name="iv01"/>
    </contour>
    <contour>
      <point x="469" y="534" type="line" smooth="yes" name="dh01"/>
      <point x="469" y="846"/>
      <point x="374" y="1142"/>
      <point x="270" y="1203" type="curve" smooth="yes"/>
      <point x="224" y="1230"/>
      <point x="115" y="1248" name="ih01"/>
      <point x="34" y="1229" type="curve"/>
      <point x="34" y="1493" type="line"/>
      <point x="78" y="1509"/>
      <point x="177" y="1506" name="iv02"/>
      <point x="261" y="1490" type="curve" name="dh02"/>
      <point x="434" y="1453" name="ab01"/>
      <point x="552" y="1343"/>
      <point x="606" y="1057" type="curve"/>
      <point x="677" y="1308"/>
      <point x="791" y="1453"/>
      <point x="950" y="1490" type="curve" smooth="yes"/>
      <point x="1017" y="1506"/>
      <point x="1076" y="1498"/>
      <point x="1125" y="1467" type="curve" smooth="yes"/>
      <point x="1258" y="1384"/>
      <point x="1231" y="1205"/>
      <point x="1191" y="1130" type="curve" smooth="yes"/>
      <point x="1123" y="1003"/>
      <point x="957" y="1068"/>
      <point x="941" y="1203" type="curve"/>
      <point x="818" y="1022"/>
      <point x="764" y="803"/>
      <point x="764" y="534" type="curve" smooth="yes"/>
      <point x="764" y="0" type="line"/>
      <point x="469" y="0" type="line"/>
    </contour>
  </outline>
</glyph>
<glyph name="iotadieresistonos" format="1">
  <advance width="1233"/>
  <unicode hex="0390"/>
  <outline>
    <contour>
      <point x="752" y="1891" type="line" name="av01"/>
      <point x="1034" y="1891" type="line"/>
      <point x="666" y="1515" type="line" name="at01"/>
      <point x="469" y="1515" type="line" name="ih02"/>
    </contour>
    <contour>
      <point x="211" y="1320" type="line" smooth="yes" name="sv01"/>
      <point x="191" y="1320" name="dh01"/>
      <point x="181" y="1330"/>
      <point x="181" y="1350" type="curve" smooth="yes" name="at02"/>
      <point x="181" y="1536" type="line" smooth="yes"/>
      <point x="181" y="1556"/>
      <point x="191" y="1566" name="dh02"/>
      <point x="211" y="1566" type="curve" smooth="yes" name="hr02"/>
      <point x="387" y="1566" type="line" smooth="yes" name="sv02"/>
      <point x="407" y="1566" name="dh03"/>
      <point x="417" y="1556"/>
      <point x="417" y="1536" type="curve" smooth="yes" name="at03"/>
      <point x="417" y="1350" type="line" smooth="yes"/>
      <point x="417" y="1330"/>
      <point x="407" y="1320" name="dh04"/>
      <point x="387" y="1320" type="curve" smooth="yes" name="sv03"/>
    </contour>
    <contour>
      <point x="816" y="1320" type="line" smooth="yes" name="ab01"/>
      <point x="796" y="1320" name="sh02"/>
      <point x="786" y="1330" name="sv04"/>
      <point x="786" y="1350" type="curve" smooth="yes"/>
      <point x="786" y="1536" type="line" smooth="yes" name="ih01"/>
      <point x="786" y="1556" name="sh01"/>
      <point x="796" y="1566"/>
      <point x="816" y="1566" type="curve" smooth="yes" name="sv05"/>
      <point x="992" y="1566" type="line" smooth="yes" name="sh03"/>
      <point x="1012" y="1566"/>
      <point x="1022" y="1556"/>
      <point x="1022" y="1536" type="curve" smooth="yes" name="sh04"/>
      <point x="1022" y="1350" type="line" smooth="yes"/>
      <point x="1022" y="1330"/>
      <point x="1012" y="1320"/>
      <point x="992" y="1320" type="curve" smooth="yes"/>
    </contour>
    <contour>
      <point x="901" y="-8" type="line" smooth="yes"/>
      <point x="565" y="-8"/>
      <point x="471" y="75"/>
      <point x="471" y="371" type="curve" smooth="yes"/>
      <point x="471" y="895" type="line"/>
      <point x="270" y="895" type="line"/>
      <point x="270" y="1120" type="line"/>
      <point x="763" y="1120" type="line"/>
      <point x="763" y="357" type="line" smooth="yes" name="hr05"/>
      <point x="763" y="258"/>
      <point x="809" y="217"/>
      <point x="921" y="217" type="curve" smooth="yes"/>
      <point x="979" y="217" type="line"/>
      <point x="979" y="-8" type="line"/>
    </contour>
  </outline>
</glyph>
<glyph name="beta" format="1">
  <advance width="1233"/>
  <unicode hex="03B2"/>
  <outline>
    <contour>
      <point x="132" y="1113" type="line" smooth="yes" name="hr00"/>
      <point x="132" y="1418" name="at01"/>
      <point x="279" y="1569" name="ih01"/>
      <point x="559" y="1569" type="curve" smooth="yes" name="sh01"/>
      <point x="1104" y="1569"/>
      <point x="1133" y="984" name="iv01"/>
      <point x="911" y="810" type="curve" name="sh03"/>
      <point x="1068" y="755" name="sh02"/>
      <point x="1135" y="640" name="sh04"/>
      <point x="1135" y="439" type="curve" smooth="yes" name="ah02"/>
      <point x="1135" y="159" name="dv01"/>
      <point x="1006" y="-8" name="dv02"/>
      <point x="737" y="-21" type="curve" name="sv01"/>
      <point x="609" y="-28"/>
      <point x="507" y="4" name="ah01"/>
      <point x="422" y="69" type="curve" name="sh05"/>
      <point x="422" y="-426" type="line"/>
      <point x="131" y="-426" type="line"/>
    </contour>
    <contour>
      <point x="422" y="402" type="line"/>
      <point x="553" y="200"/>
      <point x="834" y="146"/>
      <point x="834" y="438" type="curve" smooth="yes"/>
      <point x="834" y="605"/>
      <point x="742" y="665"/>
      <point x="554" y="657" type="curve"/>
      <point x="554" y="880" type="line"/>
      <point x="802" y="869"/>
      <point x="808" y="1333"/>
      <point x="567" y="1333" type="curve" smooth="yes"/>
      <point x="470" y="1333"/>
      <point x="422" y="1258"/>
      <point x="422" y="1107" type="curve" smooth="yes"/>
    </contour>
  </outline>
</glyph>
<glyph name="delta" format="1">
  <advance width="1233"/>
  <unicode hex="03B4"/>
  <outline>
    <contour>
      <point x="618" y="-29" type="curve" smooth="yes" name="dv01"/>
      <point x="300" y="-29" name="dh01"/>
      <point x="98" y="196"/>
      <point x="98" y="560" type="curve" smooth="yes" name="ih01"/>
      <point x="98" y="739" name="sh01"/>
      <point x="146" y="875" name="at01"/>
      <point x="238" y="988" type="curve" smooth="yes" name="at02"/>
      <point x="275" y="1033" name="at03"/>
      <point x="311" y="1065"/>
      <point x="327" y="1065" type="curve"/>
      <point x="228" y="1108"/>
      <point x="182" y="1181" name="sv02"/>
      <point x="182" y="1277" type="curve" smooth="yes"/>
      <point x="182" y="1460"/>
      <point x="355" y="1569" name="sh02"/>
      <point x="662" y="1569" type="curve" smooth="yes" name="at04"/>
      <point x="722" y="1569" name="dh04"/>
      <point x="784" y="1565"/>
      <point x="840" y="1557" type="curve" smooth="yes" name="dv02"/>
      <point x="850" y="1555" type="line" smooth="yes" name="dh03"/>
      <point x="871" y="1552" name="sv01"/>
      <point x="921" y="1541" name="dh02"/>
      <point x="1002" y="1521" type="curve" name="hr01"/>
      <point x="1002" y="1306" type="line"/>
      <point x="977" y="1314" type="line" smooth="yes" name="sh03"/>
      <point x="846" y="1354"/>
      <point x="778" y="1367"/>
      <point x="684" y="1367" type="curve" smooth="yes"/>
      <point x="598" y="1367"/>
      <point x="553" y="1357"/>
      <point x="510" y="1333" type="curve"/>
      <point x="488" y="1318" type="line" smooth="yes"/>
      <point x="465" y="1301"/>
      <point x="453" y="1279"/>
      <point x="453" y="1246" type="curve" smooth="yes"/>
      <point x="453" y="1159"/>
      <point x="534" y="1152"/>
      <point x="616" y="1147" type="curve"/>
      <point x="941" y="1123"/>
      <point x="1135" y="939"/>
      <point x="1135" y="570" type="curve" smooth="yes"/>
      <point x="1135" y="193"/>
      <point x="933" y="-29"/>
    </contour>
    <contour>
      <point x="616" y="209" type="curve" smooth="yes"/>
      <point x="757" y="209"/>
      <point x="842" y="338"/>
      <point x="842" y="559" type="curve" smooth="yes"/>
      <point x="842" y="778"/>
      <point x="757" y="909"/>
      <point x="616" y="909" type="curve" smooth="yes"/>
      <point x="476" y="909"/>
      <point x="391" y="778"/>
      <point x="391" y="559" type="curve" smooth="yes" name="hr02"/>
      <point x="391" y="338"/>
      <point x="476" y="209"/>
    </contour>
  </outline>
</glyph>
<glyph name="upsilontonos" format="1">
  <advance width="1233"/>
  <unicode hex="03CD"/>
  <outline>
    <contour>
      <point x="752" y="1648" type="line" name="av01"/>
      <point x="1034" y="1648" type="line" name="ih01"/>
      <point x="666" y="1272" type="line"/>
      <point x="469" y="1272" type="line" name="ih02"/>
    </contour>
    <contour>
      <point x="610" y="0" type="curve" smooth="yes" name="ab01"/>
      <point x="288" y="0" name="sh01"/>
      <point x="241" y="167" name="sv01"/>
      <point x="241" y="379" type="curve" smooth="yes"/>
      <point x="241" y="895" type="line" name="dh01"/>
      <point x="76" y="895" type="line" name="dh02"/>
      <point x="76" y="1120" type="line"/>
      <point x="533" y="1120" type="line" name="sv02"/>
      <point x="533" y="365" type="line" smooth="yes" name="dh03"/>
      <point x="533" y="266" name="ih03"/>
      <point x="590" y="225"/>
      <point x="660" y="225" type="curve" smooth="yes" name="dh04"/>
      <point x="785" y="225"/>
      <point x="862" y="357"/>
      <point x="865" y="640" type="curve" name="sh02"/>
      <point x="868" y="823"/>
      <point x="838" y="1011"/>
      <point x="737" y="1120" type="curve"/>
      <point x="1028" y="1120" type="line"/>
      <point x="1100" y="1021"/>
      <point x="1157" y="835"/>
      <point x="1157" y="615" type="curve" smooth="yes"/>
      <point x="1157" y="243"/>
      <point x="998" y="0"/>
    </contour>
  </outline>
</glyph>
<glyph name="uni03F4" format="1">
  <advance width="1233"/>
  <unicode hex="03F4"/>
  <outline>
    <contour>
      <point x="616" y="-29" type="curve" smooth="yes" name="dv01"/>
      <point x="269" y="-29" name="sh01"/>
      <point x="92" y="233" name="at01"/>
      <point x="92" y="745" type="curve" smooth="yes" name="sh02"/>
      <point x="92" y="1256"/>
      <point x="271" y="1520" name="sh03"/>
      <point x="616" y="1520" type="curve" smooth="yes" name="sv01"/>
      <point x="963" y="1520" name="sh05"/>
      <point x="1141" y="1256" name="dv02"/>
      <point x="1141" y="745" type="curve" smooth="yes" name="ah02"/>
      <point x="1141" y="236" name="sh04"/>
      <point x="963" y="-29"/>
    </contour>
    <contour>
      <point x="828" y="911" type="line" name="sh06"/>
      <point x="809" y="1108"/>
      <point x="768" y="1255"/>
      <point x="616" y="1255" type="curve" smooth="yes"/>
      <point x="466" y="1255"/>
      <point x="424" y="1112"/>
      <point x="405" y="911" type="curve"/>
    </contour>
    <contour>
      <point x="616" y="236" type="curve" smooth="yes"/>
      <point x="768" y="236"/>
      <point x="819" y="382"/>
      <point x="832" y="651" type="curve"/>
      <point x="401" y="651" type="line"/>
      <point x="412" y="384"/>
      <point x="465" y="236"/>
    </contour>
  </outline>
</glyph>
<glyph name="uni0408" format="1">
  <advance width="1233"/>
  <unicode hex="0408"/>
  <outline>
    <contour>
      <point x="533" y="-29" type="curve" smooth="yes" name="dv01"/>
      <point x="393" y="-29"/>
      <point x="268" y="-3"/>
      <point x="109" y="74" type="curve" name="dv02"/>
      <point x="109" y="416" type="line" name="dh01"/>
      <point x="225" y="299" name="sv01"/>
      <point x="354" y="236"/>
      <point x="493" y="236" type="curve" smooth="yes" name="at01"/>
      <point x="645" y="236"/>
      <point x="713" y="311" name="dh02"/>
      <point x="713" y="479" type="curve" smooth="yes"/>
      <point x="713" y="1233" type="line"/>
      <point x="352" y="1233" type="line" name="sh01"/>
      <point x="352" y="1493" type="line"/>
      <point x="1008" y="1493" type="line"/>
      <point x="1008" y="479" type="line" smooth="yes"/>
      <point x="1008" y="124"/>
      <point x="866" y="-29"/>
    </contour>
  </outline>
</glyph>
<glyph name="uni0424" format="1">
  <advance width="1233"/>
  <unicode hex="0424"/>
  <outline>
    <contour>
      <point x="489" y="132" type="line" name="sh02"/>
      <point x="213" y="156" name="sh01"/>
      <point x="30" y="441" name="sh03"/>
      <point x="30" y="761" type="curve" smooth="yes" name="at01"/>
      <point x="30" y="1078" name="sh05"/>
      <point x="211" y="1367"/>
      <point x="489" y="1391" type="curve" name="sh07"/>
      <point x="489" y="1493" type="line" name="sh04"/>
      <point x="744" y="1493" type="line" name="ab01"/>
      <point x="744" y="1391" type="line"/>
      <point x="1020" y="1367" name="sh08"/>
      <point x="1203" y="1080" name="sh09"/>
      <point x="1203" y="760" type="curve" smooth="yes"/>
      <point x="1203" y="441" name="sh10"/>
      <point x="1020" y="156" name="sh06"/>
      <point x="744" y="132" type="curve"/>
      <point x="744" y="0" type="line" name="ah01"/>
      <point x="489" y="0" type="line" name="sh11"/>
    </contour>
    <contour>
      <point x="489" y="1136" type="line"/>
      <point x="336" y="1104"/>
      <point x="284" y="950"/>
      <point x="284" y="763" type="curve" smooth="yes"/>
      <point x="284" y="590"/>
      <point x="329" y="419"/>
      <point x="489" y="387" type="curve"/>
    </contour>
    <contour>
      <point x="744" y="387" type="line"/>
      <point x="897" y="419"/>
      <point x="949" y="571"/>
      <point x="949" y="760" type="curve" smooth="yes"/>
      <point x="949" y="936"/>
      <point x="904" y="1104"/>
      <point x="744" y="1136" type="curve"/>
    </contour>
  </outline>
</glyph>
<glyph name="uni042C" format="1">
  <advance width="1233"/>
  <unicode hex="042C"/>
  <outline>
    <contour>
      <point x="164" y="1493" type="line" name="sh01"/>
      <point x="459" y="1493" type="line" name="sh02"/>
      <point x="459" y="913" type="line"/>
      <point x="569" y="913" type="line" smooth="yes" name="dv02"/>
      <point x="978" y="913" name="sh03"/>
      <point x="1149" y="774" name="ab01"/>
      <point x="1149" y="456" type="curve" smooth="yes"/>
      <point x="1149" y="143" name="sv01"/>
      <point x="984" y="0" name="ah02"/>
      <point x="569" y="0" type="curve" smooth="yes" name="dv01"/>
      <point x="164" y="0" type="line" name="sh04"/>
    </contour>
    <contour>
      <point x="580" y="236" type="line" smooth="yes"/>
      <point x="788" y="236" name="ah01"/>
      <point x="850" y="294" name="sh05"/>
      <point x="850" y="455" type="curve" smooth="yes"/>
      <point x="850" y="624"/>
      <point x="782" y="678"/>
      <point x="580" y="678" type="curve" smooth="yes"/>
      <point x="459" y="678" type="line"/>
      <point x="459" y="236" type="line"/>
    </contour>
  </outline>
</glyph>
<glyph name="uni0438" format="1">
  <advance width="1233"/>
  <unicode hex="0438"/>
  <outline>
    <contour>
      <point x="152" y="1120" type="line" name="sh01"/>
      <point x="443" y="1120" type="line" name="sh02"/>
      <point x="443" y="405" type="line" name="iv01"/>
      <point x="800" y="1120" type="line" name="ah01"/>
      <point x="1091" y="1120" type="line" name="sh03"/>
      <point x="1091" y="0" type="line" name="ab01"/>
      <point x="800" y="0" type="line" name="sh04"/>
      <point x="800" y="715" type="line" name="ih01"/>
      <point x="443" y="0" type="line" name="sh05"/>
      <point x="152" y="0" type="line"/>
    </contour>
  </outline>
</glyph>
<glyph name="uni0446" format="1">
  <advance width="1233"/>
  <unicode hex="0446"/>
  <outline>
    <contour>
      <point x="998" y="0" type="line" name="ih01"/>
      <point x="162" y="0" type="line" name="dh01"/>
      <point x="162" y="1120" type="line" name="at01"/>
      <point x="453" y="1120" type="line" name="hr01"/>
      <point x="453" y="219" type="line" name="dh02"/>
      <point x="770" y="219" type="line" name="dh03"/>
      <point x="770" y="1120" type="line" name="at02"/>
      <point x="1061" y="1120" type="line"/>
      <point x="1061" y="219" type="line" name="dh04"/>
      <point x="1217" y="219" type="line" name="sh01"/>
      <point x="1217" y="-286" type="line" name="sv01"/>
      <point x="998" y="-286" type="line"/>
    </contour>
  </outline>
</glyph>
<glyph name="uni0448" format="1">
  <advance width="1233"/>
  <unicode hex="0448"/>
  <outline>
    <contour>
      <point x="78" y="1120" type="line" name="sh01"/>
      <point x="318" y="1120" type="line" name="sh02"/>
      <point x="318" y="219" type="line" name="sv01"/>
      <point x="496" y="219" type="line" name="sh03"/>
      <point x="496" y="1120" type="line" name="at01"/>
      <point x="736" y="1120" type="line"/>
      <point x="736" y="219" type="line" name="sh04"/>
      <point x="914" y="219" type="line" name="sh05"/>
      <point x="914" y="1120" type="line" name="at02"/>
      <point x="1154" y="1120" type="line"/>
      <point x="1154" y="0" type="line" name="sh06"/>
      <point x="78" y="0" type="line"/>
    </contour>
  </outline>
</glyph>
<glyph name="uni0449" format="1">
  <advance width="1233"/>
  <unicode hex="0449"/>
  <outline>
    <contour>
      <point x="1014" y="0" type="line" name="ih01"/>
      <point x="71" y="0" type="line" name="dh01"/>
      <point x="71" y="1120" type="line" name="at01"/>
      <point x="311" y="1120" type="line" name="hr01"/>
      <point x="311" y="219" type="line" name="dh02"/>
      <point x="489" y="219" type="line" name="dh03"/>
      <point x="489" y="1120" type="line" name="at02"/>
      <point x="729" y="1120" type="line"/>
      <point x="729" y="219" type="line" name="dh04"/>
      <point x="907" y="219" type="line" name="dh05"/>
      <point x="907" y="1120" type="line" name="at03"/>
      <point x="1147" y="1120" type="line"/>
      <point x="1147" y="219" type="line" name="dh06"/>
      <point x="1233" y="219" type="line" name="sh01"/>
      <point x="1233" y="-286" type="line" name="sv01"/>
      <point x="1014" y="-286" type="line"/>
    </contour>
  </outline>
</glyph>
<glyph name="uni0459" format="1">
  <advance width="1233"/>
  <unicode hex="0459"/>
  <outline>
    <contour>
      <point x="11" y="240" type="line" name="sv01"/>
      <point x="21" y="240" type="line" smooth="yes"/>
      <point x="160" y="240" name="sh01"/>
      <point x="196" y="272" name="dh01"/>
      <point x="212" y="439" type="curve" smooth="yes" name="at01"/>
      <point x="220" y="516" name="sh02"/>
      <point x="222" y="621"/>
      <point x="222" y="700" type="curve" smooth="yes"/>
      <point x="222" y="1120" type="line" name="dh06"/>
      <point x="820" y="1120" type="line" name="ab01"/>
      <point x="820" y="698" type="line" name="dh03"/>
      <point x="831" y="698" type="line" smooth="yes"/>
      <point x="1043" y="698"/>
      <point x="1233" y="585" name="dh02"/>
      <point x="1233" y="350" type="curve" smooth="yes"/>
      <point x="1233" y="114" name="ab02"/>
      <point x="1043" y="0"/>
      <point x="831" y="0" type="curve" smooth="yes"/>
      <point x="580" y="0" type="line" name="dh05"/>
      <point x="580" y="901" type="line"/>
      <point x="462" y="901" type="line"/>
      <point x="462" y="704" type="line" smooth="yes" name="dh04"/>
      <point x="462" y="509"/>
      <point x="453" y="248" name="sh03"/>
      <point x="354" y="115" type="curve" smooth="yes"/>
      <point x="294" y="35"/>
      <point x="204" y="0"/>
      <point x="55" y="0" type="curve" smooth="yes"/>
      <point x="11" y="0" type="line"/>
    </contour>
    <contour>
      <point x="837" y="219" type="line" smooth="yes"/>
      <point x="904" y="219"/>
      <point x="993" y="257"/>
      <point x="993" y="350" type="curve" smooth="yes"/>
      <point x="993" y="443"/>
      <point x="904" y="479"/>
      <point x="837" y="479" type="curve" smooth="yes"/>
      <point x="820" y="479" type="line"/>
      <point x="820" y="219" type="line"/>
    </contour>
  </outline>
</glyph>
<glyph name="uni045A" format="1">
  <advance width="1233"/>
  <unicode hex="045A"/>
  <outline>
    <contour>
      <point x="41" y="1120" type="line" name="dh01"/>
      <point x="281" y="1120" type="line" name="dh02"/>
      <point x="281" y="739" type="line"/>
      <point x="580" y="739" type="line" name="dh03"/>
      <point x="580" y="1120" type="line" name="at01"/>
      <point x="820" y="1120" type="line"/>
      <point x="820" y="698" type="line" name="dh04"/>
      <point x="831" y="698" type="line" smooth="yes"/>
      <point x="1043" y="698" name="dh06"/>
      <point x="1233" y="585" name="ab01"/>
      <point x="1233" y="350" type="curve" smooth="yes" name="sh01"/>
      <point x="1233" y="114" name="dv01"/>
      <point x="1043" y="0" name="sh02"/>
      <point x="831" y="0" type="curve" smooth="yes" name="ab02"/>
      <point x="580" y="0" type="line"/>
      <point x="580" y="520" type="line" name="sv01"/>
      <point x="281" y="520" type="line" name="dh05"/>
      <point x="281" y="0" type="line"/>
      <point x="41" y="0" type="line" name="sh03"/>
    </contour>
    <contour>
      <point x="837" y="219" type="line" smooth="yes"/>
      <point x="904" y="219"/>
      <point x="993" y="257" name="sh04"/>
      <point x="993" y="350" type="curve" smooth="yes"/>
      <point x="993" y="443"/>
      <point x="904" y="479"/>
      <point x="837" y="479" type="curve" smooth="yes"/>
      <point x="820" y="479" type="line"/>
      <point x="820" y="219" type="line"/>
    </contour>
  </outline>
</glyph>
<glyph name="uni0499" format="1">
  <advance width="1233"/>
  <unicode hex="0499"/>
  <outline>
    <contour>
      <point x="1079" y="287" type="curve" smooth="yes" name="sh03"/>
      <point x="1079" y="109" name="ih01"/>
      <point x="916" y="8" name="dh02"/>
      <point x="651" y="-16" type="curve" name="dv01"/>
      <point x="726" y="-101"/>
      <point x="749" y="-161" name="dh01"/>
      <point x="749" y="-222" type="curve" smooth="yes" name="dv02"/>
      <point x="749" y="-339" name="sh04"/>
      <point x="670" y="-401" name="ab01"/>
      <point x="499" y="-401" type="curve" smooth="yes"/>
      <point x="435" y="-401"/>
      <point x="369" y="-392" name="iv01"/>
      <point x="297" y="-375" type="curve" name="sv01"/>
      <point x="297" y="-219" type="line" name="sh02"/>
      <point x="358" y="-242" name="dv03"/>
      <point x="412" y="-254"/>
      <point x="461" y="-254" type="curve" smooth="yes"/>
      <point x="540" y="-254" name="dv04"/>
      <point x="585" y="-221" name="sh05"/>
      <point x="585" y="-170" type="curve" smooth="yes" name="sv02"/>
      <point x="585" y="-135" name="iv02"/>
      <point x="564" y="-90"/>
      <point x="513" y="-22" type="curve" name="at01"/>
      <point x="510" y="-22" type="line" smooth="yes" name="sh01"/>
      <point x="386" y="-22" name="ih02"/>
      <point x="291" y="-9"/>
      <point x="153" y="44" type="curve"/>
      <point x="153" y="280" type="line"/>
      <point x="285" y="215"/>
      <point x="371" y="201"/>
      <point x="531" y="201" type="curve" smooth="yes" name="hr02"/>
      <point x="679" y="201"/>
      <point x="786" y="212"/>
      <point x="786" y="319" type="curve" smooth="yes"/>
      <point x="786" y="439"/>
      <point x="648" y="462"/>
      <point x="556" y="462" type="curve" smooth="yes"/>
      <point x="393" y="462" type="line"/>
      <point x="393" y="681" type="line"/>
      <point x="530" y="681" type="line" smooth="yes"/>
      <point x="642" y="681"/>
      <point x="759" y="711"/>
      <point x="759" y="805" type="curve" smooth="yes"/>
      <point x="759" y="887"/>
      <point x="674" y="928"/>
      <point x="504" y="928" type="curve" smooth="yes"/>
      <point x="397" y="928"/>
      <point x="292" y="911"/>
      <point x="190" y="876" type="curve" name="hr03"/>
      <point x="190" y="1099" type="line"/>
      <point x="262" y="1120"/>
      <point x="391" y="1147"/>
      <point x="547" y="1147" type="curve" smooth="yes"/>
      <point x="877" y="1147"/>
      <point x="1042" y="1024"/>
      <point x="1042" y="825" type="curve" smooth="yes"/>
      <point x="1042" y="670"/>
      <point x="941" y="600"/>
      <point x="857" y="573" type="curve"/>
      <point x="965" y="543"/>
      <point x="1079" y="438"/>
    </contour>
  </outline>
</glyph>
<glyph name="uni04BA" format="1">
  <advance width="1233"/>
  <unicode hex="04BA"/>
  <outline>
    <contour>
      <point x="121" y="1556" type="line" name="sh01"/>
      <point x="412" y="1556" type="line" name="sh02"/>
      <point x="412" y="890" type="line" name="iv01"/>
      <point x="423" y="923"/>
      <point x="443" y="949"/>
      <point x="471" y="967" type="curve" smooth="yes"/>
      <point x="518" y="998" type="line" smooth="yes" name="dv02"/>
      <point x="553" y="1021"/>
      <point x="620" y="1038"/>
      <point x="721" y="1046" type="curve"/>
      <point x="778" y="1049" type="line" name="sh03"/>
      <point x="857" y="1049" name="ah02"/>
      <point x="939" y="1032"/>
      <point x="1003" y="996" type="curve" smooth="yes"/>
      <point x="1028" y="982" name="sv01"/>
      <point x="1049" y="964" name="dv01"/>
      <point x="1066" y="943" type="curve" smooth="yes"/>
      <point x="1117" y="880"/>
      <point x="1147" y="774" name="sh04"/>
      <point x="1147" y="629" type="curve" smooth="yes" name="ab01"/>
      <point x="1147" y="0" type="line"/>
      <point x="856" y="0" type="line" name="ah01"/>
      <point x="856" y="561" type="line" smooth="yes" name="sh05"/>
      <point x="856" y="642"/>
      <point x="844" y="699"/>
      <point x="821" y="734" type="curve"/>
      <point x="806" y="759"/>
      <point x="766" y="775"/>
      <point x="702" y="783" type="curve" smooth="yes"/>
      <point x="687" y="785"/>
      <point x="673" y="786"/>
      <point x="660" y="786" type="curve" smooth="yes"/>
      <point x="614" y="786"/>
      <point x="567" y="776"/>
      <point x="519" y="757" type="curve" smooth="yes"/>
      <point x="488" y="745"/>
      <point x="472" y="734"/>
      <point x="457" y="715" type="curve" smooth="yes"/>
      <point x="426" y="674"/>
      <point x="412" y="600"/>
      <point x="412" y="520" type="curve" smooth="yes"/>
      <point x="412" y="0" type="line"/>
      <point x="121" y="0" type="line"/>
    </contour>
  </outline>
</glyph>
<glyph name="uni04CC" format="1">
  <advance width="1233"/>
  <unicode hex="04CC"/>
  <outline>
    <contour>
      <point x="473" y="209" type="line" name="dh03"/>
      <point x="762" y="209" type="line" name="dh04"/>
      <point x="762" y="416" type="line" name="dv02"/>
      <point x="655" y="416" type="line" smooth="yes"/>
      <point x="502" y="416"/>
      <point x="373" y="450"/>
      <point x="270" y="517" type="curve" smooth="yes" name="dh01"/>
      <point x="266" y="520" type="line" smooth="yes" name="at01"/>
      <point x="175" y="581"/>
      <point x="130" y="678" name="dh02"/>
      <point x="130" y="813" type="curve" smooth="yes"/>
      <point x="130" y="1120" type="line"/>
      <point x="429" y="1120" type="line"/>
      <point x="429" y="783" type="line" smooth="yes" name="sh01"/>
      <point x="429" y="742" name="sh03"/>
      <point x="441" y="711"/>
      <point x="464" y="689" type="curve" smooth="yes" name="sh04"/>
      <point x="469" y="684" name="sh02"/>
      <point x="476" y="679" name="dv01"/>
      <point x="485" y="672" type="curve" smooth="yes" name="hr02"/>
      <point x="522" y="646"/>
      <point x="578" y="633"/>
      <point x="655" y="633" type="curve" smooth="yes"/>
      <point x="762" y="633" type="line"/>
      <point x="762" y="1121" type="line"/>
      <point x="1052" y="1121" type="line"/>
      <point x="1052" y="0" type="line"/>
      <point x="762" y="0" type="line"/>
      <point x="762" y="-286" type="line"/>
      <point x="473" y="-286" type="line"/>
    </contour>
  </outline>
</glyph>
<glyph name="uni04DA" format="1">
  <advance width="1233"/>
  <unicode hex="04DA"/>
  <outline>
    <contour>
      <point x="341" y="1604" type="line" smooth="yes" name="dv03"/>
      <point x="321" y="1604" name="sh01"/>
      <point x="311" y="1614"/>
      <point x="311" y="1634" type="curve" smooth="yes" name="dv04"/>
      <point x="311" y="1820" type="line" smooth="yes"/>
      <point x="311" y="1840"/>
      <point x="321" y="1850" name="sh02"/>
      <point x="341" y="1850" type="curve" smooth="yes"/>
      <point x="517" y="1850" type="line" smooth="yes" name="sv01"/>
      <point x="537" y="1850" name="dh03"/>
      <point x="547" y="1840"/>
      <point x="547" y="1820" type="curve" smooth="yes" name="sv02"/>
      <point x="547" y="1634" type="line" smooth="yes"/>
      <point x="547" y="1614"/>
      <point x="537" y="1604" name="dh04"/>
      <point x="517" y="1604" type="curve" smooth="yes" name="hr01"/>
    </contour>
    <contour>
      <point x="736" y="1604" type="line" smooth="yes" name="dv01"/>
      <point x="716" y="1604" name="dh01"/>
      <point x="706" y="1614"/>
      <point x="706" y="1634" type="curve" smooth="yes" name="ih02"/>
      <point x="706" y="1820" type="line" smooth="yes"/>
      <point x="706" y="1840" name="sv03"/>
      <point x="716" y="1850" name="ih03"/>
      <point x="736" y="1850" type="curve" smooth="yes" name="ih01"/>
      <point x="912" y="1850" type="line" smooth="yes" name="at01"/>
      <point x="932" y="1850" name="sh03"/>
      <point x="942" y="1840"/>
      <point x="942" y="1820" type="curve" smooth="yes" name="dv02"/>
      <point x="942" y="1634" type="line" smooth="yes" name="sh04"/>
      <point x="942" y="1614" name="dh02"/>
      <point x="932" y="1604"/>
      <point x="912" y="1604" type="curve" smooth="yes"/>
    </contour>
    <contour>
      <point x="617" y="-29" type="curve" smooth="yes" name="sh05"/>
      <point x="270" y="-29"/>
      <point x="92" y="234"/>
      <point x="92" y="745" type="curve" smooth="yes"/>
      <point x="92" y="840" type="line"/>
      <point x="832" y="840" type="line"/>
      <point x="832" y="845" type="line" smooth="yes"/>
      <point x="832" y="1105"/>
      <point x="762" y="1255"/>
      <point x="595" y="1255" type="curve" smooth="yes"/>
      <point x="506" y="1255"/>
      <point x="407" y="1213"/>
      <point x="307" y="1120" type="curve"/>
      <point x="307" y="1448" type="line"/>
      <point x="400" y="1496"/>
      <point x="504" y="1520"/>
      <point x="611" y="1520" type="curve" smooth="yes" name="hr03"/>
      <point x="964" y="1520"/>
      <point x="1141" y="1256"/>
      <point x="1141" y="747" type="curve" smooth="yes"/>
      <point x="1141" y="236"/>
      <point x="962" y="-29"/>
    </contour>
    <contour>
      <point x="618" y="236" type="curve" smooth="yes"/>
      <point x="751" y="236"/>
      <point x="807" y="355"/>
      <point x="828" y="580" type="curve"/>
      <point x="405" y="580" type="line"/>
      <point x="420" y="345"/>
      <point x="489" y="236"/>
    </contour>
  </outline>
</glyph>
<glyph name="uni04F5" format="1">
  <advance width="1233"/>
  <unicode hex="04F5"/>
  <outline>
    <contour>
      <point x="316" y="1321" type="line" smooth="yes" name="sv01"/>
      <point x="296" y="1321" name="ih01"/>
      <point x="286" y="1331"/>
      <point x="286" y="1351" type="curve" smooth="yes" name="at03"/>
      <point x="286" y="1537" type="line" smooth="yes"/>
      <point x="286" y="1557"/>
      <point x="296" y="1567" name="sh01"/>
      <point x="316" y="1567" type="curve" smooth="yes"/>
      <point x="492" y="1567" type="line" smooth="yes" name="sv02"/>
      <point x="512" y="1567" name="dh03"/>
      <point x="522" y="1557"/>
      <point x="522" y="1537" type="curve" smooth="yes" name="at04"/>
      <point x="522" y="1351" type="line" smooth="yes"/>
      <point x="522" y="1331"/>
      <point x="512" y="1321" name="dh04"/>
      <point x="492" y="1321" type="curve" smooth="yes" name="sv03"/>
    </contour>
    <contour>
      <point x="711" y="1321" type="line" smooth="yes" name="dv01"/>
      <point x="691" y="1321"/>
      <point x="681" y="1331" name="dh01"/>
      <point x="681" y="1351" type="curve" smooth="yes" name="at01"/>
      <point x="681" y="1537" type="line" smooth="yes"/>
      <point x="681" y="1557" name="dh02"/>
      <point x="691" y="1567"/>
      <point x="711" y="1567" type="curve" smooth="yes" name="sh02"/>
      <point x="887" y="1567" type="line" smooth="yes" name="at02"/>
      <point x="907" y="1567"/>
      <point x="917" y="1557" name="sh03"/>
      <point x="917" y="1537" type="curve" smooth="yes" name="ih02"/>
      <point x="917" y="1351" type="line" smooth="yes"/>
      <point x="917" y="1331" name="sh04"/>
      <point x="907" y="1321"/>
      <point x="887" y="1321" type="curve" smooth="yes"/>
    </contour>
    <contour>
      <point x="755" y="416" type="line"/>
      <point x="565" y="416" type="line" smooth="yes"/>
      <point x="305" y="416"/>
      <point x="123" y="496"/>
      <point x="123" y="813" type="curve" smooth="yes"/>
      <point x="123" y="1120" type="line"/>
      <point x="422" y="1120" type="line"/>
      <point x="422" y="783" type="line" smooth="yes"/>
      <point x="422" y="662"/>
      <point x="468" y="633"/>
      <point x="648" y="633" type="curve" smooth="yes"/>
      <point x="755" y="633" type="line"/>
      <point x="755" y="1121" type="line"/>
      <point x="1045" y="1121" type="line"/>
      <point x="1045" y="0" type="line"/>
      <point x="755" y="0" type="line"/>
    </contour>
  </outline>
</glyph>
<glyph name="uni0532" format="1">
  <advance width="1233"/>
  <unicode hex="0532"/>
  <outline>
    <contour>
      <point x="98" y="942" type="line" smooth="yes" name="sh01"/>
      <point x="98" y="1147"/>
      <point x="135" y="1290" name="dv02"/>
      <point x="219" y="1385" type="curve" smooth="yes"/>
      <point x="303" y="1480"/>
      <point x="428" y="1522"/>
      <point x="608" y="1522" type="curve" smooth="yes" name="ah02"/>
      <point x="788" y="1522"/>
      <point x="913" y="1480" name="dv01"/>
      <point x="997" y="1385" type="curve" smooth="yes" name="sh02"/>
      <point x="1081" y="1290"/>
      <point x="1118" y="1147" name="sh03"/>
      <point x="1118" y="942" type="curve" smooth="yes" name="dv03"/>
      <point x="1118" y="875" type="line" name="sh04"/>
      <point x="823" y="875" type="line" name="ab01"/>
      <point x="823" y="1016" type="line" smooth="yes"/>
      <point x="823" y="1165" name="ah01"/>
      <point x="745" y="1255" name="sh05"/>
      <point x="608" y="1255" type="curve" smooth="yes"/>
      <point x="471" y="1255"/>
      <point x="393" y="1165"/>
      <point x="393" y="1016" type="curve" smooth="yes"/>
      <point x="393" y="674" type="line"/>
      <point x="1135" y="674" type="line"/>
      <point x="1135" y="414" type="line"/>
      <point x="393" y="414" type="line"/>
      <point x="393" y="0" type="line"/>
      <point x="98" y="0" type="line"/>
    </contour>
  </outline>
</glyph>
<glyph name="uni0536" format="1">
  <advance width="1233"/>
  <unicode hex="0536"/>
  <outline>
    <contour>
      <point x="107" y="331" type="line" name="sv01"/>
      <point x="402" y="331" type="line"/>
      <point x="402" y="260" type="line" name="sv02"/>
      <point x="510" y="261"/>
      <point x="621" y="323" name="ah02"/>
      <point x="709" y="439" type="curve" smooth="yes" name="dv01"/>
      <point x="798" y="556"/>
      <point x="853" y="711"/>
      <point x="853" y="906" type="curve" smooth="yes" name="sh02"/>
      <point x="853" y="1137" name="sh01"/>
      <point x="777" y="1255"/>
      <point x="614" y="1255" type="curve" smooth="yes" name="dv02"/>
      <point x="542" y="1255"/>
      <point x="480" y="1231" name="sh03"/>
      <point x="437" y="1179" type="curve" smooth="yes"/>
      <point x="394" y="1127" name="ih01"/>
      <point x="372" y="1048" name="sv03"/>
      <point x="372" y="935" type="curve" smooth="yes" name="ab01"/>
      <point x="372" y="875" type="line"/>
      <point x="77" y="875" type="line" name="ah01"/>
      <point x="77" y="897" type="line" smooth="yes" name="sh04"/>
      <point x="77" y="1304"/>
      <point x="254" y="1522"/>
      <point x="610" y="1522" type="curve" smooth="yes"/>
      <point x="799" y="1522"/>
      <point x="933" y="1462"/>
      <point x="1021" y="1354" type="curve" smooth="yes"/>
      <point x="1109" y="1245"/>
      <point x="1155" y="1082"/>
      <point x="1155" y="910" type="curve" smooth="yes"/>
      <point x="1155" y="785"/>
      <point x="1131" y="670"/>
      <point x="1079" y="557" type="curve" smooth="yes"/>
      <point x="1024" y="440"/>
      <point x="944" y="332"/>
      <point x="815" y="260" type="curve"/>
      <point x="1094" y="260" type="line"/>
      <point x="1094" y="0" type="line" name="hr01"/>
      <point x="107" y="0" type="line"/>
    </contour>
  </outline>
</glyph>
<glyph name="uni0541" format="1">
  <advance width="1233"/>
  <unicode hex="0541"/>
  <outline>
    <contour>
      <point x="933" y="-64" type="line" name="av01"/>
      <point x="890" y="0"/>
      <point x="849" y="58" name="ab01"/>
      <point x="806" y="114" type="curve"/>
      <point x="697" y="14" name="sh02"/>
      <point x="573" y="-27"/>
      <point x="441" y="-27" type="curve" smooth="yes" name="dv04"/>
      <point x="332" y="-27"/>
      <point x="246" y="1" name="ah02"/>
      <point x="183" y="56" type="curve" smooth="yes"/>
      <point x="120" y="112" name="dv01"/>
      <point x="85" y="190"/>
      <point x="85" y="297" type="curve" smooth="yes"/>
      <point x="85" y="404" name="sh03"/>
      <point x="120" y="488" name="sh01"/>
      <point x="183" y="545" type="curve" smooth="yes"/>
      <point x="246" y="602"/>
      <point x="333" y="633" name="dv02"/>
      <point x="437" y="633" type="curve" smooth="yes"/>
      <point x="557" y="633" name="sh04"/>
      <point x="668" y="593"/>
      <point x="773" y="521" type="curve" name="sh05"/>
      <point x="818" y="629" name="sv01"/>
      <point x="847" y="741"/>
      <point x="847" y="886" type="curve" smooth="yes" name="dv03"/>
      <point x="847" y="1017" name="sh06"/>
      <point x="824" y="1114"/>
      <point x="783" y="1174" type="curve" smooth="yes" name="ah01"/>
      <point x="742" y="1234" name="sh07"/>
      <point x="684" y="1255"/>
      <point x="608" y="1255" type="curve" smooth="yes"/>
      <point x="544" y="1255"/>
      <point x="482" y="1240"/>
      <point x="435" y="1183" type="curve" smooth="yes"/>
      <point x="391" y="1128"/>
      <point x="366" y="1041"/>
      <point x="366" y="901" type="curve" smooth="yes"/>
      <point x="366" y="875" type="line"/>
      <point x="71" y="875" type="line"/>
      <point x="71" y="901" type="line" smooth="yes"/>
      <point x="71" y="1134"/>
      <point x="131" y="1289"/>
      <point x="230" y="1386" type="curve" smooth="yes"/>
      <point x="329" y="1483"/>
      <point x="464" y="1522"/>
      <point x="609" y="1522" type="curve" smooth="yes"/>
      <point x="761" y="1522"/>
      <point x="894" y="1480"/>
      <point x="991" y="1380" type="curve" smooth="yes"/>
      <point x="1091" y="1276"/>
      <point x="1149" y="1112"/>
      <point x="1149" y="896" type="curve" smooth="yes"/>
      <point x="1149" y="683"/>
      <point x="1093" y="501"/>
      <point x="989" y="328" type="curve"/>
      <point x="1054" y="252"/>
      <point x="1111" y="171"/>
      <point x="1162" y="86" type="curve"/>
    </contour>
    <contour>
      <point x="449" y="226" type="curve" smooth="yes"/>
      <point x="498" y="226"/>
      <point x="560" y="242"/>
      <point x="623" y="305" type="curve"/>
      <point x="560" y="352"/>
      <point x="495" y="380"/>
      <point x="443" y="380" type="curve" smooth="yes"/>
      <point x="390" y="380"/>
      <point x="364" y="352"/>
      <point x="364" y="301" type="curve" smooth="yes"/>
      <point x="364" y="251"/>
      <point x="392" y="226"/>
    </contour>
  </outline>
</glyph>
<glyph name="uni0548" format="1">
  <advance width="1233"/>
  <unicode hex="0548"/>
  <outline>
    <contour>
      <point x="106" y="942" type="line" smooth="yes" name="sh01"/>
      <point x="106" y="1147"/>
      <point x="143" y="1290" name="dv02"/>
      <point x="227" y="1385" type="curve" smooth="yes"/>
      <point x="311" y="1480"/>
      <point x="436" y="1522" name="sh02"/>
      <point x="616" y="1522" type="curve" smooth="yes" name="ah02"/>
      <point x="796" y="1522"/>
      <point x="921" y="1480" name="dv01"/>
      <point x="1005" y="1385" type="curve" smooth="yes" name="sh03"/>
      <point x="1089" y="1290" name="ab01"/>
      <point x="1126" y="1147"/>
      <point x="1126" y="942" type="curve" smooth="yes" name="ah01"/>
      <point x="1126" y="0" type="line" name="sh04"/>
      <point x="831" y="0" type="line"/>
      <point x="831" y="1016" type="line" smooth="yes"/>
      <point x="831" y="1165"/>
      <point x="753" y="1255"/>
      <point x="616" y="1255" type="curve" smooth="yes"/>
      <point x="479" y="1255"/>
      <point x="401" y="1165"/>
      <point x="401" y="1016" type="curve" smooth="yes"/>
      <point x="401" y="0" type="line"/>
      <point x="106" y="0" type="line"/>
    </contour>
  </outline>
</glyph>
<glyph name="uni054C" format="1">
  <advance width="1233"/>
  <unicode hex="054C"/>
  <outline>
    <contour>
      <point x="33" y="942" type="line" smooth="yes" name="dh01"/>
      <point x="33" y="1147"/>
      <point x="70" y="1290" name="dv02"/>
      <point x="154" y="1385" type="curve" smooth="yes"/>
      <point x="238" y="1480" name="sh01"/>
      <point x="363" y="1522"/>
      <point x="543" y="1522" type="curve" smooth="yes" name="dv03"/>
      <point x="723" y="1522" name="sh02"/>
      <point x="848" y="1480"/>
      <point x="932" y="1385" type="curve" smooth="yes" name="dh04"/>
      <point x="1016" y="1290" name="dh03"/>
      <point x="1053" y="1147"/>
      <point x="1053" y="942" type="curve" smooth="yes" name="dv01"/>
      <point x="1053" y="674" type="line" name="dh02"/>
      <point x="1199" y="674" type="line" name="ab01"/>
      <point x="1199" y="414" type="line"/>
      <point x="1053" y="414" type="line" name="hr01"/>
      <point x="1053" y="0" type="line" name="sh03"/>
      <point x="758" y="0" type="line" name="hr02"/>
      <point x="758" y="1016" type="line" smooth="yes"/>
      <point x="758" y="1165"/>
      <point x="680" y="1255"/>
      <point x="543" y="1255" type="curve" smooth="yes"/>
      <point x="406" y="1255"/>
      <point x="328" y="1165"/>
      <point x="328" y="1016" type="curve" smooth="yes"/>
      <point x="328" y="0" type="line"/>
      <point x="33" y="0" type="line"/>
    </contour>
  </outline>
</glyph>
<glyph name="uni0565" format="1">
  <advance width="1233"/>
  <unicode hex="0565"/>
  <outline>
    <contour>
      <point x="462" y="-29" type="curve" smooth="yes" name="sv02"/>
      <point x="251" y="-29" name="sh01"/>
      <point x="143" y="110" name="at01"/>
      <point x="143" y="391" type="curve" smooth="yes" name="sh03"/>
      <point x="143" y="1556" type="line" name="at02"/>
      <point x="436" y="1556" type="line"/>
      <point x="436" y="1120" type="line" name="sv03"/>
      <point x="1090" y="1120" type="line"/>
      <point x="1090" y="895" type="line" name="sh02"/>
      <point x="436" y="895" type="line" name="sv01"/>
      <point x="436" y="436" type="line" smooth="yes"/>
      <point x="436" y="279" name="ah02"/>
      <point x="477" y="211" name="sh04"/>
      <point x="576" y="211" type="curve" smooth="yes" name="ab01"/>
      <point x="693" y="211" name="sh05"/>
      <point x="751" y="308" name="ih01"/>
      <point x="751" y="477" type="curve" smooth="yes"/>
      <point x="751" y="720" type="line" name="ah01"/>
      <point x="1044" y="720" type="line" name="sh06"/>
      <point x="1044" y="0" type="line"/>
      <point x="751" y="0" type="line"/>
      <point x="751" y="166" type="line"/>
      <point x="710" y="42"/>
      <point x="613" y="-29"/>
    </contour>
  </outline>
</glyph>
<glyph name="uni057E" format="1">
  <advance width="1233"/>
  <unicode hex="057E"/>
  <outline>
    <contour>
      <point x="705" y="166" type="line" name="iv01"/>
      <point x="664" y="42" name="dv01"/>
      <point x="567" y="-29" name="dh01"/>
      <point x="416" y="-29" type="curve" smooth="yes" name="at02"/>
      <point x="205" y="-29"/>
      <point x="97" y="110" name="dh02"/>
      <point x="97" y="391" type="curve" smooth="yes" name="dv02"/>
      <point x="97" y="1120" type="line" name="sh01"/>
      <point x="390" y="1120" type="line" name="at01"/>
      <point x="390" y="436" type="line" smooth="yes"/>
      <point x="390" y="279" name="dh04"/>
      <point x="431" y="211" name="sh02"/>
      <point x="530" y="211" type="curve" smooth="yes" name="ab01"/>
      <point x="647" y="211" name="dh03"/>
      <point x="705" y="308"/>
      <point x="705" y="477" type="curve" smooth="yes" name="sh03"/>
      <point x="705" y="1556" type="line"/>
      <point x="998" y="1556" type="line"/>
      <point x="998" y="-201" type="line"/>
      <point x="1136" y="-201" type="line"/>
      <point x="1136" y="-426" type="line"/>
      <point x="705" y="-426" type="line"/>
    </contour>
  </outline>
</glyph>
<glyph name="uni0587" format="1">
  <advance width="1233"/>
  <unicode hex="0587"/>
  <outline>
    <contour>
      <point x="365" y="-29" type="curve" smooth="yes" name="sv02"/>
      <point x="154" y="-29" name="sh01"/>
      <point x="46" y="110" name="at01"/>
      <point x="46" y="391" type="curve" smooth="yes"/>
      <point x="46" y="1556" type="line" name="sh02"/>
      <point x="339" y="1556" type="line" name="sv01"/>
      <point x="339" y="436" type="line" smooth="yes" name="sh03"/>
      <point x="339" y="279" name="at02"/>
      <point x="380" y="211"/>
      <point x="479" y="211" type="curve" smooth="yes" name="sh04"/>
      <point x="596" y="211" name="sv03"/>
      <point x="654" y="308" name="ab01"/>
      <point x="654" y="477" type="curve" smooth="yes"/>
      <point x="654" y="1120" type="line" name="ah02"/>
      <point x="947" y="1120" type="line"/>
      <point x="947" y="225" type="line" name="ah01"/>
      <point x="1187" y="225" type="line" name="sh05"/>
      <point x="1187" y="0" type="line"/>
      <point x="654" y="0" type="line"/>
      <point x="654" y="166" type="line"/>
      <point x="613" y="42"/>
      <point x="516" y="-29"/>
    </contour>
  </outline>
</glyph>
<glyph name="uni10D0" format="1">
  <advance width="1233"/>
  <unicode hex="10D0"/>
  <outline>
    <contour>
      <point x="611" y="0" type="curve" smooth="yes" name="ab01"/>
      <point x="272" y="0" name="dh01"/>
      <point x="98" y="166"/>
      <point x="98" y="449" type="curve" smooth="yes" name="ih02"/>
      <point x="98" y="536" name="dh02"/>
      <point x="115" y="583" name="sv01"/>
      <point x="183" y="659" type="curve" name="dh03"/>
      <point x="430" y="625" type="line"/>
      <point x="403" y="582"/>
      <point x="392" y="543" name="ih01"/>
      <point x="392" y="479" type="curve" smooth="yes" name="sh01"/>
      <point x="392" y="308"/>
      <point x="476" y="214"/>
      <point x="620" y="214" type="curve" smooth="yes" name="dh04"/>
      <point x="761" y="214"/>
      <point x="842" y="305"/>
      <point x="842" y="473" type="curve" smooth="yes" name="sh02"/>
      <point x="842" y="609"/>
      <point x="787" y="684"/>
      <point x="678" y="727" type="curve"/>
      <point x="679" y="727" type="line"/>
      <point x="458" y="802"/>
      <point x="366" y="947"/>
      <point x="365" y="1162" type="curve"/>
      <point x="627" y="1162" type="line" name="hr01"/>
      <point x="627" y="1046"/>
      <point x="678" y="979"/>
      <point x="736" y="958" type="curve" smooth="yes"/>
      <point x="735" y="959" type="line" smooth="yes"/>
      <point x="1018" y="855"/>
      <point x="1137" y="724"/>
      <point x="1137" y="476" type="curve" smooth="yes"/>
      <point x="1137" y="179"/>
      <point x="964" y="0"/>
    </contour>
  </outline>
</glyph>
<glyph name="uni10D3" format="1">
  <advance width="1233"/>
  <unicode hex="10D3"/>
  <outline>
    <contour>
      <point x="697" y="-403" type="line" name="sh01"/>
      <point x="697" y="-372"/>
      <point x="672" y="-342"/>
      <point x="635" y="-315" type="curve" smooth="yes"/>
      <point x="595" y="-287" name="sh02"/>
      <point x="542" y="-267"/>
      <point x="498" y="-256" type="curve" smooth="yes"/>
      <point x="449" y="-245" name="ih01"/>
      <point x="397" y="-244"/>
      <point x="358" y="-257" type="curve" smooth="yes" name="dh01"/>
      <point x="318" y="-270" name="dv02"/>
      <point x="291" y="-298"/>
      <point x="287" y="-345" type="curve" name="sv01"/>
      <point x="123" y="-229" type="line"/>
      <point x="132" y="-208"/>
      <point x="149" y="-174" name="dh06"/>
      <point x="170" y="-145" type="curve" smooth="yes"/>
      <point x="191" y="-116" name="ab01"/>
      <point x="218" y="-90"/>
      <point x="247" y="-83" type="curve"/>
      <point x="159" y="6" name="dh03"/>
      <point x="108" y="103"/>
      <point x="73" y="212" type="curve" smooth="yes"/>
      <point x="38" y="324" name="dv01"/>
      <point x="27" y="447"/>
      <point x="27" y="554" type="curve" smooth="yes" name="dh02"/>
      <point x="27" y="893"/>
      <point x="151" y="1056"/>
      <point x="394" y="1056" type="curve" smooth="yes"/>
      <point x="480" y="1056"/>
      <point x="521" y="1036"/>
      <point x="578" y="987" type="curve"/>
      <point x="629" y="1034" name="sv02"/>
      <point x="702" y="1056"/>
      <point x="809" y="1056" type="curve" smooth="yes" name="dh05"/>
      <point x="938" y="1056"/>
      <point x="1037" y="1023"/>
      <point x="1105" y="951" type="curve" smooth="yes" name="sv03"/>
      <point x="1173" y="878"/>
      <point x="1206" y="765"/>
      <point x="1206" y="604" type="curve" smooth="yes" name="dh04"/>
      <point x="1206" y="475" type="line" smooth="yes"/>
      <point x="1206" y="306"/>
      <point x="1175" y="184"/>
      <point x="1110" y="108" type="curve" smooth="yes" name="sh03"/>
      <point x="1045" y="32"/>
      <point x="944" y="-1"/>
      <point x="831" y="-1" type="curve" smooth="yes"/>
      <point x="730" y="-1"/>
      <point x="668" y="26"/>
      <point x="616" y="69" type="curve" smooth="yes"/>
      <point x="564" y="112"/>
      <point x="527" y="165"/>
      <point x="502" y="229" type="curve" smooth="yes"/>
      <point x="478" y="289"/>
      <point x="467" y="351"/>
      <point x="467" y="404" type="curve" smooth="yes"/>
      <point x="468" y="814" type="line"/>
      <point x="467" y="830"/>
      <point x="457" y="843"/>
      <point x="434" y="843" type="curve" smooth="yes"/>
      <point x="367" y="843" type="line" smooth="yes"/>
      <point x="347" y="843"/>
      <point x="327" y="827"/>
      <point x="315" y="810" type="curve" smooth="yes"/>
      <point x="300" y="789"/>
      <point x="291" y="761"/>
      <point x="291" y="730" type="curve" smooth="yes"/>
      <point x="291" y="356" type="line" smooth="yes"/>
      <point x="291" y="219"/>
      <point x="335" y="126"/>
      <point x="402" y="55" type="curve" smooth="yes"/>
      <point x="470" y="-17"/>
      <point x="551" y="-57"/>
      <point x="644" y="-100" type="curve"/>
      <point x="722" y="-138"/>
      <point x="739" y="-141"/>
      <point x="774" y="-157" type="curve" smooth="yes"/>
      <point x="851" y="-192"/>
      <point x="927" y="-235"/>
      <point x="967" y="-294" type="curve" smooth="yes"/>
      <point x="987" y="-324"/>
      <point x="997" y="-360"/>
      <point x="997" y="-403" type="curve"/>
    </contour>
    <contour>
      <point x="805" y="213" type="curve" smooth="yes"/>
      <point x="848" y="213"/>
      <point x="883" y="237"/>
      <point x="906" y="278" type="curve" smooth="yes"/>
      <point x="929" y="318"/>
      <point x="941" y="376"/>
      <point x="941" y="444" type="curve" smooth="yes"/>
      <point x="941" y="621" type="line" smooth="yes"/>
      <point x="941" y="698"/>
      <point x="918" y="755"/>
      <point x="895" y="788" type="curve" smooth="yes"/>
      <point x="870" y="825"/>
      <point x="841" y="843"/>
      <point x="826" y="843" type="curve" smooth="yes"/>
      <point x="729" y="843" type="line" smooth="yes"/>
      <point x="709" y="843"/>
      <point x="696" y="830"/>
      <point x="696" y="807" type="curve" smooth="yes"/>
      <point x="696" y="510" type="line" smooth="yes"/>
      <point x="696" y="434"/>
      <point x="698" y="361"/>
      <point x="713" y="305" type="curve" smooth="yes"/>
      <point x="728" y="249"/>
      <point x="754" y="213"/>
    </contour>
  </outline>
</glyph>
<glyph name="uni10DC" format="1">
  <advance width="1233"/>
  <unicode hex="10DC"/>
  <outline>
    <contour>
      <point x="611" y="0" type="curve" smooth="yes" name="ab01"/>
      <point x="272" y="0" name="sh01"/>
      <point x="98" y="166"/>
      <point x="98" y="501" type="curve" smooth="yes"/>
      <point x="98" y="1158" type="line" name="dv02"/>
      <point x="97" y="1403" name="dv01"/>
      <point x="229" y="1525"/>
      <point x="492" y="1525" type="curve" smooth="yes" name="sh03"/>
      <point x="1015" y="1525" type="line" name="ih01"/>
      <point x="1015" y="1303" type="line" name="dv04"/>
      <point x="473" y="1303" type="line" smooth="yes" name="sh04"/>
      <point x="420" y="1303"/>
      <point x="393" y="1274" name="sv01"/>
      <point x="393" y="1186" type="curve" smooth="yes" name="ah02"/>
      <point x="393" y="961" type="line" name="dv03"/>
      <point x="473" y="1044" name="sh02"/>
      <point x="523" y="1067"/>
      <point x="637" y="1067" type="curve" smooth="yes" name="ah01"/>
      <point x="953" y="1067" name="sh05"/>
      <point x="1136" y="889"/>
      <point x="1136" y="530" type="curve" smooth="yes"/>
      <point x="1136" y="179"/>
      <point x="963" y="0"/>
    </contour>
    <contour>
      <point x="618" y="213" type="curve" smooth="yes"/>
      <point x="759" y="213"/>
      <point x="842" y="315"/>
      <point x="842" y="532" type="curve" smooth="yes"/>
      <point x="842" y="747"/>
      <point x="763" y="853"/>
      <point x="616" y="853" type="curve" smooth="yes"/>
      <point x="477" y="853"/>
      <point x="393" y="754"/>
      <point x="393" y="535" type="curve" smooth="yes"/>
      <point x="393" y="322"/>
      <point x="470" y="213"/>
    </contour>
  </outline>
</glyph>
<glyph name="uni10E6" format="1">
  <advance width="1233"/>
  <unicode hex="10E6"/>
  <outline>
    <contour>
      <point x="732" y="-402" type="line" name="hr00"/>
      <point x="724" y="-351"/>
      <point x="699" y="-308"/>
      <point x="674" y="-280" type="curve" smooth="yes"/>
      <point x="647" y="-251"/>
      <point x="612" y="-228"/>
      <point x="572" y="-213" type="curve" smooth="yes" name="ih01"/>
      <point x="545" y="-203" name="dh01"/>
      <point x="521" y="-198"/>
      <point x="502" y="-198" type="curve" smooth="yes" name="sv01"/>
      <point x="454" y="-198"/>
      <point x="393" y="-235" name="dv02"/>
      <point x="309" y="-315" type="curve"/>
      <point x="194" y="-152" type="line" name="dh06"/>
      <point x="229" y="-101"/>
      <point x="263" y="-68"/>
      <point x="302" y="-51" type="curve" name="ih02"/>
      <point x="119" y="117"/>
      <point x="27" y="293" name="dh05"/>
      <point x="27" y="476" type="curve" smooth="yes"/>
      <point x="27" y="552" type="line" smooth="yes"/>
      <point x="27" y="891" name="dv01"/>
      <point x="159" y="1066"/>
      <point x="412" y="1066" type="curve" smooth="yes"/>
      <point x="507" y="1066" name="dh04"/>
      <point x="567" y="1040" name="dh03"/>
      <point x="618" y="995" type="curve"/>
      <point x="671" y="1042" name="sv02"/>
      <point x="743" y="1066"/>
      <point x="834" y="1066" type="curve" smooth="yes"/>
      <point x="1083" y="1066"/>
      <point x="1206" y="895" name="dh02"/>
      <point x="1206" y="564" type="curve" smooth="yes"/>
      <point x="1206" y="498" type="line" smooth="yes" name="ih03"/>
      <point x="1206" y="416"/>
      <point x="1192" y="342" name="sh01"/>
      <point x="1165" y="277" type="curve" smooth="yes"/>
      <point x="1137" y="210"/>
      <point x="1093" y="149"/>
      <point x="1028" y="82" type="curve"/>
      <point x="775" y="81" type="line"/>
      <point x="810" y="133"/>
      <point x="860" y="202"/>
      <point x="887" y="255" type="curve" smooth="yes"/>
      <point x="914" y="308"/>
      <point x="923" y="356"/>
      <point x="923" y="399" type="curve" smooth="yes"/>
      <point x="923" y="729" type="line" smooth="yes"/>
      <point x="923" y="782"/>
      <point x="916" y="813"/>
      <point x="903" y="832" type="curve" smooth="yes"/>
      <point x="890" y="851"/>
      <point x="872" y="853"/>
      <point x="849" y="853" type="curve" smooth="yes"/>
      <point x="762" y="853" type="line" smooth="yes"/>
      <point x="743" y="853"/>
      <point x="730" y="846"/>
      <point x="730" y="806" type="curve" smooth="yes"/>
      <point x="730" y="388" type="line"/>
      <point x="504" y="388" type="line"/>
      <point x="504" y="804" type="line" smooth="yes"/>
      <point x="504" y="837"/>
      <point x="494" y="853"/>
      <point x="474" y="853" type="curve" smooth="yes"/>
      <point x="408" y="853" type="line" smooth="yes"/>
      <point x="379" y="853"/>
      <point x="355" y="851"/>
      <point x="336" y="832" type="curve" smooth="yes"/>
      <point x="317" y="813"/>
      <point x="306" y="782"/>
      <point x="306" y="729" type="curve" smooth="yes"/>
      <point x="306" y="506" type="line" smooth="yes"/>
      <point x="306" y="203"/>
      <point x="493" y="95"/>
      <point x="603" y="32" type="curve" smooth="yes"/>
      <point x="827" y="-96"/>
      <point x="943" y="-168"/>
      <point x="1028" y="-403" type="curve"/>
    </contour>
  </outline>
</glyph>
<glyph name="uni10EE" format="1">
  <advance width="1233"/>
  <unicode hex="10EE"/>
  <outline>
    <contour>
      <point x="623" y="0" type="curve" smooth="yes" name="ab01"/>
      <point x="440" y="0"/>
      <point x="316" y="52"/>
      <point x="228" y="148" type="curve" smooth="yes" name="sh01"/>
      <point x="140" y="244" name="sh02"/>
      <point x="98" y="383" name="iv01"/>
      <point x="98" y="563" type="curve" smooth="yes" name="dv02"/>
      <point x="97" y="1517" type="line" name="sh03"/>
      <point x="389" y="1517" type="line"/>
      <point x="389" y="954" type="line" name="sv01"/>
      <point x="466" y="1047" name="ah02"/>
      <point x="532" y="1067" name="dv01"/>
      <point x="636" y="1067" type="curve" smooth="yes" name="sh04"/>
      <point x="953" y="1067"/>
      <point x="1135" y="889" name="ah01"/>
      <point x="1135" y="532" type="curve" smooth="yes" name="sh05"/>
      <point x="1135" y="184"/>
      <point x="963" y="0"/>
    </contour>
    <contour>
      <point x="618" y="214" type="curve" smooth="yes"/>
      <point x="758" y="214"/>
      <point x="842" y="315"/>
      <point x="842" y="530" type="curve" smooth="yes"/>
      <point x="842" y="747"/>
      <point x="757" y="853"/>
      <point x="616" y="853" type="curve" smooth="yes"/>
      <point x="472" y="853"/>
      <point x="392" y="745"/>
      <point x="392" y="532" type="curve" smooth="yes"/>
      <point x="392" y="316"/>
      <point x="475" y="214"/>
    </contour>
  </outline>
</glyph>
<glyph name="uni10F4" format="1">
  <advance width="1233"/>
  <unicode hex="10F4"/>
  <outline>
    <contour>
      <point x="619" y="-402" type="curve" smooth="yes" name="dv01"/>
      <point x="267" y="-402" name="sh01"/>
      <point x="97" y="-254" name="sh03"/>
      <point x="97" y="57" type="curve" name="dv02"/>
      <point x="391" y="58" type="line"/>
      <point x="391" y="-110" name="dh03"/>
      <point x="473" y="-192"/>
      <point x="616" y="-192" type="curve" smooth="yes"/>
      <point x="680" y="-192" name="dv05"/>
      <point x="740" y="-176"/>
      <point x="780" y="-141" type="curve" smooth="yes" name="sh02"/>
      <point x="821" y="-106" name="dv06"/>
      <point x="842" y="-53"/>
      <point x="842" y="16" type="curve" smooth="yes" name="sh04"/>
      <point x="842" y="69" type="line" smooth="yes"/>
      <point x="842" y="130" name="sv01"/>
      <point x="819" y="178" name="dv07"/>
      <point x="778" y="210" type="curve" smooth="yes"/>
      <point x="737" y="241" name="dh01"/>
      <point x="680" y="257" name="dv04"/>
      <point x="607" y="257" type="curve" smooth="yes" name="dv03"/>
      <point x="391" y="257" type="line" name="dh02"/>
      <point x="391" y="482" type="line" name="dv08"/>
      <point x="604" y="482" type="line" name="sh05"/>
      <point x="665" y="487"/>
      <point x="722" y="520" name="ih01"/>
      <point x="765" y="575" type="curve" smooth="yes"/>
      <point x="806" y="627" name="dh04"/>
      <point x="835" y="702"/>
      <point x="842" y="802" type="curve"/>
      <point x="835" y="802" name="sh06"/>
      <point x="838" y="801"/>
      <point x="791" y="793" type="curve"/>
      <point x="754" y="785"/>
      <point x="729" y="781"/>
      <point x="671" y="776" type="curve"/>
      <point x="651" y="773"/>
      <point x="634" y="772"/>
      <point x="606" y="772" type="curve" smooth="yes"/>
      <point x="439" y="772"/>
      <point x="315" y="806"/>
      <point x="228" y="873" type="curve" smooth="yes"/>
      <point x="141" y="940"/>
      <point x="98" y="1036"/>
      <point x="98" y="1163" type="curve" smooth="yes" name="hr01"/>
      <point x="98" y="1428"/>
      <point x="291" y="1552"/>
      <point x="676" y="1551" type="curve"/>
      <point x="675" y="1343" type="line"/>
      <point x="466" y="1343"/>
      <point x="365" y="1274"/>
      <point x="365" y="1150" type="curve" smooth="yes"/>
      <point x="365" y="1037"/>
      <point x="450" y="985"/>
      <point x="598" y="985" type="curve" smooth="yes"/>
      <point x="765" y="985"/>
      <point x="928" y="1053"/>
      <point x="1136" y="1203" type="curve"/>
      <point x="1136" y="853" type="line" smooth="yes"/>
      <point x="1136" y="618"/>
      <point x="1049" y="467"/>
      <point x="869" y="378" type="curve"/>
      <point x="1049" y="322"/>
      <point x="1136" y="226"/>
      <point x="1136" y="73" type="curve" smooth="yes"/>
      <point x="1136" y="20" type="line" smooth="yes" name="hr02"/>
      <point x="1136" y="-263"/>
      <point x="962" y="-402"/>
    </contour>
  </outline>
</glyph>
<glyph name="uni10F7" format="1">
  <advance width="1233"/>
  <unicode hex="10F7"/>
  <outline>
    <contour>
      <point x="609" y="-403" type="curve" smooth="yes" name="dv01"/>
      <point x="262" y="-403"/>
      <point x="80" y="-263"/>
      <point x="77" y="38" type="curve" name="dh01"/>
      <point x="77" y="389" name="dv03"/>
      <point x="299" y="485"/>
      <point x="424" y="533" type="curve"/>
      <point x="598" y="603"/>
      <point x="693" y="619"/>
      <point x="693" y="738" type="curve" smooth="yes"/>
      <point x="693" y="803" name="dv04"/>
      <point x="664" y="854" name="dh02"/>
      <point x="597" y="854" type="curve" smooth="yes"/>
      <point x="570" y="854" name="dv02"/>
      <point x="527" y="847" name="ih01"/>
      <point x="495" y="828" type="curve" smooth="yes"/>
      <point x="463" y="809" name="ih02"/>
      <point x="441" y="781"/>
      <point x="441" y="744" type="curve" name="sh01"/>
      <point x="447" y="687" type="line"/>
      <point x="231" y="654" type="line" name="hr01"/>
      <point x="216" y="726" type="line" name="sh02"/>
      <point x="216" y="955"/>
      <point x="353" y="1066"/>
      <point x="601" y="1066" type="curve" smooth="yes"/>
      <point x="867" y="1066"/>
      <point x="987" y="936"/>
      <point x="987" y="731" type="curve" smooth="yes"/>
      <point x="987" y="551"/>
      <point x="895" y="451"/>
      <point x="644" y="347" type="curve"/>
      <point x="281" y="255"/>
      <point x="280" y="-192"/>
      <point x="625" y="-192" type="curve" smooth="yes"/>
      <point x="772" y="-192"/>
      <point x="861" y="-112"/>
      <point x="861" y="63" type="curve" smooth="yes"/>
      <point x="861" y="82"/>
      <point x="860" y="114"/>
      <point x="852" y="141" type="curve" smooth="yes"/>
      <point x="844" y="168"/>
      <point x="830" y="191"/>
      <point x="802" y="214" type="curve"/>
      <point x="1018" y="363" type="line"/>
      <point x="1109" y="258"/>
      <point x="1156" y="158"/>
      <point x="1156" y="23" type="curve" smooth="yes"/>
      <point x="1156" y="-245"/>
      <point x="977" y="-403"/>
    </contour>
  </outline>
</glyph>
<glyph name="uni1EBC" format="1">
  <advance width="1233"/>
  <unicode hex="1EBC"/>
  <outline>
    <contour>
      <point x="438" y="1588" type="line"/>
      <point x="438" y="1594" type="line" smooth="yes"/>
      <point x="438" y="1662"/>
      <point x="466" y="1704"/>
      <point x="510" y="1704" type="curve" smooth="yes" name="hr01"/>
      <point x="531" y="1704"/>
      <point x="550" y="1695"/>
      <point x="582" y="1678" type="curve" smooth="yes"/>
      <point x="594" y="1671" type="line"/>
      <point x="648" y="1637" type="line" smooth="yes"/>
      <point x="704" y="1602"/>
      <point x="747" y="1588"/>
      <point x="795" y="1588" type="curve" smooth="yes" name="hr02"/>
      <point x="855" y="1588"/>
      <point x="905" y="1612"/>
      <point x="940" y="1653" type="curve" smooth="yes"/>
      <point x="975" y="1694"/>
      <point x="993" y="1754"/>
      <point x="993" y="1826" type="curve" smooth="yes"/>
      <point x="993" y="1831" type="line" smooth="yes"/>
      <point x="993" y="1834"/>
      <point x="993" y="1837"/>
      <point x="994" y="1839" type="curve" smooth="yes"/>
      <point x="995" y="1841"/>
      <point x="995" y="1844"/>
      <point x="995" y="1848" type="curve" smooth="yes"/>
      <point x="995" y="1854" type="line" name="hr03"/>
      <point x="855" y="1854" type="line"/>
      <point x="855" y="1778"/>
      <point x="828" y="1737"/>
      <point x="781" y="1737" type="curve" smooth="yes" name="hr04"/>
      <point x="756" y="1737"/>
      <point x="735" y="1746"/>
      <point x="704" y="1766" type="curve" smooth="yes"/>
      <point x="644" y="1805" type="line" smooth="yes"/>
      <point x="593" y="1838"/>
      <point x="543" y="1854"/>
      <point x="493" y="1854" type="curve" smooth="yes" name="hr05"/>
      <point x="437" y="1854"/>
      <point x="389" y="1830"/>
      <point x="353" y="1789" type="curve" smooth="yes"/>
      <point x="317" y="1748"/>
      <point x="298" y="1689"/>
      <point x="298" y="1618" type="curve" smooth="yes"/>
      <point x="298" y="1588" type="line" name="hr06"/>
    </contour>
    <contour>
      <point x="1098" y="0" type="line"/>
      <point x="1098" y="260" type="line"/>
      <point x="463" y="260" type="line"/>
      <point x="463" y="651" type="line"/>
      <point x="1038" y="651" type="line"/>
      <point x="1038" y="911" type="line"/>
      <point x="463" y="911" type="line"/>
      <point x="463" y="1233" type="line"/>
      <point x="1098" y="1233" type="line"/>
      <point x="1098" y="1493" type="line"/>
      <point x="168" y="1493" type="line"/>
      <point x="168" y="0" type="line"/>
    </contour>
  </outline>
</glyph>
<glyph name="ellipsis" format="1">
  <advance width="1233"/>
  <unicode hex="2026"/>
  <outline>
    <contour>
      <point x="87" y="0" type="line" smooth="yes" name="ab01"/>
      <point x="67" y="0" name="sh01"/>
      <point x="57" y="10"/>
      <point x="57" y="30" type="curve" smooth="yes" name="sv01"/>
      <point x="57" y="337" type="line" smooth="yes" name="sv02"/>
      <point x="57" y="357"/>
      <point x="67" y="367" name="sh02"/>
      <point x="87" y="367" type="curve" smooth="yes"/>
      <point x="322" y="367" type="line" smooth="yes" name="ab02"/>
      <point x="342" y="367" name="sh03"/>
      <point x="352" y="357"/>
      <point x="352" y="337" type="curve" smooth="yes" name="sv03"/>
      <point x="352" y="30" type="line" smooth="yes" name="sv04"/>
      <point x="352" y="10"/>
      <point x="342" y="0" name="sh04"/>
      <point x="322" y="0" type="curve" smooth="yes"/>
    </contour>
    <contour>
      <point x="499" y="0" type="line" smooth="yes" name="ab03"/>
      <point x="479" y="0" name="sh05"/>
      <point x="469" y="10"/>
      <point x="469" y="30" type="curve" smooth="yes" name="sv05"/>
      <point x="469" y="337" type="line" smooth="yes" name="sv06"/>
      <point x="469" y="357"/>
      <point x="479" y="367" name="sh06"/>
      <point x="499" y="367" type="curve" smooth="yes"/>
      <point x="734" y="367" type="line" smooth="yes" name="ah01"/>
      <point x="754" y="367" name="sh07"/>
      <point x="764" y="357"/>
      <point x="764" y="337" type="curve" smooth="yes"/>
      <point x="764" y="30" type="line" smooth="yes"/>
      <point x="764" y="10"/>
      <point x="754" y="0"/>
      <point x="734" y="0" type="curve" smooth="yes"/>
    </contour>
    <contour>
      <point x="911" y="0" type="line" smooth="yes"/>
      <point x="891" y="0"/>
      <point x="881" y="10"/>
      <point x="881" y="30" type="curve" smooth="yes"/>
      <point x="881" y="337" type="line" smooth="yes"/>
      <point x="881" y="357"/>
      <point x="891" y="367"/>
      <point x="911" y="367" type="curve" smooth="yes"/>
      <point x="1146" y="367" type="line" smooth="yes"/>
      <point x="1166" y="367"/>
      <point x="1176" y="357"/>
      <point x="1176" y="337" type="curve" smooth="yes"/>
      <point x="1176" y="30" type="line" smooth="yes"/>
      <point x="1176" y="10"/>
      <point x="1166" y="0"/>
      <point x="1146" y="0" type="curve" smooth="yes"/>
    </contour>
  </outline>
</glyph>
<glyph name="uni204B" format="1">
  <advance width="1233"/>
  <unicode hex="204B"/>
  <outline>
    <contour>
      <point x="168" y="1493" type="line" name="sh01"/>
      <point x="688" y="1493" type="line" smooth="yes"/>
      <point x="976" y="1493"/>
      <point x="1163" y="1324"/>
      <point x="1163" y="1068" type="curve" smooth="yes" name="sh02"/>
      <point x="1163" y="833" name="ah02"/>
      <point x="1007" y="681" name="sv01"/>
      <point x="737" y="649" type="curve" name="sh03"/>
      <point x="737" y="-197" type="line" name="av01"/>
      <point x="549" y="-197" type="line"/>
      <point x="549" y="1346" type="line" name="ah01"/>
      <point x="359" y="1346" type="line"/>
      <point x="359" y="-197" type="line"/>
      <point x="168" y="-197" type="line"/>
    </contour>
  </outline>
</glyph>
<glyph name="uni2076" format="1">
  <advance width="1233"/>
  <unicode hex="2076"/>
  <outline>
    <contour>
      <point x="637" y="1112" type="curve" smooth="yes" name="dv01"/>
      <point x="402" y="1112" name="dh01"/>
      <point x="287" y="1241" name="dv04"/>
      <point x="287" y="1529" type="curve" smooth="yes"/>
      <point x="287" y="1837" name="ih01"/>
      <point x="419" y="1980" name="dv03"/>
      <point x="694" y="1980" type="curve" smooth="yes" name="dh02"/>
      <point x="759" y="1980" name="dv06"/>
      <point x="822" y="1973" name="dh04"/>
      <point x="902" y="1946" type="curve"/>
      <point x="902" y="1797" type="line" name="dv02"/>
      <point x="837" y="1826" name="dh03"/>
      <point x="769" y="1847"/>
      <point x="698" y="1847" type="curve" smooth="yes" name="dv05"/>
      <point x="558" y="1847" name="sh01"/>
      <point x="479" y="1766"/>
      <point x="476" y="1609" type="curve"/>
      <point x="519" y="1658" name="sh02"/>
      <point x="585" y="1682"/>
      <point x="676" y="1682" type="curve" smooth="yes"/>
      <point x="861" y="1682"/>
      <point x="965" y="1584"/>
      <point x="965" y="1405" type="curve" smooth="yes"/>
      <point x="965" y="1218"/>
      <point x="852" y="1112"/>
    </contour>
    <contour>
      <point x="637" y="1245" type="curve" smooth="yes"/>
      <point x="725" y="1245"/>
      <point x="773" y="1299"/>
      <point x="773" y="1396" type="curve" smooth="yes"/>
      <point x="773" y="1444"/>
      <point x="761" y="1481"/>
      <point x="738" y="1508" type="curve" smooth="yes"/>
      <point x="715" y="1534"/>
      <point x="681" y="1547"/>
      <point x="637" y="1547" type="curve" smooth="yes"/>
      <point x="549" y="1547"/>
      <point x="502" y="1496"/>
      <point x="502" y="1397" type="curve" smooth="yes"/>
      <point x="502" y="1298"/>
      <point x="549" y="1245"/>
    </contour>
  </outline>
</glyph>
<glyph name="uni2077" format="1">
  <advance width="1233"/>
  <unicode hex="2077"/>
  <outline>
    <contour>
      <point x="711" y="1810" type="line" name="dv01"/>
      <point x="284" y="1810" type="line"/>
      <point x="284" y="1955" type="line"/>
      <point x="930" y="1955" type="line" name="dv02"/>
      <point x="930" y="1838" type="line"/>
      <point x="584" y="1120" type="line" name="at01"/>
      <point x="378" y="1120" type="line"/>
    </contour>
  </outline>
</glyph>
<glyph name="uni20AA" format="1">
  <advance width="1233"/>
  <unicode hex="20AA"/>
  <outline>
    <contour>
      <point x="4" y="1493" type="line" name="dh01"/>
      <point x="435" y="1493" type="line" smooth="yes"/>
      <point x="726" y="1493"/>
      <point x="866" y="1289" name="dh06"/>
      <point x="866" y="866" type="curve" smooth="yes" name="dh05"/>
      <point x="866" y="521" type="line" name="hr01"/>
      <point x="675" y="521" type="line" name="sv01"/>
      <point x="675" y="866" type="line" smooth="yes" name="dh02"/>
      <point x="675" y="1113" name="av01"/>
      <point x="636" y="1210" name="sv02"/>
      <point x="468" y="1210" type="curve" smooth="yes" name="dv01"/>
      <point x="263" y="1210" type="line" name="dh03"/>
      <point x="261" y="-28" type="line" name="hr02"/>
      <point x="4" y="-28" type="line"/>
    </contour>
    <contour>
      <point x="799" y="-28" type="line" smooth="yes" name="dh04"/>
      <point x="515" y="-28" name="dv02"/>
      <point x="368" y="166" name="dh07"/>
      <point x="368" y="598" type="curve" smooth="yes" name="at01"/>
      <point x="368" y="943" type="line"/>
      <point x="559" y="943" type="line" name="dh08"/>
      <point x="559" y="598" type="line" smooth="yes"/>
      <point x="559" y="351" name="sh01"/>
      <point x="598" y="254"/>
      <point x="766" y="254" type="curve" smooth="yes"/>
      <point x="973" y="254" type="line"/>
      <point x="973" y="1493" type="line"/>
      <point x="1231" y="1493" type="line"/>
      <point x="1231" y="-29" type="line"/>
    </contour>
  </outline>
</glyph>
<glyph name="onethird" format="1">
  <advance width="1233"/>
  <unicode hex="2153"/>
  <outline>
    <contour>
      <point x="55" y="969" type="line" name="sh01"/>
      <point x="281" y="969" type="line" name="sh02"/>
      <point x="281" y="1512" type="line"/>
      <point x="61" y="1469" type="line" name="hr01"/>
      <point x="61" y="1618" type="line" name="dh01"/>
      <point x="283" y="1659" type="line" name="av01"/>
      <point x="477" y="1659" type="line" name="dh02"/>
      <point x="477" y="969" type="line" name="sh04"/>
      <point x="703" y="969" type="line" name="dv08"/>
      <point x="703" y="824" type="line" name="dv07"/>
      <point x="55" y="824" type="line" name="hr02"/>
    </contour>
    <contour>
      <point x="47" y="618" type="line"/>
      <point x="1106" y="881" type="line"/>
      <point x="1143" y="762" type="line" name="hr03"/>
      <point x="84" y="500" type="line"/>
    </contour>
    <contour>
      <point x="786" y="-285" type="curve" smooth="yes" name="dv01"/>
      <point x="687" y="-285" name="sh03"/>
      <point x="588" y="-271" name="sh05"/>
      <point x="488" y="-244" type="curve" name="dv02"/>
      <point x="488" y="-90" type="line" name="sh06"/>
      <point x="575" y="-127" name="dv03"/>
      <point x="689" y="-145"/>
      <point x="774" y="-145" type="curve" smooth="yes" name="dh03"/>
      <point x="907" y="-145" name="dv04"/>
      <point x="967" y="-101" name="sh07"/>
      <point x="967" y="-25" type="curve" smooth="yes" name="dv05"/>
      <point x="967" y="56" name="ih01"/>
      <point x="899" y="104"/>
      <point x="783" y="104" type="curve" smooth="yes" name="dv06"/>
      <point x="672" y="104" type="line" name="dh04"/>
      <point x="672" y="250" type="line" name="ih02"/>
      <point x="783" y="250" type="line" smooth="yes" name="sh08"/>
      <point x="883" y="250"/>
      <point x="942" y="283"/>
      <point x="942" y="346" type="curve" smooth="yes" name="sh09"/>
      <point x="942" y="405"/>
      <point x="892" y="440"/>
      <point x="781" y="440" type="curve" smooth="yes"/>
      <point x="717" y="440"/>
      <point x="614" y="427"/>
      <point x="518" y="395" type="curve"/>
      <point x="518" y="547" type="line"/>
      <point x="610" y="570"/>
      <point x="705" y="582"/>
      <point x="789" y="582" type="curve" smooth="yes"/>
      <point x="1008" y="582"/>
      <point x="1139" y="499"/>
      <point x="1139" y="366" type="curve" smooth="yes"/>
      <point x="1139" y="266"/>
      <point x="1068" y="203"/>
      <point x="936" y="182" type="curve" name="hr04"/>
      <point x="1079" y="163"/>
      <point x="1164" y="91"/>
      <point x="1164" y="-38" type="curve" smooth="yes"/>
      <point x="1164" y="-199"/>
      <point x="1034" y="-285"/>
    </contour>
  </outline>
</glyph>
<glyph name="fiveeighths" format="1">
  <advance width="1233"/>
  <unicode hex="215D"/>
  <outline>
    <contour>
      <point x="299" y="809" type="curve" smooth="yes" name="dv11"/>
      <point x="219" y="809"/>
      <point x="128" y="821"/>
      <point x="35" y="845" type="curve" name="dv12"/>
      <point x="35" y="993" type="line" name="dh03"/>
      <point x="103" y="965" name="dv07"/>
      <point x="190" y="947" name="dh01"/>
      <point x="273" y="947" type="curve" smooth="yes"/>
      <point x="414" y="947" name="dv04"/>
      <point x="489" y="999" name="dv03"/>
      <point x="489" y="1090" type="curve" smooth="yes"/>
      <point x="489" y="1183" name="dh02"/>
      <point x="410" y="1237" name="dv08"/>
      <point x="283" y="1237" type="curve" smooth="yes" name="dh04"/>
      <point x="216" y="1237"/>
      <point x="142" y="1222"/>
      <point x="69" y="1194" type="curve"/>
      <point x="69" y="1659" type="line"/>
      <point x="624" y="1659" type="line"/>
      <point x="624" y="1514" type="line" name="dv01"/>
      <point x="233" y="1514" type="line" name="sh01"/>
      <point x="233" y="1360" type="line" name="ih01"/>
      <point x="265" y="1369"/>
      <point x="300" y="1375" name="dv10"/>
      <point x="347" y="1375" type="curve" smooth="yes" name="dh06"/>
      <point x="545" y="1375" name="ih02"/>
      <point x="686" y="1261" name="sh02"/>
      <point x="686" y="1090" type="curve" smooth="yes"/>
      <point x="686" y="917" name="dv06"/>
      <point x="540" y="809" name="dh05"/>
    </contour>
    <contour>
      <point x="47" y="618" type="line" name="sh03"/>
      <point x="1106" y="881" type="line"/>
      <point x="1143" y="762" type="line" name="dv02"/>
      <point x="84" y="500" type="line" name="hr02"/>
    </contour>
    <contour>
      <point x="818" y="-285" type="curve" smooth="yes"/>
      <point x="603" y="-285" name="dv05"/>
      <point x="483" y="-192"/>
      <point x="483" y="-41" type="curve" smooth="yes"/>
      <point x="483" y="70"/>
      <point x="548" y="143" name="sh04"/>
      <point x="667" y="174" type="curve"/>
      <point x="560" y="205"/>
      <point x="509" y="267"/>
      <point x="509" y="359" type="curve" smooth="yes"/>
      <point x="509" y="497"/>
      <point x="627" y="582"/>
      <point x="816" y="582" type="curve" smooth="yes"/>
      <point x="1008" y="582"/>
      <point x="1125" y="495"/>
      <point x="1125" y="359" type="curve" smooth="yes"/>
      <point x="1125" y="267"/>
      <point x="1071" y="205"/>
      <point x="970" y="174" type="curve"/>
      <point x="1083" y="145"/>
      <point x="1150" y="75"/>
      <point x="1150" y="-41" type="curve" smooth="yes"/>
      <point x="1150" y="-194"/>
      <point x="1031" y="-285"/>
    </contour>
    <contour>
      <point x="817" y="237" type="curve" smooth="yes"/>
      <point x="897" y="237"/>
      <point x="946" y="279"/>
      <point x="946" y="344" type="curve" smooth="yes"/>
      <point x="946" y="409"/>
      <point x="897" y="449"/>
      <point x="817" y="449" type="curve" smooth="yes"/>
      <point x="737" y="449"/>
      <point x="688" y="408"/>
      <point x="688" y="344" type="curve" smooth="yes"/>
      <point x="688" y="279"/>
      <point x="737" y="237"/>
    </contour>
    <contour>
      <point x="816" y="-152" type="curve" smooth="yes"/>
      <point x="907" y="-152"/>
      <point x="968" y="-102"/>
      <point x="968" y="-23" type="curve" smooth="yes"/>
      <point x="968" y="18"/>
      <point x="951" y="49"/>
      <point x="927" y="69" type="curve" smooth="yes"/>
      <point x="900" y="92"/>
      <point x="864" y="103"/>
      <point x="819" y="103" type="curve" smooth="yes"/>
      <point x="726" y="103"/>
      <point x="665" y="53"/>
      <point x="665" y="-24" type="curve" smooth="yes"/>
      <point x="665" y="-101"/>
      <point x="725" y="-152"/>
    </contour>
  </outline>
</glyph>
<glyph name="uni21AB" format="1">
  <advance width="1233"/>
  <unicode hex="21AB"/>
  <outline>
    <contour>
      <point x="66" y="490" type="line" name="hr00"/>
      <point x="66" y="632" type="line"/>
      <point x="357" y="923" type="line"/>
      <point x="477" y="803" type="line"/>
      <point x="347" y="673" type="line" name="sv01"/>
      <point x="575" y="673" type="line" name="dh01"/>
      <point x="575" y="745" type="line" smooth="yes"/>
      <point x="575" y="828"/>
      <point x="606" y="900" name="av01"/>
      <point x="662" y="956" type="curve" smooth="yes"/>
      <point x="718" y="1012"/>
      <point x="787" y="1042"/>
      <point x="870" y="1042" type="curve" smooth="yes" name="dv01"/>
      <point x="957" y="1042" name="sh01"/>
      <point x="1028" y="1008"/>
      <point x="1080" y="956" type="curve" smooth="yes" name="sh02"/>
      <point x="1141" y="895" name="sv02"/>
      <point x="1167" y="818" name="iv01"/>
      <point x="1167" y="745" type="curve" smooth="yes"/>
      <point x="1167" y="665" name="av02"/>
      <point x="1137" y="591" name="dv02"/>
      <point x="1081" y="535" type="curve"/>
      <point x="1032" y="484"/>
      <point x="960" y="449"/>
      <point x="871" y="449" type="curve" smooth="yes"/>
      <point x="800" y="449" type="line"/>
      <point x="800" y="225" type="line"/>
      <point x="575" y="225" type="line" name="dh02"/>
      <point x="575" y="449" type="line"/>
      <point x="347" y="449" type="line"/>
      <point x="477" y="319" type="line"/>
      <point x="357" y="199" type="line"/>
    </contour>
    <contour>
      <point x="871" y="673" type="line" smooth="yes"/>
      <point x="886" y="673"/>
      <point x="907" y="679"/>
      <point x="922" y="694" type="curve" smooth="yes"/>
      <point x="937" y="709"/>
      <point x="943" y="727"/>
      <point x="943" y="747" type="curve" smooth="yes"/>
      <point x="943" y="766"/>
      <point x="936" y="783"/>
      <point x="922" y="796" type="curve" smooth="yes"/>
      <point x="909" y="808"/>
      <point x="891" y="818"/>
      <point x="872" y="818" type="curve" smooth="yes"/>
      <point x="853" y="818"/>
      <point x="832" y="809"/>
      <point x="820" y="797" type="curve" smooth="yes"/>
      <point x="803" y="781"/>
      <point x="800" y="758"/>
      <point x="800" y="745" type="curve" smooth="yes"/>
      <point x="800" y="673" type="line"/>
    </contour>
  </outline>
</glyph>
<glyph name="uni21E5" format="1">
  <advance width="1233"/>
  <unicode hex="21E5"/>
  <outline>
    <contour>
      <point x="592" y="319" type="line" name="hr00"/>
      <point x="722" y="449" type="line" name="dv01"/>
      <point x="66" y="449" type="line"/>
      <point x="66" y="673" type="line"/>
      <point x="722" y="673" type="line" name="dv02"/>
      <point x="592" y="803" type="line"/>
      <point x="712" y="923" type="line" name="av03"/>
      <point x="973" y="662" type="line" name="iv01"/>
      <point x="973" y="923" type="line" name="dh01"/>
      <point x="1167" y="923" type="line" name="dh02"/>
      <point x="1167" y="199" type="line" name="av01"/>
      <point x="973" y="199" type="line" name="sh01"/>
      <point x="973" y="460" type="line" name="iv02"/>
      <point x="712" y="199" type="line" name="av02"/>
    </contour>
  </outline>
</glyph>
<glyph name="uni21E9" format="1">
  <advance width="1233"/>
  <unicode hex="21E9"/>
  <outline>
    <contour>
      <point x="194" y="403" type="line" name="hr00"/>
      <point x="424" y="403" type="line" name="sh01"/>
      <point x="424" y="1162" type="line"/>
      <point x="808" y="1162" type="line" name="dv02"/>
      <point x="808" y="403" type="line" name="sh02"/>
      <point x="1040" y="403" type="line"/>
      <point x="616" y="0" type="line" name="ab01"/>
    </contour>
    <contour>
      <point x="802" y="304" type="line"/>
      <point x="708" y="304" type="line" name="ah01"/>
      <point x="708" y="1072" type="line" name="dv01"/>
      <point x="524" y="1072" type="line"/>
      <point x="524" y="304" type="line" name="sh03"/>
      <point x="432" y="304" type="line"/>
      <point x="616" y="140" type="line"/>
    </contour>
  </outline>
</glyph>
<glyph name="uni21EE" format="1">
  <advance width="1233"/>
  <unicode hex="21EE"/>
  <outline>
    <contour>
      <point x="424" y="539" type="line" name="sh01"/>
      <point x="194" y="539" type="line" name="iv01"/>
      <point x="427" y="759" type="line" name="sh02"/>
      <point x="194" y="759" type="line" name="iv02"/>
      <point x="616" y="1162" type="line" name="av01"/>
      <point x="1040" y="759" type="line" name="iv03"/>
      <point x="807" y="759" type="line" name="sh04"/>
      <point x="1040" y="539" type="line" name="iv04"/>
      <point x="808" y="539" type="line" name="sh03"/>
      <point x="808" y="0" type="line" name="ab01"/>
      <point x="424" y="0" type="line"/>
    </contour>
    <contour>
      <point x="524" y="858" type="line" name="sh06"/>
      <point x="616" y="942" type="line"/>
      <point x="708" y="858" type="line" name="sh07"/>
      <point x="802" y="858" type="line" name="sh08"/>
      <point x="616" y="1042" type="line"/>
      <point x="432" y="858" type="line" name="sh09"/>
    </contour>
    <contour>
      <point x="708" y="90" type="line" name="sv01"/>
      <point x="708" y="638" type="line" name="ah01"/>
      <point x="802" y="638" type="line" name="iv05"/>
      <point x="616" y="802" type="line"/>
      <point x="432" y="638" type="line" name="iv06"/>
      <point x="524" y="638" type="line" name="sh05"/>
      <point x="524" y="90" type="line"/>
    </contour>
  </outline>
</glyph>
<glyph name="uni21FA" format="1">
  <advance width="1233"/>
  <unicode hex="21FA"/>
  <outline>
    <contour>
      <point x="66" y="490" type="line" name="hr00"/>
      <point x="66" y="632" type="line"/>
      <point x="357" y="923" type="line" name="av04"/>
      <point x="477" y="803" type="line"/>
      <point x="347" y="673" type="line" name="sv01"/>
      <point x="564" y="673" type="line" name="sh01"/>
      <point x="564" y="923" type="line" name="av05"/>
      <point x="758" y="923" type="line"/>
      <point x="758" y="673" type="line" name="sh02"/>
      <point x="846" y="673" type="line" name="ah01"/>
      <point x="846" y="923" type="line" name="av06"/>
      <point x="1040" y="923" type="line"/>
      <point x="1040" y="673" type="line" name="sh03"/>
      <point x="1167" y="673" type="line" name="dv02"/>
      <point x="1167" y="449" type="line" name="dv01"/>
      <point x="1040" y="449" type="line" name="sh04"/>
      <point x="1040" y="199" type="line" name="av01"/>
      <point x="846" y="199" type="line" name="sh05"/>
      <point x="846" y="449" type="line" name="sv02"/>
      <point x="758" y="449" type="line" name="sh06"/>
      <point x="758" y="199" type="line" name="av02"/>
      <point x="564" y="199" type="line" name="sh07"/>
      <point x="564" y="449" type="line" name="sv03"/>
      <point x="347" y="449" type="line" name="iv01"/>
      <point x="477" y="319" type="line"/>
      <point x="357" y="199" type="line" name="av03"/>
    </contour>
  </outline>
</glyph>
<glyph name="notelement" format="1">
  <advance width="1233"/>
  <unicode hex="2209"/>
  <outline>
    <contour>
      <point x="239" y="-117" type="line" name="hr00"/>
      <point x="333" y="133" type="line"/>
      <point x="200" y="260"/>
      <point x="100" y="487"/>
      <point x="100" y="761" type="curve" smooth="yes" name="sv01"/>
      <point x="100" y="1038"/>
      <point x="203" y="1287" name="av02"/>
      <point x="367" y="1422" type="curve" smooth="yes"/>
      <point x="449" y="1490"/>
      <point x="539" y="1524" name="dv02"/>
      <point x="636" y="1524" type="curve" smooth="yes" name="dv01"/>
      <point x="854" y="1524" type="line"/>
      <point x="928" y="1721" type="line"/>
      <point x="1143" y="1641" type="line" name="dv04"/>
      <point x="1100" y="1524" type="line" name="dv03"/>
      <point x="1133" y="1524" type="line"/>
      <point x="1133" y="1294" type="line"/>
      <point x="1012" y="1294" type="line" name="sv02"/>
      <point x="856" y="877" type="line" name="sv03"/>
      <point x="1133" y="877" type="line" name="ab01"/>
      <point x="1133" y="647" type="line"/>
      <point x="770" y="647" type="line" name="ab02"/>
      <point x="614" y="231" type="line" name="av01"/>
      <point x="621" y="230" name="sv04"/>
      <point x="629" y="230" name="sv05"/>
      <point x="636" y="230" type="curve" smooth="yes"/>
      <point x="1133" y="230" type="line"/>
      <point x="1133" y="0" type="line"/>
      <point x="636" y="0" type="line" smooth="yes" name="sv06"/>
      <point x="592" y="0"/>
      <point x="567" y="6" name="iv01"/>
      <point x="532" y="14" type="curve" smooth="yes"/>
      <point x="473" y="29"/>
      <point x="447" y="-38"/>
      <point x="454" y="-197" type="curve"/>
    </contour>
    <contour>
      <point x="612" y="877" type="line"/>
      <point x="768" y="1294" type="line"/>
      <point x="636" y="1294" type="line" smooth="yes"/>
      <point x="526" y="1294"/>
      <point x="427" y="1194"/>
      <point x="371" y="1029" type="curve" smooth="yes"/>
      <point x="355" y="981"/>
      <point x="344" y="930"/>
      <point x="337" y="877" type="curve"/>
    </contour>
    <contour>
      <point x="525" y="647" type="line"/>
      <point x="337" y="647" type="line"/>
      <point x="350" y="539"/>
      <point x="383" y="445"/>
      <point x="424" y="376" type="curve"/>
    </contour>
  </outline>
</glyph>
<glyph name="uni221C" format="1">
  <advance width="1233"/>
  <unicode hex="221C"/>
  <outline>
    <contour>
      <point x="444" y="1238" type="line" name="dh01"/>
      <point x="51" y="1238" type="line"/>
      <point x="51" y="1400" type="line"/>
      <point x="426" y="1893" type="line" name="av01"/>
      <point x="630" y="1893" type="line" name="sh01"/>
      <point x="630" y="1381" type="line" name="sv01"/>
      <point x="739" y="1381" type="line"/>
      <point x="739" y="1238" type="line" name="sv02"/>
      <point x="630" y="1238" type="line" name="dh02"/>
      <point x="630" y="1058" type="line"/>
      <point x="444" y="1058" type="line"/>
    </contour>
    <contour>
      <point x="256" y="721" type="line"/>
      <point x="113" y="670" type="line"/>
      <point x="49" y="868" type="line"/>
      <point x="401" y="991" type="line"/>
      <point x="571" y="410" type="line" name="ih01"/>
      <point x="958" y="1726" type="line"/>
      <point x="1174" y="1726" type="line"/>
      <point x="1174" y="1518" type="line" name="at01"/>
      <point x="1122" y="1518" type="line"/>
      <point x="662" y="-39" type="line" name="av02"/>
      <point x="475" y="-39" type="line"/>
    </contour>
    <contour>
      <point x="444" y="1381" type="line" name="sh02"/>
      <point x="444" y="1711" type="line"/>
      <point x="194" y="1381" type="line"/>
    </contour>
  </outline>
</glyph>
<glyph name="similar" format="1">
  <advance width="1233"/>
  <unicode hex="223C"/>
  <outline>
    <contour>
      <point x="850" y="468" type="curve" smooth="yes" name="dv01"/>
      <point x="778" y="468"/>
      <point x="726" y="484"/>
      <point x="645" y="519" type="curve" smooth="yes" name="sv01"/>
      <point x="612" y="533" type="line" smooth="yes" name="iv01"/>
      <point x="522" y="570"/>
      <point x="468" y="591" name="av01"/>
      <point x="385" y="591" type="curve" smooth="yes"/>
      <point x="280" y="591"/>
      <point x="192" y="558"/>
      <point x="88" y="470" type="curve" name="dv02"/>
      <point x="88" y="699" type="line" name="av02"/>
      <point x="192" y="779"/>
      <point x="287" y="814"/>
      <point x="390" y="814" type="curve" smooth="yes"/>
      <point x="463" y="814"/>
      <point x="533" y="796"/>
      <point x="621" y="759" type="curve" name="hr01"/>
      <point x="622" y="759" type="line"/>
      <point x="652" y="745" type="line" smooth="yes"/>
      <point x="725" y="710"/>
      <point x="797" y="691"/>
      <point x="865" y="691" type="curve" smooth="yes"/>
      <point x="958" y="691"/>
      <point x="1045" y="728"/>
      <point x="1145" y="816" type="curve"/>
      <point x="1145" y="582" type="line"/>
      <point x="1053" y="509"/>
      <point x="959" y="468"/>
    </contour>
  </outline>
</glyph>
<glyph name="uni224B" format="1">
  <advance width="1233"/>
  <unicode hex="224B"/>
  <outline>
    <contour>
      <point x="850" y="854" type="curve" smooth="yes" name="dv05"/>
      <point x="778" y="854"/>
      <point x="726" y="870"/>
      <point x="645" y="905" type="curve" smooth="yes" name="sv01"/>
      <point x="612" y="919" type="line" smooth="yes" name="iv01"/>
      <point x="522" y="956"/>
      <point x="468" y="977" name="av01"/>
      <point x="385" y="977" type="curve" smooth="yes" name="at01"/>
      <point x="280" y="977"/>
      <point x="192" y="944" name="at02"/>
      <point x="88" y="856" type="curve" name="dv06"/>
      <point x="88" y="1085" type="line" name="av02"/>
      <point x="192" y="1165"/>
      <point x="287" y="1200"/>
      <point x="390" y="1200" type="curve" smooth="yes" name="dv07"/>
      <point x="463" y="1200"/>
      <point x="533" y="1182"/>
      <point x="621" y="1145" type="curve" name="dv09"/>
      <point x="622" y="1145" type="line" name="iv02"/>
      <point x="652" y="1131" type="line" smooth="yes"/>
      <point x="730" y="1095" name="dv10"/>
      <point x="801" y="1077"/>
      <point x="865" y="1077" type="curve" smooth="yes"/>
      <point x="960" y="1077"/>
      <point x="1045" y="1114" name="dv08"/>
      <point x="1145" y="1202" type="curve"/>
      <point x="1145" y="968" type="line"/>
      <point x="1053" y="895"/>
      <point x="959" y="854" name="dv01"/>
    </contour>
    <contour>
      <point x="850" y="437" type="curve" smooth="yes"/>
      <point x="778" y="437" name="dv03"/>
      <point x="726" y="453" name="iv03"/>
      <point x="645" y="488" type="curve" smooth="yes"/>
      <point x="612" y="502" type="line" smooth="yes" name="dv04"/>
      <point x="522" y="539"/>
      <point x="468" y="560"/>
      <point x="385" y="560" type="curve" smooth="yes"/>
      <point x="280" y="560" name="dv02"/>
      <point x="192" y="527"/>
      <point x="88" y="439" type="curve"/>
      <point x="88" y="668" type="line"/>
      <point x="192" y="748"/>
      <point x="287" y="783"/>
      <point x="390" y="783" type="curve" smooth="yes"/>
      <point x="463" y="783"/>
      <point x="533" y="765"/>
      <point x="621" y="728" type="curve" name="hr03"/>
      <point x="622" y="728" type="line"/>
      <point x="652" y="714" type="line" smooth="yes"/>
      <point x="725" y="679"/>
      <point x="797" y="660"/>
      <point x="865" y="660" type="curve" smooth="yes"/>
      <point x="958" y="660"/>
      <point x="1045" y="697"/>
      <point x="1145" y="785" type="curve"/>
      <point x="1145" y="551" type="line"/>
      <point x="1053" y="478"/>
      <point x="959" y="437"/>
    </contour>
    <contour>
      <point x="850" y="25" type="curve" smooth="yes"/>
      <point x="778" y="25"/>
      <point x="726" y="41"/>
      <point x="645" y="76" type="curve" smooth="yes"/>
      <point x="612" y="90" type="line" smooth="yes"/>
      <point x="522" y="127"/>
      <point x="468" y="148"/>
      <point x="385" y="148" type="curve" smooth="yes"/>
      <point x="280" y="148"/>
      <point x="192" y="115"/>
      <point x="88" y="27" type="curve"/>
      <point x="88" y="256" type="line"/>
      <point x="192" y="337"/>
      <point x="287" y="371"/>
      <point x="390" y="371" type="curve" smooth="yes"/>
      <point x="455" y="371"/>
      <point x="524" y="357"/>
      <point x="621" y="316" type="curve" name="hr05"/>
      <point x="622" y="316" type="line"/>
      <point x="653" y="302" type="line" smooth="yes"/>
      <point x="729" y="267"/>
      <point x="794" y="248"/>
      <point x="862" y="248" type="curve" smooth="yes"/>
      <point x="958" y="248"/>
      <point x="1048" y="288"/>
      <point x="1145" y="373" type="curve"/>
      <point x="1145" y="140" type="line"/>
      <point x="1053" y="65"/>
      <point x="959" y="25"/>
    </contour>
  </outline>
</glyph>
<glyph name="uni2526" format="1">
  <advance width="1233"/>
  <unicode hex="2526"/>
  <outline>
    <contour>
      <point x="536" y="618" type="line" name="ih01"/>
      <point x="-20" y="618" type="line"/>
      <point x="-20" y="790" type="line"/>
      <point x="456" y="790" type="line" name="dh01"/>
      <point x="456" y="1921" type="line" name="av01"/>
      <point x="776" y="1921" type="line"/>
      <point x="776" y="618" type="line" name="dh02"/>
      <point x="696" y="618" type="line" name="sh01"/>
      <point x="696" y="-512" type="line" name="av02"/>
      <point x="536" y="-512" type="line" name="hr02"/>
    </contour>
  </outline>
</glyph>
<glyph name="uni253E" format="1">
  <advance width="1233"/>
  <unicode hex="253E"/>
  <outline>
    <contour>
      <point x="536" y="618" type="line" name="dh01"/>
      <point x="-20" y="618" type="line"/>
      <point x="-20" y="790" type="line"/>
      <point x="536" y="790" type="line" name="sh01"/>
      <point x="536" y="1921" type="line" name="av01"/>
      <point x="696" y="1921" type="line" name="sh02"/>
      <point x="696" y="876" type="line"/>
      <point x="1253" y="876" type="line" name="dv02"/>
      <point x="1253" y="532" type="line" name="dv01"/>
      <point x="696" y="532" type="line" name="dh02"/>
      <point x="696" y="-512" type="line" name="av02"/>
      <point x="536" y="-512" type="line"/>
    </contour>
  </outline>
</glyph>
<glyph name="circle" format="1">
  <advance width="1233"/>
  <unicode hex="25CB"/>
  <outline>
    <contour>
      <point x="617" y="-84" type="curve" smooth="yes" name="dv01"/>
      <point x="524" y="-84"/>
      <point x="413" y="-55" name="sh01"/>
      <point x="310" y="2" type="curve" smooth="yes"/>
      <point x="118" y="109" name="dv04"/>
      <point x="6" y="301"/>
      <point x="6" y="532" type="curve" smooth="yes" name="sh02"/>
      <point x="6" y="765"/>
      <point x="118" y="953"/>
      <point x="310" y="1062" type="curve" name="dv02"/>
      <point x="413" y="1119"/>
      <point x="524" y="1148" name="ah02"/>
      <point x="617" y="1148" type="curve" smooth="yes"/>
      <point x="710" y="1148" name="dv03"/>
      <point x="818" y="1120"/>
      <point x="922" y="1061" type="curve" smooth="yes" name="sh03"/>
      <point x="1117" y="952"/>
      <point x="1227" y="772"/>
      <point x="1227" y="532" type="curve" smooth="yes" name="ah01"/>
      <point x="1227" y="292" name="sh04"/>
      <point x="1117" y="112"/>
      <point x="922" y="3" type="curve" smooth="yes"/>
      <point x="818" y="-56"/>
      <point x="710" y="-84"/>
    </contour>
    <contour>
      <point x="616" y="79" type="curve" smooth="yes"/>
      <point x="691" y="79"/>
      <point x="766" y="100"/>
      <point x="841" y="143" type="curve" smooth="yes"/>
      <point x="990" y="228"/>
      <point x="1066" y="357"/>
      <point x="1066" y="532" type="curve" smooth="yes"/>
      <point x="1066" y="707"/>
      <point x="990" y="836"/>
      <point x="841" y="921" type="curve" smooth="yes"/>
      <point x="766" y="964"/>
      <point x="691" y="985"/>
      <point x="616" y="985" type="curve" smooth="yes"/>
      <point x="541" y="985"/>
      <point x="467" y="964"/>
      <point x="392" y="921" type="curve" smooth="yes"/>
      <point x="243" y="836"/>
      <point x="167" y="707"/>
      <point x="167" y="532" type="curve" smooth="yes"/>
      <point x="167" y="357"/>
      <point x="243" y="228"/>
      <point x="392" y="143" type="curve" smooth="yes"/>
      <point x="467" y="100"/>
      <point x="541" y="79"/>
    </contour>
  </outline>
</glyph>
<glyph name="uni25FE" format="1">
  <advance width="1233"/>
  <unicode hex="25FE"/>
  <outline>
    <contour>
      <point x="175" y="973" type="line" name="av02"/>
      <point x="1057" y="973" type="line"/>
      <point x="1057" y="91" type="line" name="av01"/>
      <point x="175" y="91" type="line"/>
    </contour>
  </outline>
</glyph>
<glyph name="uni276D" format="1">
  <advance width="1233"/>
  <unicode hex="276D"/>
  <outline>
    <contour>
      <point x="697" y="617" type="line" name="hr00"/>
      <point x="325" y="1365" type="line" name="av01"/>
      <point x="537" y="1365" type="line"/>
      <point x="909" y="617" type="line"/>
      <point x="537" y="-130" type="line" name="av02"/>
      <point x="324" y="-130" type="line"/>
    </contour>
  </outline>
</glyph>
<glyph name="uni2798" format="1">
  <advance width="1233"/>
  <unicode hex="2798"/>
  <outline>
    <contour>
      <point x="513" y="208" type="line" name="iv01"/>
      <point x="784" y="394" type="line"/>
      <point x="116" y="999" type="line"/>
      <point x="264" y="1148" type="line" name="av02"/>
      <point x="870" y="480" type="line"/>
      <point x="1056" y="750" type="line" name="iv02"/>
      <point x="1117" y="146" type="line" name="av01"/>
    </contour>
  </outline>
</glyph>
<glyph name="uni2799" format="1">
  <advance width="1233"/>
  <unicode hex="2799"/>
  <outline>
    <contour>
      <point x="815" y="680" type="line" name="hr00"/>
      <point x="84" y="645" type="line"/>
      <point x="84" y="815" type="line"/>
      <point x="815" y="780" type="line"/>
      <point x="767" y="1041" type="line" name="av02"/>
      <point x="1149" y="730" type="line"/>
      <point x="767" y="419" type="line" name="av01"/>
    </contour>
  </outline>
</glyph>
<glyph name="uni279F" format="1">
  <advance width="1233"/>
  <unicode hex="279F"/>
  <outline>
    <contour>
      <point x="850" y="552" type="line" name="dv01"/>
      <point x="549" y="552" type="line"/>
      <point x="549" y="852" type="line"/>
      <point x="850" y="852" type="line" name="dv02"/>
      <point x="850" y="1030" type="line" name="av01"/>
      <point x="1179" y="702" type="line"/>
      <point x="850" y="373" type="line" name="av02"/>
    </contour>
    <contour>
      <point x="54" y="852" type="line" name="dh01"/>
      <point x="99" y="852" type="line" name="dh02"/>
      <point x="99" y="552" type="line" name="sv01"/>
      <point x="54" y="552" type="line"/>
    </contour>
    <contour>
      <point x="159" y="852" type="line" name="dh03"/>
      <point x="249" y="852" type="line" name="dh04"/>
      <point x="249" y="552" type="line" name="sv02"/>
      <point x="159" y="552" type="line"/>
    </contour>
    <contour>
      <point x="309" y="852" type="line" name="dh05"/>
      <point x="489" y="852" type="line" name="dh06"/>
      <point x="489" y="552" type="line" name="sv03"/>
      <point x="309" y="552" type="line"/>
    </contour>
  </outline>
</glyph>
<glyph name="uni27AB" format="1">
  <advance width="1233"/>
  <unicode hex="27AB"/>
  <outline>
    <contour>
      <point x="554" y="326" type="line" name="hr00"/>
      <point x="569" y="353" type="line" name="dv01"/>
      <point x="54" y="353" type="line"/>
      <point x="54" y="495" type="line"/>
      <point x="259" y="851" type="line"/>
      <point x="856" y="851" type="line" name="dv04"/>
      <point x="955" y="1020" type="line" name="av02"/>
      <point x="1026" y="1020" type="line"/>
      <point x="1179" y="655" type="line"/>
      <point x="1179" y="512" type="line"/>
      <point x="660" y="184" type="line" name="av01"/>
      <point x="554" y="184" type="line"/>
    </contour>
    <contour>
      <point x="1108" y="673" type="line"/>
      <point x="986" y="963" type="line"/>
      <point x="888" y="794" type="line" name="dv03"/>
      <point x="290" y="794" type="line"/>
      <point x="150" y="552" type="line"/>
      <point x="748" y="552" type="line" name="dv02"/>
      <point x="650" y="383" type="line"/>
    </contour>
  </outline>
</glyph>
<glyph name="uni27B7" format="1">
  <advance width="1233"/>
  <unicode hex="27B7"/>
  <outline>
    <contour>
      <point x="1154" y="186" type="curve" name="av01"/>
      <point x="1071" y="210"/>
      <point x="981" y="222" name="iv01"/>
      <point x="885" y="222" type="curve" smooth="yes"/>
      <point x="846" y="222" name="iv02"/>
      <point x="807" y="220"/>
      <point x="767" y="216" type="curve"/>
      <point x="809" y="257"/>
      <point x="856" y="289"/>
      <point x="907" y="312" type="curve"/>
      <point x="930" y="321" name="iv03"/>
      <point x="948" y="327"/>
      <point x="963" y="328" type="curve" name="av02"/>
      <point x="697" y="593" type="line" smooth="yes"/>
      <point x="661" y="629"/>
      <point x="620" y="644"/>
      <point x="576" y="644" type="curve" smooth="yes"/>
      <point x="528" y="644" name="iv04"/>
      <point x="482" y="626"/>
      <point x="450" y="593" type="curve" name="iv05"/>
      <point x="79" y="964" type="line"/>
      <point x="120" y="1007"/>
      <point x="173" y="1026"/>
      <point x="225" y="1026" type="curve" smooth="yes"/>
      <point x="281" y="1026"/>
      <point x="336" y="1005"/>
      <point x="375" y="964" type="curve" smooth="yes"/>
      <point x="336" y="1005"/>
      <point x="314" y="1059"/>
      <point x="314" y="1114" type="curve" smooth="yes"/>
      <point x="314" y="1167"/>
      <point x="336" y="1222"/>
      <point x="375" y="1262" type="curve"/>
      <point x="746" y="890" type="line"/>
      <point x="709" y="851"/>
      <point x="697" y="812"/>
      <point x="697" y="769" type="curve" smooth="yes"/>
      <point x="697" y="744"/>
      <point x="701" y="721"/>
      <point x="709" y="699" type="curve"/>
      <point x="718" y="679"/>
      <point x="733" y="656"/>
      <point x="746" y="643" type="curve" smooth="yes"/>
      <point x="1012" y="378" type="line"/>
      <point x="1015" y="393"/>
      <point x="1022" y="417"/>
      <point x="1029" y="432" type="curve" smooth="yes"/>
      <point x="1052" y="488"/>
      <point x="1083" y="533"/>
      <point x="1124" y="573" type="curve"/>
      <point x="1120" y="532"/>
      <point x="1118" y="491"/>
      <point x="1118" y="452" type="curve" smooth="yes"/>
      <point x="1118" y="357"/>
      <point x="1130" y="269"/>
    </contour>
  </outline>
</glyph>
<glyph name="uni27BE" format="1">
  <advance width="1233"/>
  <unicode hex="27BE"/>
  <outline>
    <contour>
      <point x="50" y="756" type="line"/>
      <point x="662" y="756" type="line" name="dv04"/>
      <point x="619" y="824" name="sv02"/>
      <point x="594" y="888"/>
      <point x="575" y="945" type="curve"/>
      <point x="654" y="945" type="line" name="dv03"/>
      <point x="661" y="926"/>
      <point x="668" y="906"/>
      <point x="677" y="887" type="curve" smooth="yes" name="hr01"/>
      <point x="707" y="822"/>
      <point x="734" y="770"/>
      <point x="803" y="685" type="curve"/>
      <point x="50" y="685" type="line" name="sv01"/>
    </contour>
    <contour>
      <point x="782" y="285" type="line" smooth="yes"/>
      <point x="829" y="385"/>
      <point x="885" y="469"/>
      <point x="964" y="541" type="curve"/>
      <point x="979" y="556" name="dv01"/>
      <point x="1000" y="574" name="sv03"/>
      <point x="1047" y="607" type="curve" name="sv04"/>
      <point x="1012" y="631"/>
      <point x="983" y="654"/>
      <point x="963" y="673" type="curve" smooth="yes" name="dv02"/>
      <point x="888" y="741"/>
      <point x="825" y="839"/>
      <point x="782" y="928" type="curve" smooth="yes"/>
      <point x="774" y="945" type="line"/>
      <point x="856" y="945" type="line"/>
      <point x="891" y="866"/>
      <point x="963" y="774"/>
      <point x="1017" y="723" type="curve" smooth="yes"/>
      <point x="1060" y="683"/>
      <point x="1114" y="644"/>
      <point x="1183" y="607" type="curve"/>
      <point x="1046" y="532"/>
      <point x="929" y="429"/>
      <point x="856" y="268" type="curve"/>
      <point x="774" y="268" type="line"/>
    </contour>
    <contour>
      <point x="575" y="268" type="line"/>
      <point x="594" y="328"/>
      <point x="619" y="389"/>
      <point x="662" y="458" type="curve"/>
      <point x="50" y="458" type="line"/>
      <point x="50" y="529" type="line"/>
      <point x="803" y="529" type="line"/>
      <point x="737" y="449"/>
      <point x="706" y="390"/>
      <point x="677" y="327" type="curve" name="hr03"/>
      <point x="670" y="314"/>
      <point x="665" y="300"/>
      <point x="654" y="268" type="curve"/>
    </contour>
  </outline>
</glyph>
<glyph name="uni2A2F" format="1">
  <advance width="1233"/>
  <unicode hex="2A2F"/>
  <outline>
    <contour>
      <point x="119" y="313" type="line" name="hr00"/>
      <point x="449" y="643" type="line"/>
      <point x="119" y="971" type="line"/>
      <point x="287" y="1139" type="line" name="at01"/>
      <point x="614" y="811" type="line"/>
      <point x="944" y="1139" type="line" name="at02"/>
      <point x="1112" y="971" type="line"/>
      <point x="782" y="643" type="line"/>
      <point x="1112" y="313" type="line"/>
      <point x="944" y="147" type="line" name="av01"/>
      <point x="614" y="475" type="line"/>
      <point x="287" y="147" type="line" name="av02"/>
    </contour>
  </outline>
</glyph>
<glyph name="uni2A6B" format="1">
  <advance width="1233"/>
  <unicode hex="2A6B"/>
  <outline>
    <contour>
      <point x="721" y="912" type="line" smooth="yes" name="dv01"/>
      <point x="701" y="912" name="ah02"/>
      <point x="691" y="922"/>
      <point x="691" y="942" type="curve" smooth="yes" name="dv02"/>
      <point x="691" y="1247" type="line" smooth="yes"/>
      <point x="691" y="1267"/>
      <point x="701" y="1277" name="sh01"/>
      <point x="721" y="1277" type="curve" smooth="yes"/>
      <point x="994" y="1277" type="line" smooth="yes" name="dv03"/>
      <point x="1014" y="1277"/>
      <point x="1024" y="1267"/>
      <point x="1024" y="1247" type="curve" smooth="yes" name="dv05"/>
      <point x="1024" y="942" type="line" smooth="yes" name="iv01"/>
      <point x="1024" y="922"/>
      <point x="1014" y="912" name="dv06"/>
      <point x="994" y="912" type="curve" smooth="yes"/>
    </contour>
    <contour>
      <point x="850" y="468" type="curve" smooth="yes"/>
      <point x="778" y="468"/>
      <point x="726" y="484" name="dv04"/>
      <point x="645" y="519" type="curve" smooth="yes"/>
      <point x="612" y="533" type="line" smooth="yes"/>
      <point x="522" y="570"/>
      <point x="468" y="591" name="ab01"/>
      <point x="385" y="591" type="curve" smooth="yes" name="sh02"/>
      <point x="280" y="591"/>
      <point x="192" y="558" name="sv01"/>
      <point x="88" y="470" type="curve"/>
      <point x="88" y="699" type="line"/>
      <point x="192" y="779" name="sh03"/>
      <point x="287" y="814"/>
      <point x="390" y="814" type="curve" smooth="yes" name="ah01"/>
      <point x="463" y="814" name="sh04"/>
      <point x="533" y="796"/>
      <point x="621" y="759" type="curve" name="hr01"/>
      <point x="622" y="759" type="line"/>
      <point x="652" y="745" type="line" smooth="yes"/>
      <point x="725" y="710"/>
      <point x="797" y="691"/>
      <point x="865" y="691" type="curve" smooth="yes"/>
      <point x="958" y="691"/>
      <point x="1045" y="728"/>
      <point x="1145" y="816" type="curve"/>
      <point x="1145" y="582" type="line"/>
      <point x="1053" y="509"/>
      <point x="959" y="468"/>
    </contour>
    <contour>
      <point x="240" y="0" type="line" smooth="yes"/>
      <point x="220" y="0"/>
      <point x="210" y="10"/>
      <point x="210" y="30" type="curve" smooth="yes"/>
      <point x="210" y="335" type="line" smooth="yes"/>
      <point x="210" y="355"/>
      <point x="220" y="365"/>
      <point x="240" y="365" type="curve" smooth="yes"/>
      <point x="513" y="365" type="line" smooth="yes"/>
      <point x="533" y="365"/>
      <point x="543" y="355"/>
      <point x="543" y="335" type="curve" smooth="yes"/>
      <point x="543" y="30" type="line" smooth="yes"/>
      <point x="543" y="10"/>
      <point x="533" y="0"/>
      <point x="513" y="0" type="curve" smooth="yes"/>
    </contour>
  </outline>
</glyph>
<glyph name="six.subs" format="1">
  <advance width="1233"/>
  <outline>
    <contour>
      <point x="637" y="-428" type="curve" smooth="yes" name="ab01"/>
      <point x="402" y="-428" name="dh01"/>
      <point x="287" y="-299" name="dv02"/>
      <point x="287" y="-11" type="curve" smooth="yes"/>
      <point x="287" y="297" name="ih01"/>
      <point x="419" y="440" name="dv01"/>
      <point x="694" y="440" type="curve" smooth="yes" name="dh02"/>
      <point x="759" y="440" name="dv04"/>
      <point x="822" y="433" name="dh04"/>
      <point x="902" y="406" type="curve"/>
      <point x="902" y="257" type="line" name="sv01"/>
      <point x="837" y="286" name="dh03"/>
      <point x="769" y="307"/>
      <point x="698" y="307" type="curve" smooth="yes" name="dv03"/>
      <point x="558" y="307" name="sh01"/>
      <point x="479" y="226"/>
      <point x="476" y="69" type="curve"/>
      <point x="519" y="118" name="sh02"/>
      <point x="585" y="142"/>
      <point x="676" y="142" type="curve" smooth="yes"/>
      <point x="861" y="142"/>
      <point x="965" y="44"/>
      <point x="965" y="-135" type="curve" smooth="yes"/>
      <point x="965" y="-322"/>
      <point x="852" y="-428"/>
    </contour>
    <contour>
      <point x="637" y="-295" type="curve" smooth="yes"/>
      <point x="725" y="-295"/>
      <point x="773" y="-241"/>
      <point x="773" y="-144" type="curve" smooth="yes"/>
      <point x="773" y="-96"/>
      <point x="761" y="-59"/>
      <point x="738" y="-32" type="curve" smooth="yes"/>
      <point x="715" y="-6"/>
      <point x="681" y="7"/>
      <point x="637" y="7" type="curve" smooth="yes"/>
      <point x="549" y="7"/>
      <point x="502" y="-44"/>
      <point x="502" y="-143" type="curve" smooth="yes"/>
      <point x="502" y="-242"/>
      <point x="549" y="-295"/>
    </contour>
  </outline>
</glyph>
